<svg width="52" height="51" viewBox="0 0 52 51" fill="none" xmlns="http://www.w3.org/2000/svg">
<path d="M26.3094 11.8886C27.0084 11.8886 28.669 12.3306 28.669 12.3306C33.1679 13.3615 36.3346 17.5055 36.3346 22.1842V34.7775L37.2545 35.7016L38.023 36.4736H14.3984L15.167 35.7016L16.0868 34.7775V22.1842C16.0868 17.5056 19.2535 13.3615 23.7524 12.3306C23.7524 12.3306 25.5329 11.8886 26.112 11.8886M26.2107 4.73684C24.4737 4.73684 23.1457 6.07085 23.1457 7.81579V9.25253C17.3218 10.587 12.9289 15.9237 12.9289 22.1842V33.4737L8.84229 37.5789V39.6316H43.5791V37.5789L39.4925 33.4737V22.1842C39.4925 15.9237 35.0995 10.587 29.2757 9.25253V7.81579C29.2757 6.07085 27.9477 4.73684 26.2107 4.73684ZM30.2973 41.6842H22.124C22.124 43.9422 23.9628 45.7895 26.2107 45.7895C28.4586 45.7895 30.2973 43.9422 30.2973 41.6842Z" fill="#F2E6CF"/>
</svg>
