<svg width="50" height="50" viewBox="0 0 50 50" fill="none" xmlns="http://www.w3.org/2000/svg">
<g clip-path="url(#clip0_6_11)">
<path d="M13.1594 40.4417H2.33854C1.75729 40.4417 1.5625 40.4417 1.5625 39.3885V36.8833C1.5625 36.6761 1.48019 36.4774 1.33367 36.3309C1.18716 36.1844 0.988448 36.1021 0.781248 36.1021C0.574047 36.1021 0.375333 36.1844 0.228821 36.3309C0.0823077 36.4774 -2.29499e-06 36.6761 -2.29499e-06 36.8833V39.3885C-0.0588876 39.7212 -0.0414437 40.063 0.0510133 40.388C0.14347 40.7129 0.308526 41.0127 0.533727 41.2646C0.758928 41.5165 1.03839 41.7139 1.35104 41.842C1.66368 41.9701 2.00134 42.0256 2.33854 42.0042H13.1594C13.3666 42.0042 13.5653 41.9219 13.7118 41.7753C13.8583 41.6288 13.9406 41.4301 13.9406 41.2229C13.9406 41.0157 13.8583 40.817 13.7118 40.6705C13.5653 40.524 13.3666 40.4417 13.1594 40.4417ZM0.781248 34.424C0.988448 34.424 1.18716 34.3416 1.33367 34.1951C1.48019 34.0486 1.5625 33.8499 1.5625 33.6427V7.81771L25.2083 7.85833V20.8844C25.2083 21.0916 25.2906 21.2903 25.4372 21.4368C25.5837 21.5833 25.7824 21.6656 25.9896 21.6656C26.1968 21.6656 26.3955 21.5833 26.542 21.4368C26.6885 21.2903 26.7708 21.0916 26.7708 20.8844V7.85833C26.7747 7.43582 26.6107 7.02905 26.3147 6.72745C26.0188 6.42586 25.6152 6.25412 25.1927 6.25H2.225L5.79791 3.22916H28.5062C28.8378 3.22916 29.1557 3.36086 29.3901 3.59528C29.6246 3.8297 29.7562 4.14764 29.7562 4.47916V20.3333C29.7562 20.5405 29.8386 20.7392 29.9851 20.8858C30.1316 21.0323 30.3303 21.1146 30.5375 21.1146C30.7447 21.1146 30.9434 21.0323 31.0899 20.8858C31.2364 20.7392 31.3187 20.5405 31.3187 20.3333V4.47916C31.3187 3.73324 31.0224 3.01787 30.495 2.49043C29.9675 1.96298 29.2522 1.66666 28.5062 1.66666H5.5125C5.32792 1.66655 5.14929 1.73188 5.00833 1.85104L0.367706 5.78229C0.257998 5.89481 0.172243 6.0284 0.115623 6.175C0.0430969 6.29149 0.00316612 6.42531 -2.29499e-06 6.5625V33.6458C0.000824345 33.8525 0.0834991 34.0504 0.229922 34.1962C0.376346 34.3421 0.574588 34.424 0.781248 34.424Z" fill="#F2E6CF"/>
<path d="M28.2729 20.6052C28.4801 20.6052 28.6788 20.5229 28.8254 20.3764C28.9719 20.2299 29.0542 20.0312 29.0542 19.824V6.29167C29.0534 5.67629 28.8088 5.08629 28.3741 4.65076C27.9393 4.21524 27.3498 3.96964 26.7344 3.96771L7.20731 3.92709C7.00011 3.92709 6.80139 4.0094 6.65488 4.15591C6.50837 4.30242 6.42606 4.50114 6.42606 4.70834C6.42606 4.91554 6.50837 5.11425 6.65488 5.26076C6.80139 5.40728 7.00011 5.48959 7.20731 5.48959L26.7354 5.53021C26.9371 5.53076 27.1304 5.6112 27.2729 5.75391C27.4154 5.89662 27.4956 6.08998 27.4958 6.29167V19.824C27.4958 20.0304 27.5776 20.2285 27.7232 20.3749C27.8688 20.5213 28.0665 20.6041 28.2729 20.6052ZM39.0333 35.4781C38.8261 35.4781 38.6274 35.5604 38.4809 35.7069C38.3344 35.8535 38.2521 36.0522 38.2521 36.2594V42.7552C38.2536 42.9077 38.2178 43.0582 38.1479 43.1937C37.7084 44.0323 35.625 46.7708 27.2917 46.7708C18.9583 46.7708 16.875 44.0354 16.4302 43.1958C16.3605 43.0606 16.3248 42.9105 16.3261 42.7583V36.5906C16.3261 36.3834 16.2437 36.1847 16.0972 36.0382C15.9507 35.8917 15.752 35.8094 15.5448 35.8094C15.3376 35.8094 15.1389 35.8917 14.9924 36.0382C14.8459 36.1847 14.7636 36.3834 14.7636 36.5906V42.7552C14.7614 43.1606 14.8572 43.5604 15.0427 43.9208C15.7448 45.2469 18.3333 48.3333 27.2917 48.3333C36.25 48.3333 38.8375 45.25 39.5344 43.925C39.7215 43.5647 39.818 43.1643 39.8156 42.7583V36.2594C39.8156 36.1567 39.7954 36.055 39.7561 35.9602C39.7167 35.8653 39.6591 35.7791 39.5864 35.7066C39.5138 35.634 39.4275 35.5765 39.3326 35.5373C39.2377 35.4981 39.136 35.478 39.0333 35.4781Z" fill="#F2E6CF"/>
<path d="M49.4656 28.7906L28.7969 21.8865C28.6391 21.8333 28.4682 21.8333 28.3104 21.8865L5.02812 29.351C4.87266 29.4022 4.73716 29.5008 4.6407 29.6331C4.54424 29.7653 4.49168 29.9244 4.49041 30.0881C4.48915 30.2517 4.53924 30.4117 4.63365 30.5454C4.72805 30.6791 4.86201 30.7798 5.01666 30.8333L26.7875 38.1917C26.868 38.2189 26.9525 38.233 27.0375 38.2333C27.127 38.2332 27.2158 38.2177 27.3 38.1875L43.2802 32.4813V36.2313C42.7415 36.3939 42.2693 36.7252 41.9331 37.1764C41.5968 37.6276 41.4144 38.1748 41.4125 38.7375V40.3125C41.4125 41.0109 41.6899 41.6807 42.1838 42.1745C42.6776 42.6684 43.3474 42.9458 44.0458 42.9458C44.7442 42.9458 45.414 42.6684 45.9079 42.1745C46.4017 41.6807 46.6792 41.0109 46.6792 40.3125V38.7354C46.6777 38.1778 46.499 37.6351 46.1689 37.1857C45.8388 36.7363 45.3744 36.4035 44.8427 36.2354V31.9229L49.4792 30.2677C49.6323 30.2131 49.7646 30.112 49.8576 29.9787C49.9506 29.8453 49.9996 29.6862 49.9979 29.5236C49.9962 29.361 49.9438 29.203 49.848 29.0716C49.7522 28.9402 49.6178 28.842 49.4635 28.7906H49.4656ZM45.1125 40.3125C45.1125 40.5965 44.9997 40.8689 44.7989 41.0697C44.598 41.2705 44.3257 41.3833 44.0417 41.3833C43.7577 41.3833 43.4853 41.2705 43.2845 41.0697C43.0836 40.8689 42.9708 40.5965 42.9708 40.3125V38.7354C42.9708 38.5948 42.9985 38.4555 43.0523 38.3256C43.1062 38.1957 43.185 38.0777 43.2845 37.9782C43.3839 37.8788 43.502 37.7999 43.6319 37.7461C43.7618 37.6923 43.901 37.6646 44.0417 37.6646C44.1823 37.6646 44.3215 37.6923 44.4515 37.7461C44.5814 37.7999 44.6994 37.8788 44.7989 37.9782C44.8983 38.0777 44.9772 38.1957 45.031 38.3256C45.0848 38.4555 45.1125 38.5948 45.1125 38.7354V40.3125ZM43.95 30.5833L27.3739 28.7948C27.2707 28.7812 27.1657 28.7883 27.0652 28.8159C26.9647 28.8435 26.8708 28.8908 26.7889 28.9552C26.707 29.0196 26.6388 29.0998 26.5883 29.1909C26.5379 29.2821 26.5061 29.3824 26.495 29.486C26.4839 29.5896 26.4936 29.6943 26.5236 29.7941C26.5536 29.8939 26.6032 29.9867 26.6696 30.067C26.7359 30.1473 26.8177 30.2135 26.91 30.2618C27.0024 30.31 27.1035 30.3393 27.2073 30.3479L40.5708 31.7896L27.0292 36.6271L7.76457 30.1146L28.5437 23.4479L46.826 29.5552L43.95 30.5833Z" fill="#F2E6CF"/>
</g>
<defs>
<clipPath id="clip0_6_11">
<rect width="50" height="50" fill="white"/>
</clipPath>
</defs>
</svg>
