<svg width="55" height="55" viewBox="0 0 55 55" fill="none" xmlns="http://www.w3.org/2000/svg">
<path d="M45.1032 37.8161C44.6476 37.5862 44.0212 37.5862 43.6795 37.5862H42.7114C42.5975 37.5862 42.5405 37.6437 42.5405 37.7586V40.6896C42.5405 40.8046 42.5975 40.8621 42.7114 40.8621H43.7934C44.1351 40.8621 44.7046 40.8621 45.1601 40.6322C45.8435 40.3448 45.9574 39.6552 45.9574 39.1954C45.9574 38.5057 45.6727 38.046 45.1032 37.8161Z" fill="#F2E6CF"/>
<path d="M45.046 0H9.4534C4.21417 0 0 4.25287 0 9.54023V45.4598C0 50.7471 4.21417 55 9.4534 55H45.046C50.2852 55 54.4994 50.7471 54.4994 45.4598V9.54023C54.4994 4.25287 50.2283 0 45.046 0ZM40.718 17.6437C40.718 17.5287 40.7749 17.4713 40.8888 17.4713H44.1918C44.3057 17.4713 44.3626 17.5287 44.3626 17.6437V28.3908C44.3626 28.5057 44.4196 28.5632 44.5335 28.5632H48.9754C49.0893 28.5632 49.1463 28.6782 49.1463 28.7356L48.8615 31.7241C48.8615 31.8391 48.8046 31.8966 48.6907 31.8966H40.8888C40.7749 31.8966 40.718 31.8391 40.718 31.7241V17.6437ZM35.5926 17.6437V28.3908C35.5926 28.5057 35.6496 28.5632 35.7635 28.5632H40.2054C40.3193 28.5632 40.3763 28.6782 40.3763 28.7356L40.0915 31.7241C40.0915 31.8391 40.0346 31.8966 39.9207 31.8966H32.1757C32.0618 31.8966 32.0049 31.8391 32.0049 31.7241V17.6437C32.0049 17.5287 32.0618 17.4713 32.1757 17.4713H35.4787C35.5357 17.4713 35.5926 17.5287 35.5926 17.6437ZM14.0093 30.3448C13.212 31.5517 11.8452 32.1264 9.90898 32.1264C8.31444 32.1264 7.06157 31.7241 6.20735 30.9195C5.80871 30.5747 5.29618 29.8276 5.01144 28.6782C5.01144 28.5632 5.06839 28.5057 5.12534 28.4483L8.37138 27.7586C8.48528 27.7586 8.54223 27.8161 8.59918 27.8736C8.88392 28.908 9.68119 28.9655 9.90898 28.9655C10.7063 28.9655 11.2188 28.2759 11.2188 27.6437C11.2188 26.954 10.7063 26.7241 8.71307 25.8621L8.54223 25.8046C7.63106 25.4023 5.12534 24.3678 5.12534 21.6667C5.12534 18.7931 7.63106 17.2414 10.0229 17.2414C10.4785 17.2414 11.3327 17.2989 12.13 17.6437C12.7564 17.931 14.0093 18.6207 14.294 20.1724C14.294 20.2874 14.237 20.3448 14.1801 20.3448L11.1618 21.092C11.1049 21.092 10.991 21.092 10.991 20.977C10.8202 20.6322 10.5354 20.3448 9.96593 20.3448C9.39645 20.3448 8.82697 20.7471 8.82697 21.4368C8.82697 22.069 9.22561 22.2414 11.6744 23.3908C14.0093 24.4828 14.9204 25.6322 14.9204 27.5287C14.8065 28.1034 14.6926 29.3103 14.0093 30.3448ZM26.8795 31.8966H22.8932C22.8362 31.8966 22.7793 31.8391 22.7223 31.7816L19.3624 26.2069C19.2485 26.0345 19.0207 26.092 19.0207 26.3218V31.7241C19.0207 31.8391 18.9637 31.8966 18.8498 31.8966H15.6038C15.4899 31.8966 15.433 31.8391 15.433 31.7241V17.7011C15.433 17.5862 15.4899 17.5287 15.6038 17.5287H18.8498C18.9637 17.5287 19.0207 17.5862 19.0207 17.7011V22.9885C19.0207 23.1609 19.2485 23.2184 19.3624 23.1034L22.8362 17.5862C22.8932 17.5287 22.9501 17.5287 23.0071 17.5287H26.367C26.4809 17.5287 26.5948 17.7011 26.5379 17.8161L22.2098 24.3678C22.1528 24.4253 22.1528 24.5402 22.2098 24.5977L26.9934 31.6092C27.1073 31.7241 26.9934 31.8966 26.8795 31.8966ZM38.0414 42.931C38.0414 45.4023 37.4719 46.4368 36.6177 47.3563C35.5926 48.3908 34.3967 48.908 32.7452 48.908C31.9479 48.908 30.0686 48.7356 28.7588 47.3563C27.506 45.977 27.3351 44.8851 27.3351 42.931V12.1839H25.6267L27.3921 9.08046L29.1575 5.97701L30.9229 9.08046L32.6883 12.1839H30.9798V37.931V37.9885V42.931C30.9798 43.4483 30.9798 44.023 31.2076 44.5402C31.4354 45.1149 32.0618 45.4023 32.7452 45.4023C33.4286 45.4023 34.055 45.1724 34.2259 44.6552C34.4537 44.1379 34.4537 43.5057 34.4537 42.9885V34.4828C34.4537 34.3678 34.5106 34.3103 34.6245 34.3103H37.9275C38.0414 34.3103 38.0983 34.3678 38.0983 34.4828V42.931H38.0414ZM47.9504 42.931C47.0392 43.7356 46.128 44.1954 43.9071 44.1954H42.7681C42.6542 44.1954 42.5972 44.2529 42.5972 44.3678V48.5057C42.5972 48.6207 42.5403 48.6782 42.4264 48.6782H39.1234C39.0095 48.6782 38.9526 48.6207 38.9526 48.5057V34.4253C38.9526 34.3103 39.0095 34.2529 39.1234 34.2529H43.5084C46.0711 34.2529 47.0392 34.6552 47.7795 35.2874C48.8046 36.2069 49.431 37.5862 49.431 39.0805C49.431 40.6322 48.8615 42.1839 47.9504 42.931Z" fill="#F2E6CF"/>
</svg>
