<svg width="392" height="242" viewBox="0 0 392 242" fill="none" xmlns="http://www.w3.org/2000/svg">
<path d="M70.5384 145.593C80.0998 197.883 190.477 283.84 227.737 214.669C247.349 178.26 305.498 125.671 350.309 94.388C393.883 63.9693 270.368 11.1722 193.112 25.3121C115.855 39.452 60.977 93.3037 70.5384 145.593Z" fill="#F9E0C0"/>
<path d="M56.2427 147.001C45.7359 89.5429 106.18 30.1702 190.982 14.6491C221.85 8.99965 263.396 12.8646 302.123 24.9884C339.102 36.5651 366.004 53.1832 372.328 68.3571C375.899 76.9225 372.991 84.5594 363.688 91.0543L363.287 90.4805C372.284 84.1994 375.109 76.847 371.683 68.6264C365.435 53.6379 338.701 37.1731 301.914 25.6567C263.292 13.565 221.87 9.70764 191.109 15.3373C106.686 30.7889 46.494 89.7969 56.9306 146.875L56.2427 147.001Z" fill="#F4C5A2"/>
<path d="M332.98 195.991L346.302 202.288C346.302 202.288 344.343 210.563 334.048 209.665L326.703 205.137L332.98 195.991Z" fill="#F9977A"/>
<path d="M339.235 198.975C339.235 198.975 349.729 198.515 351.483 204.307C351.572 204.609 351.59 204.927 351.535 205.237C351.479 205.546 351.353 205.839 351.164 206.091L331.814 232.272C331.725 232.392 331.612 232.492 331.482 232.565C331.352 232.638 331.208 232.682 331.059 232.696C330.911 232.71 330.761 232.692 330.62 232.643C330.479 232.595 330.35 232.518 330.24 232.416C328.99 231.27 333.597 220.128 332.811 210.199C332.811 210.199 340.855 203.956 339.235 198.975Z" fill="#935B50"/>
<path d="M293.823 220.571L296.604 235.047C296.604 235.047 288.771 238.348 283.421 229.503L282.739 220.9L293.823 220.571Z" fill="#F9977A"/>
<path d="M295.107 227.384C295.107 227.384 301.672 235.588 298.034 240.423C297.843 240.673 297.596 240.875 297.314 241.013C297.031 241.151 296.72 241.222 296.406 241.218L263.86 241.042C263.711 241.04 263.564 241.008 263.428 240.946C263.293 240.884 263.171 240.794 263.073 240.682C262.974 240.57 262.9 240.439 262.856 240.296C262.812 240.154 262.798 240.003 262.815 239.855C263.002 238.168 274.711 235.314 282.26 228.819C282.26 228.819 292.044 231.632 295.107 227.384Z" fill="#935B50"/>
<path d="M299.837 2.90485C297.56 2.5579 295.232 2.7575 293.047 3.4872C292.022 3.85057 288.276 5.17949 286.45 8.72825C285.756 10.076 285.6 11.6973 285.286 14.9399C285.09 16.9653 284.31 18.4159 284.311 20.8861C284.352 22.8876 284.68 24.8728 285.286 26.7808C286.194 29.767 285.609 31.4636 286.062 32.0218C287.886 34.2716 293.426 32.5064 293.509 35.4421C293.561 37.2547 290.503 45.0802 290.565 47.2038C290.71 52.1523 298.97 46.9735 303.912 39.5923C304.136 39.2573 307.514 37.2789 307.161 34.0728C306.972 32.3601 305.519 24.3237 305.658 23.2868C306.163 19.539 308.05 19.082 309.539 14.5517C309.942 13.4143 310.047 12.1922 309.844 11.0026C309.64 9.81292 309.134 8.6956 308.374 7.7577C306.186 5.18858 303.164 3.47087 299.837 2.90485Z" fill="#F9977A"/>
<path d="M286.065 19.0646C286.485 19.0646 286.825 18.6411 286.825 18.1186C286.825 17.5961 286.485 17.1725 286.065 17.1725C285.645 17.1725 285.304 17.5961 285.304 18.1186C285.304 18.6411 285.645 19.0646 286.065 19.0646Z" fill="#0A0709"/>
<path d="M292.923 19.0646C293.343 19.0646 293.684 18.6411 293.684 18.1186C293.684 17.5961 293.343 17.1725 292.923 17.1725C292.503 17.1725 292.163 17.5961 292.163 18.1186C292.163 18.6411 292.503 19.0646 292.923 19.0646Z" fill="#0A0709"/>
<path d="M289.682 16.4245C289.589 16.4244 289.499 16.3974 289.421 16.3467C288.747 15.8808 287.948 15.6298 287.128 15.6265C286.309 15.6232 285.508 15.8679 284.83 16.3284C284.728 16.405 284.6 16.438 284.474 16.4202C284.348 16.4023 284.234 16.3352 284.158 16.2334C284.081 16.1316 284.048 16.0036 284.066 15.8774C284.084 15.7513 284.151 15.6374 284.253 15.5609C285.092 14.9914 286.081 14.6853 287.095 14.6818C288.109 14.6783 289.101 14.9774 289.944 15.541C290.031 15.5975 290.098 15.6806 290.133 15.7779C290.169 15.8752 290.173 15.9814 290.143 16.0808C290.114 16.1801 290.053 16.2673 289.97 16.3292C289.887 16.3912 289.786 16.4246 289.682 16.4245ZM296.79 16.4245C296.697 16.4244 296.607 16.3974 296.529 16.3467C295.853 15.8859 295.055 15.6378 294.237 15.6343C293.418 15.6307 292.618 15.8719 291.938 16.3268C291.888 16.3648 291.83 16.3925 291.769 16.4083C291.708 16.4242 291.645 16.4278 291.582 16.4191C291.52 16.4104 291.46 16.3895 291.406 16.3576C291.351 16.3256 291.304 16.2833 291.266 16.233C291.228 16.1827 291.2 16.1254 291.185 16.0644C291.169 16.0034 291.165 15.9399 291.174 15.8775C291.182 15.8151 291.203 15.755 291.235 15.7007C291.267 15.6463 291.31 15.5988 291.36 15.5609C292.199 14.9914 293.189 14.6854 294.203 14.6818C295.217 14.6783 296.209 14.9774 297.052 15.541C297.139 15.5975 297.205 15.6806 297.241 15.7779C297.277 15.8752 297.28 15.9814 297.251 16.0808C297.221 16.1801 297.161 16.2673 297.078 16.3292C296.994 16.3912 296.894 16.4246 296.79 16.4245Z" fill="#1E1D22"/>
<path d="M290.336 16.6198C290.592 17.4173 290.561 18.2793 290.248 19.0563C289.978 19.8373 289.586 20.5705 289.086 21.2287L288.689 21.6809C288.641 21.7257 288.602 21.7797 288.574 21.8398C288.547 21.8999 288.532 21.9649 288.53 22.0309C288.562 22.3546 288.721 22.6525 288.971 22.8599C289.587 23.3142 290.35 23.5206 291.111 23.4383C290.717 23.5998 290.29 23.6648 289.865 23.6279C289.441 23.5909 289.031 23.4531 288.671 23.2259C288.472 23.092 288.305 22.9162 288.182 22.7108C288.058 22.5055 287.981 22.2755 287.956 22.0371C287.952 21.7661 288.051 21.5038 288.233 21.3033L288.616 20.8466C289.085 20.2302 289.487 19.5665 289.817 18.8662C290.178 18.1737 290.357 17.4005 290.336 16.6198ZM302.799 16.9399C303.096 16.8515 303.413 16.8677 303.7 16.9858C303.985 17.0958 304.244 17.2637 304.461 17.479C304.672 17.6903 304.845 17.9367 304.972 18.2071C305.099 18.476 305.171 18.7676 305.184 19.0648C304.97 18.8789 304.768 18.6803 304.579 18.4701C304.387 18.2821 304.224 18.0813 304.035 17.9106C303.858 17.7301 303.67 17.5595 303.473 17.3993C303.263 17.2267 303.037 17.073 302.799 16.9399Z" fill="#DD765E"/>
<path d="M303.417 20.8861C303.218 20.6293 303.077 20.333 303.001 20.0171C302.926 19.7012 302.918 19.3728 302.98 19.0538C303.031 18.7313 303.147 18.4223 303.318 18.1447C303.485 17.8667 303.716 17.6328 303.991 17.4628C303.822 18.0175 303.683 18.5815 303.578 19.1519C303.49 19.7263 303.436 20.3054 303.417 20.8861Z" fill="#DD765E"/>
<path d="M301.151 22.2633C301.085 21.1894 301.254 20.114 301.646 19.112C302.189 17.7273 302.855 15.8407 304.208 15.7151C305.206 15.6226 305.607 15.3591 305.966 16.3223C306.559 17.9155 305.528 19.6732 304.81 20.8974C303.782 22.6491 302.909 23.0315 302.894 24.2435C302.881 25.168 305.519 27.0442 306.019 26.6832C307.039 25.9471 306.481 23.7414 309.262 18.4921C311.018 15.1774 311.826 14.5556 312.029 12.4864C312.101 11.7517 312.4 8.70997 310.57 6.94091C309.722 6.12037 309.239 6.37035 305.548 4.80689C304.524 4.40022 303.522 3.93815 302.547 3.42272C299.608 1.81623 299.673 0.989885 297.953 0.500673C296.399 0.0588114 296.307 0.722545 293.34 0.546766C290.479 0.377409 290.225 -0.259817 288.903 0.117522C286.607 0.77256 285.504 3.2262 285.208 3.88549C284.616 5.02676 284.312 6.29503 284.322 7.58042C284.448 8.8845 284.93 10.1286 285.717 11.1763C286.09 11.5564 287.602 9.36531 288.427 8.54101C289.235 7.73344 290.153 8.06411 291.404 8.14194C292.624 8.21783 292.557 8.97794 294.362 9.64529C295.004 9.88304 297.581 8.72841 298.412 10.1548C299.298 11.6746 299.987 11.8587 299.571 13.2729C299.311 14.1564 299.472 15.2419 299.793 17.4129C300.024 18.9709 298.764 24.4129 298.764 24.4129C298.298 25.3669 301.294 24.6593 301.151 22.2633Z" fill="#1E1D22"/>
<path d="M292.69 26.7825C292.69 26.7825 289.694 29.5777 287.015 26.7825H292.69Z" fill="#0A0709"/>
<path d="M284.003 109.954L277.893 166.716L279.348 225.516H295.35L299.132 189.13L326.773 209.215L334.919 194.952L306.406 169.045L312.516 137.317L318.129 126.646C320.165 122.776 321.076 118.412 320.759 114.05L320.081 104.715L284.003 109.954Z" fill="#376F92"/>
<path d="M286.33 114.03L285.88 124.365L285.377 134.697L284.368 155.362L283.807 165.692L283.526 170.857C283.377 172.565 283.585 174.285 284.136 175.909C284.702 177.529 285.602 179.012 286.779 180.26C287.927 181.542 289.125 182.78 290.388 183.949C291.633 185.138 292.977 186.218 294.404 187.18C295.808 188.187 297.427 188.855 299.132 189.13C297.417 188.882 295.783 188.238 294.359 187.25C292.91 186.309 291.544 185.245 290.275 184.072C288.997 182.91 287.791 181.672 286.631 180.394C285.428 179.13 284.505 177.628 283.921 175.984C283.351 174.334 283.129 172.584 283.269 170.844L283.521 165.677L284.027 155.345L285.15 134.686L285.714 124.356L286.33 114.03ZM301.46 169.627C301.879 169.784 302.31 169.905 302.749 169.99C303.175 170.077 303.611 170.104 304.045 170.071C304.476 170.051 304.899 169.946 305.29 169.761C305.692 169.573 306.067 169.332 306.406 169.045C306.151 169.434 305.811 169.759 305.411 169.996C305.002 170.235 304.543 170.377 304.071 170.412C303.135 170.463 302.212 170.185 301.46 169.627Z" fill="#10394F"/>
<path d="M292.136 40.8693C292.136 40.8693 286.962 56.2638 307.055 33.2894L315.933 40.5373C317.772 42.0655 319.051 44.1639 319.564 46.5005L326.191 76.625H318.117L320.081 104.715L282.221 110.245C282.221 110.245 282.208 71.6517 292.136 40.8693Z" fill="#F73C4F"/>
<path d="M287.131 102.168C287.814 101.768 288.51 101.405 289.196 101.025L291.21 99.8162C292.521 98.9752 293.772 98.045 294.956 97.0323C296.141 96.0302 297.212 94.8993 298.147 93.6606C298.609 93.0363 299.019 92.3754 299.373 91.6846C299.752 90.999 300.038 90.2663 300.223 89.5055C300.019 91.093 299.439 92.6087 298.53 93.9262C297.645 95.2585 296.575 96.4584 295.353 97.4901C294.144 98.5252 292.836 99.4379 291.448 100.215L289.33 101.288C288.594 101.582 287.869 101.893 287.131 102.168Z" fill="#B02336"/>
<path d="M308.553 77.1221L311.134 91.4704L301.205 115.048L296.787 119.197C297.469 123.381 299.338 127.282 302.173 130.435C302.173 130.435 305.133 124.982 304.915 119.306L322.906 98.5644C324.192 97.0814 325.137 95.3338 325.673 93.4451C326.21 91.5565 326.325 89.5729 326.011 87.6347L324.227 76.625C324.227 76.625 313.827 72.8163 308.553 77.1221Z" fill="#F9977A"/>
<path d="M309.825 38.8564C309.825 38.8564 299.042 40.3846 301.596 55.4484C304.151 70.5121 305.515 77.2799 305.515 77.2799L326.191 76.6249" fill="#F73C4F"/>
<path d="M309.825 38.8564C308.081 39.246 306.471 40.0864 305.153 41.2936C303.855 42.4945 302.872 43.9977 302.294 45.6696C301.999 46.4995 301.78 47.3543 301.639 48.2237C301.571 48.6582 301.56 49.1023 301.517 49.5405C301.465 49.9786 301.446 50.42 301.46 50.861C301.492 52.6319 301.669 54.3971 301.992 56.1388L303.919 66.6764L305.775 77.2274L305.506 77.0149C308.953 76.9058 312.4 76.8581 315.847 76.7774C319.294 76.6962 322.743 76.6778 326.191 76.6249C322.747 76.7903 319.303 76.9901 315.858 77.1273C312.413 77.2649 308.969 77.4356 305.523 77.5448L305.295 77.552L305.255 77.3321L303.325 66.787L301.465 56.2287C301.142 54.4558 300.983 52.6567 300.992 50.8545C300.987 50.4026 301.016 49.951 301.078 49.5034C301.132 49.0545 301.153 48.6019 301.233 48.1573C301.396 47.2664 301.639 46.3921 301.96 45.5452C302.578 43.8436 303.629 42.3323 305.008 41.1596C306.386 39.9869 308.047 39.1932 309.825 38.8564Z" fill="#B02336"/>
<path d="M295.908 114.509C296.017 115.497 296.179 116.478 296.393 117.448C296.585 118.42 296.83 119.379 297.114 120.325C297.665 122.217 298.409 124.047 299.332 125.788C300.232 127.536 301.37 129.151 302.713 130.587L303.74 131.648L304.878 132.59L305.446 133.069L306.064 133.478C306.479 133.749 306.891 134.027 307.303 134.311C305.477 133.472 303.811 132.322 302.379 130.912C300.948 129.489 299.741 127.857 298.798 126.072C297.874 124.285 297.159 122.397 296.666 120.447C296.17 118.507 295.915 116.512 295.908 114.509Z" fill="#10394F"/>
<path d="M297.124 31.6183C294.641 33.3647 289.853 33.2895 289.853 33.2895L289.838 33.4012C291.699 33.6277 293.462 33.7956 293.509 35.4419C293.429 36.364 293.241 37.2734 292.949 38.1516C296.203 36.2811 297.124 31.6183 297.124 31.6183Z" fill="#DD765E"/>
<path d="M365.318 237.993V160.306H367.423V158.155H365.318V152.241H363.079V158.155H360.975V160.306H363.079V237.993H351.705V241.219H376.693V237.993H365.318Z" fill="#FFBA55"/>
<path d="M375.09 146.734C375.024 146.734 374.96 146.717 374.903 146.686C374.846 146.655 374.797 146.61 374.762 146.555C374.633 146.356 374.5 146.155 374.363 145.953C374.334 145.911 374.314 145.863 374.304 145.813C374.293 145.762 374.293 145.711 374.303 145.66C374.312 145.61 374.332 145.562 374.36 145.519C374.388 145.476 374.425 145.439 374.467 145.41C374.51 145.382 374.557 145.362 374.608 145.351C374.658 145.341 374.71 145.341 374.76 145.35C374.811 145.36 374.858 145.38 374.901 145.408C374.944 145.436 374.981 145.473 375.01 145.515C375.149 145.722 375.285 145.927 375.418 146.131C375.456 146.19 375.477 146.258 375.48 146.328C375.483 146.398 375.466 146.468 375.433 146.53C375.399 146.591 375.35 146.643 375.289 146.679C375.229 146.715 375.16 146.734 375.09 146.734ZM379.147 190.954C379.087 190.954 379.028 190.94 378.974 190.913C378.92 190.886 378.873 190.848 378.836 190.8C378.539 190.407 378.254 189.998 377.991 189.584C377.964 189.541 377.945 189.493 377.936 189.442C377.927 189.392 377.928 189.34 377.94 189.29C377.951 189.24 377.972 189.192 378.001 189.15C378.03 189.108 378.068 189.072 378.111 189.045C378.154 189.017 378.203 188.999 378.253 188.99C378.304 188.981 378.355 188.982 378.405 188.993C378.455 189.004 378.503 189.025 378.545 189.055C378.587 189.084 378.623 189.121 378.65 189.165C378.902 189.561 379.173 189.952 379.459 190.327C379.503 190.385 379.53 190.454 379.537 190.526C379.543 190.599 379.53 190.672 379.498 190.737C379.465 190.802 379.415 190.857 379.353 190.895C379.292 190.934 379.22 190.954 379.147 190.954ZM377.599 188.511C377.528 188.511 377.458 188.491 377.397 188.454C377.336 188.417 377.286 188.364 377.253 188.301C377.175 188.151 377.098 187.997 377.022 187.839C376.897 187.578 376.764 187.284 376.63 186.95C376.592 186.854 376.594 186.746 376.635 186.651C376.676 186.556 376.753 186.481 376.849 186.443C376.945 186.405 377.052 186.406 377.147 186.447C377.242 186.487 377.317 186.564 377.356 186.66C377.482 186.976 377.608 187.254 377.726 187.501C377.798 187.649 377.87 187.795 377.946 187.939C377.977 187.999 377.992 188.066 377.99 188.133C377.988 188.2 377.968 188.265 377.933 188.323C377.899 188.38 377.85 188.428 377.791 188.461C377.733 188.494 377.666 188.511 377.599 188.511ZM376.529 185.825C376.443 185.825 376.361 185.797 376.293 185.746C376.225 185.694 376.176 185.622 376.153 185.54C376.023 185.075 375.91 184.589 375.819 184.096C375.8 183.994 375.822 183.889 375.88 183.803C375.939 183.718 376.029 183.659 376.131 183.64C376.232 183.621 376.337 183.643 376.423 183.702C376.508 183.761 376.567 183.851 376.586 183.952C376.674 184.424 376.781 184.887 376.905 185.329C376.921 185.387 376.923 185.449 376.912 185.508C376.901 185.567 376.876 185.623 376.84 185.671C376.803 185.719 376.756 185.758 376.702 185.785C376.648 185.811 376.589 185.825 376.529 185.825ZM375.99 182.983C375.894 182.983 375.801 182.947 375.73 182.883C375.658 182.818 375.613 182.73 375.603 182.634C375.553 182.178 375.514 181.689 375.489 181.168C375.486 181.116 375.493 181.065 375.511 181.017C375.528 180.969 375.555 180.924 375.589 180.886C375.623 180.848 375.665 180.817 375.711 180.796C375.758 180.774 375.808 180.761 375.859 180.759C375.911 180.755 375.962 180.762 376.011 180.779C376.059 180.796 376.104 180.823 376.142 180.857C376.18 180.892 376.211 180.934 376.233 180.981C376.254 181.027 376.266 181.078 376.268 181.13C376.293 181.635 376.331 182.108 376.379 182.55C376.385 182.605 376.379 182.66 376.363 182.712C376.346 182.764 376.318 182.812 376.281 182.853C376.245 182.894 376.2 182.927 376.15 182.949C376.099 182.971 376.045 182.983 375.99 182.983ZM375.846 180.091H375.845C375.741 180.091 375.642 180.049 375.569 179.976C375.496 179.902 375.455 179.803 375.456 179.699C375.457 179.234 375.469 178.746 375.492 178.235C375.492 178.183 375.502 178.131 375.523 178.084C375.544 178.036 375.575 177.993 375.613 177.958C375.651 177.923 375.697 177.896 375.746 177.88C375.796 177.863 375.848 177.858 375.9 177.863C375.951 177.865 376.001 177.877 376.047 177.899C376.094 177.921 376.136 177.951 376.17 177.989C376.205 178.027 376.232 178.071 376.249 178.119C376.266 178.168 376.274 178.219 376.272 178.27C376.25 178.771 376.238 179.248 376.237 179.702C376.236 179.805 376.195 179.904 376.122 179.977C376.049 180.05 375.949 180.091 375.846 180.091ZM375.976 177.199C375.964 177.199 375.954 177.198 375.943 177.197C375.892 177.193 375.842 177.179 375.797 177.156C375.751 177.132 375.71 177.1 375.677 177.061C375.644 177.022 375.619 176.976 375.603 176.928C375.588 176.879 375.582 176.827 375.586 176.776C375.624 176.309 375.672 175.825 375.73 175.322C375.743 175.22 375.795 175.127 375.876 175.063C375.957 174.998 376.059 174.968 376.162 174.978C376.265 174.99 376.359 175.042 376.423 175.123C376.488 175.204 376.517 175.308 376.506 175.411C376.449 175.906 376.402 176.381 376.364 176.84C376.356 176.938 376.312 177.029 376.24 177.095C376.168 177.162 376.074 177.199 375.976 177.199ZM376.304 174.32C376.285 174.32 376.267 174.319 376.248 174.317C376.197 174.309 376.148 174.292 376.104 174.266C376.06 174.24 376.022 174.205 375.991 174.164C375.96 174.123 375.937 174.077 375.925 174.027C375.912 173.977 375.909 173.926 375.916 173.875C375.989 173.365 376.065 172.885 376.144 172.433C376.152 172.382 376.17 172.333 376.197 172.289C376.224 172.246 376.26 172.208 376.302 172.178C376.344 172.149 376.392 172.128 376.442 172.117C376.492 172.106 376.544 172.106 376.595 172.115C376.646 172.124 376.694 172.143 376.737 172.17C376.78 172.198 376.818 172.234 376.847 172.275C376.877 172.317 376.898 172.365 376.909 172.415C376.92 172.465 376.921 172.517 376.912 172.567C376.835 173.012 376.76 173.483 376.69 173.985C376.676 174.078 376.63 174.163 376.559 174.225C376.488 174.286 376.398 174.32 376.304 174.32ZM376.8 171.47C376.773 171.47 376.746 171.467 376.72 171.462C376.67 171.451 376.622 171.431 376.58 171.402C376.537 171.374 376.501 171.337 376.473 171.294C376.445 171.251 376.425 171.203 376.416 171.152C376.406 171.102 376.407 171.05 376.417 171C376.523 170.486 376.634 170.013 376.746 169.573C376.772 169.473 376.836 169.387 376.925 169.335C377.014 169.282 377.12 169.266 377.22 169.292C377.32 169.317 377.406 169.381 377.459 169.47C377.512 169.559 377.528 169.665 377.502 169.766C377.393 170.194 377.286 170.657 377.181 171.159C377.163 171.247 377.116 171.326 377.046 171.382C376.977 171.439 376.89 171.47 376.8 171.47ZM377.513 168.667C377.474 168.667 377.436 168.661 377.399 168.65C377.35 168.635 377.304 168.61 377.265 168.578C377.225 168.545 377.192 168.505 377.168 168.46C377.144 168.414 377.129 168.365 377.125 168.314C377.12 168.263 377.125 168.211 377.14 168.162C377.295 167.656 377.449 167.2 377.599 166.773C377.616 166.725 377.643 166.681 377.677 166.642C377.712 166.604 377.753 166.573 377.799 166.551C377.846 166.529 377.896 166.516 377.947 166.514C377.998 166.511 378.05 166.518 378.098 166.535C378.146 166.553 378.191 166.579 378.229 166.613C378.267 166.648 378.298 166.689 378.32 166.736C378.342 166.782 378.355 166.832 378.358 166.883C378.361 166.935 378.353 166.986 378.336 167.034C378.189 167.45 378.038 167.897 377.886 168.391C377.862 168.471 377.812 168.541 377.745 168.59C377.678 168.64 377.597 168.667 377.513 168.667ZM378.463 165.936C378.4 165.936 378.338 165.921 378.282 165.892C378.226 165.863 378.178 165.821 378.142 165.769C378.106 165.718 378.083 165.658 378.075 165.596C378.067 165.533 378.074 165.47 378.096 165.411C378.263 164.956 378.418 164.517 378.556 164.064C378.571 164.014 378.595 163.968 378.628 163.928C378.66 163.888 378.7 163.855 378.746 163.83C378.791 163.806 378.841 163.79 378.892 163.785C378.943 163.78 378.995 163.785 379.045 163.8C379.094 163.815 379.14 163.84 379.18 163.873C379.219 163.906 379.252 163.946 379.276 163.992C379.3 164.037 379.315 164.087 379.32 164.138C379.325 164.19 379.319 164.242 379.304 164.291C379.161 164.759 379.001 165.211 378.829 165.679C378.802 165.755 378.752 165.82 378.686 165.865C378.621 165.911 378.543 165.936 378.463 165.936ZM379.282 163.167C379.256 163.167 379.231 163.165 379.207 163.16C379.105 163.14 379.016 163.081 378.958 162.995C378.899 162.91 378.878 162.804 378.897 162.702C378.986 162.242 379.051 161.777 379.092 161.309C379.105 161.207 379.156 161.114 379.235 161.049C379.314 160.983 379.415 160.95 379.517 160.956C379.62 160.966 379.715 161.016 379.782 161.096C379.848 161.175 379.88 161.278 379.87 161.381C379.822 161.899 379.755 162.38 379.664 162.851C379.647 162.939 379.599 163.02 379.53 163.077C379.46 163.135 379.372 163.167 379.282 163.167ZM379.555 160.291H379.551C379.447 160.29 379.348 160.248 379.276 160.174C379.203 160.1 379.163 160 379.164 159.896L379.166 159.684C379.166 159.3 379.153 158.898 379.126 158.479C379.119 158.376 379.154 158.274 379.222 158.196C379.29 158.118 379.387 158.07 379.49 158.063C379.541 158.058 379.593 158.063 379.643 158.079C379.692 158.095 379.737 158.121 379.776 158.155C379.815 158.189 379.847 158.231 379.869 158.278C379.891 158.324 379.904 158.375 379.905 158.427C379.934 158.864 379.947 159.283 379.947 159.684L379.945 159.904C379.944 160.007 379.902 160.105 379.829 160.178C379.756 160.25 379.657 160.291 379.555 160.291ZM379.366 157.404C379.272 157.404 379.181 157.37 379.11 157.308C379.04 157.246 378.993 157.161 378.98 157.067C378.917 156.617 378.835 156.15 378.733 155.668C378.711 155.567 378.73 155.461 378.787 155.374C378.843 155.287 378.932 155.226 379.033 155.204C379.134 155.184 379.239 155.204 379.326 155.26C379.412 155.317 379.474 155.404 379.497 155.505C379.603 156.006 379.687 156.49 379.754 156.959C379.768 157.062 379.741 157.166 379.679 157.249C379.616 157.331 379.524 157.386 379.421 157.4C379.403 157.403 379.385 157.404 379.366 157.404ZM378.766 154.572C378.681 154.572 378.598 154.544 378.531 154.493C378.463 154.442 378.414 154.37 378.39 154.288C378.265 153.846 378.122 153.393 377.96 152.93C377.926 152.832 377.931 152.725 377.976 152.632C378.021 152.538 378.101 152.466 378.199 152.432C378.296 152.398 378.404 152.403 378.497 152.448C378.591 152.493 378.662 152.573 378.697 152.671C378.865 153.151 379.012 153.618 379.142 154.075C379.17 154.174 379.158 154.281 379.107 154.372C379.057 154.462 378.972 154.529 378.873 154.557C378.838 154.567 378.802 154.572 378.766 154.572ZM377.811 151.839C377.734 151.839 377.659 151.816 377.594 151.773C377.53 151.73 377.48 151.669 377.451 151.598C377.274 151.172 377.08 150.738 376.87 150.294C376.825 150.201 376.819 150.093 376.854 149.996C376.889 149.898 376.961 149.818 377.054 149.774C377.148 149.729 377.255 149.724 377.352 149.758C377.45 149.793 377.53 149.865 377.574 149.958C377.791 150.414 377.991 150.861 378.172 151.299C378.211 151.395 378.211 151.502 378.172 151.598C378.132 151.694 378.056 151.77 377.961 151.809C377.913 151.829 377.863 151.839 377.811 151.839ZM376.567 149.225C376.496 149.225 376.427 149.206 376.366 149.169C376.306 149.133 376.256 149.081 376.223 149.019C376.003 148.61 375.769 148.195 375.519 147.773C375.466 147.684 375.451 147.577 375.477 147.477C375.502 147.377 375.567 147.291 375.656 147.238C375.745 147.185 375.851 147.17 375.951 147.195C376.051 147.221 376.137 147.286 376.19 147.375C376.446 147.806 376.687 148.231 376.911 148.649C376.943 148.709 376.959 148.776 376.957 148.843C376.955 148.911 376.936 148.977 376.902 149.034C376.867 149.092 376.818 149.14 376.759 149.174C376.701 149.207 376.634 149.225 376.567 149.225ZM380.598 192.629C380.546 192.629 380.495 192.619 380.447 192.599C380.399 192.579 380.356 192.55 380.319 192.512C380.158 192.348 379.987 192.167 379.809 191.971C379.739 191.894 379.703 191.793 379.708 191.689C379.713 191.585 379.759 191.488 379.836 191.418C379.913 191.349 380.014 191.313 380.118 191.318C380.221 191.323 380.319 191.369 380.388 191.446C380.559 191.635 380.722 191.808 380.876 191.965C380.93 192.02 380.967 192.089 380.981 192.165C380.996 192.24 380.988 192.319 380.958 192.39C380.928 192.461 380.878 192.521 380.814 192.564C380.75 192.606 380.675 192.629 380.598 192.629Z" fill="#F65B2B"/>
<path d="M383.41 127.459H344.988V153.803H383.41V127.459Z" fill="#7CA1B1"/>
<path d="M168.167 89.8762L159.549 130.111H120.086" stroke="#DBD8D7" stroke-width="5.893" stroke-linecap="round" stroke-linejoin="round"/>
<path d="M91.2806 219.468L89.9179 231.413L104.559 233.085L103.853 222.791L91.2806 219.468Z" fill="#F9977A"/>
<path d="M127.961 219.024L131.788 230.42L145.758 225.726L140.756 216.702L127.961 219.024Z" fill="#F9977A"/>
<path d="M29.981 140.973L28.9009 155.288C27.8874 168.72 38.5779 179.057 52.0196 178.269C67.5851 177.356 86.4519 176.379 94.8213 172.457L89.9506 221.407L104.416 223.07L112.563 191.046L128.243 224.174L143.854 218.033L120.974 158.155C120.974 158.155 126.395 141.606 106.46 137.991C86.5254 134.376 69.0188 142.072 69.0188 142.072L29.981 140.973Z" fill="#8B9D36"/>
<path d="M69.0188 142.072C73.9748 141.164 78.9879 140.604 84.0218 140.393C89.0673 140.147 94.1247 140.335 99.138 140.957C101.647 141.311 104.127 141.843 106.561 142.548C109.011 143.244 111.353 144.276 113.521 145.614C115.707 146.946 117.556 148.764 118.925 150.927C120.217 153.12 120.923 155.609 120.974 158.155C120.776 155.653 119.961 153.24 118.601 151.132C117.21 149.072 115.364 147.359 113.206 146.126C108.926 143.579 103.958 142.421 99.0315 141.73C94.0622 141.085 89.0496 140.838 84.0411 140.991C81.5332 141.035 79.0254 141.159 76.5217 141.348C74.0158 141.516 71.5151 141.764 69.0188 142.072ZM94.8213 172.457C96.0203 172.018 97.2232 171.598 98.4023 171.121C99.5858 170.697 100.731 170.173 101.825 169.554L102.09 169.391L102.241 169.674C103.174 171.419 104.076 173.179 104.965 174.945C105.861 176.708 106.731 178.484 107.603 180.26C108.468 182.038 109.313 183.827 110.139 185.625C110.98 187.415 111.788 189.222 112.563 191.046C111.578 189.327 110.622 187.594 109.695 185.846C108.756 184.104 107.838 182.353 106.938 180.591C106.045 178.826 105.151 177.062 104.284 175.285C103.409 173.511 102.547 171.731 101.715 169.936L102.131 170.056C101.557 170.365 100.959 170.631 100.345 170.85C99.7415 171.073 99.1372 171.286 98.525 171.472C97.2975 171.834 96.0691 172.183 94.8213 172.457Z" fill="#5E7C24"/>
<path d="M107.633 153.422C108.451 154.46 109.392 155.395 110.435 156.206C111.454 157.015 112.569 157.697 113.754 158.234C114.045 158.376 114.344 158.502 114.65 158.612C114.948 158.739 115.254 158.848 115.567 158.938L116.499 159.227L117.455 159.438C118.09 159.609 118.747 159.647 119.4 159.759C120.056 159.854 120.719 159.849 121.39 159.935C120.729 160.026 120.058 160.107 119.384 160.141C118.706 160.158 118.029 160.124 117.356 160.04C115.997 159.883 114.671 159.513 113.428 158.943C112.181 158.374 111.037 157.605 110.039 156.666C109.033 155.752 108.216 154.65 107.633 153.422ZM94.847 221.97C95.2818 217.601 95.8012 213.244 96.3337 208.888C96.8642 204.532 97.4644 200.186 98.0263 195.835C98.6508 191.492 99.242 187.144 99.8979 182.805L100.897 176.3C101.259 174.135 101.593 171.966 101.978 169.805C101.769 171.991 101.509 174.169 101.276 176.352L100.493 182.887C99.9604 187.242 99.3631 191.589 98.7991 195.94C98.1724 200.283 97.584 204.631 96.9261 208.969C96.2699 213.308 95.6009 217.645 94.847 221.97ZM133.751 222.007C131.087 217.161 128.498 212.275 125.921 207.384L118.275 192.665L110.791 177.864L107.105 170.435C105.902 167.945 104.675 165.468 103.493 162.967C104.833 165.387 106.127 167.829 107.446 170.26L111.325 177.59L118.969 192.309L126.453 207.111C128.919 212.059 131.373 217.014 133.751 222.007Z" fill="#5E7C24"/>
<path d="M67.1267 81.8926C67.1267 81.8926 85.0237 100.098 86.134 106.93L78.5228 113.994" fill="#376F92"/>
<path d="M69.9776 97.395C77.0201 93.842 66.2932 80.2738 66.2932 80.2738L66.178 79.8173C66.1518 79.7298 66.1469 79.6372 66.1638 79.5474C66.1806 79.4576 66.2188 79.3731 66.2749 79.3011C66.3311 79.229 66.4038 79.1715 66.4867 79.1333C66.5697 79.0951 66.6606 79.0773 66.7519 79.0815C68.2891 79.2322 71.4437 79.1888 70.2951 76.0578C70.2353 75.626 70.2713 75.1863 70.4004 74.7699C70.5295 74.3535 70.7486 73.9706 71.0422 73.6485C71.1202 73.5632 71.1797 73.4628 71.217 73.3534C71.2543 73.2441 71.2685 73.1282 71.2589 73.0131C71.2492 72.8979 71.2158 72.786 71.1608 72.6844C71.1058 72.5829 71.0303 72.4938 70.9392 72.4228C70.019 71.806 69.2392 71.0019 68.6508 70.0631C68.6026 69.9765 68.5783 69.8786 68.5805 69.7795C68.5826 69.6804 68.611 69.5836 68.6627 69.4991C68.7145 69.4146 68.7878 69.3454 68.8752 69.2985C68.9625 69.2517 69.0607 69.2289 69.1597 69.2326L72.1253 69.5227C72.1926 69.5262 72.2597 69.5142 72.3217 69.4877C72.3836 69.4611 72.4387 69.4208 72.4826 69.3697C72.5266 69.3186 72.5583 69.2581 72.5752 69.1928C72.5922 69.1276 72.594 69.0593 72.5805 68.9933L72.5141 68.5813C72.4904 68.457 72.5167 68.3284 72.5872 68.2233C72.6577 68.1183 72.7667 68.0453 72.8906 68.0201L73.9026 67.855C74.0723 67.8187 74.2317 67.7448 74.3691 67.6387C74.5065 67.5327 74.6184 67.3971 74.6965 67.2421C74.7746 67.087 74.817 66.9164 74.8206 66.7428C74.8241 66.5692 74.7887 66.397 74.7169 66.2389L73.0015 62.1907C72.7021 61.4783 72.6539 60.6852 72.8649 59.9418C73.482 57.7612 75.0893 58.3778 73.9169 53.4854C73.9169 53.4854 68.8733 47.5042 58.412 54.984C58.412 54.984 58.8703 54.4918 53.9268 59.0973C53.9268 59.0973 51.9946 60.8114 53.0149 66.51C53.0149 66.51 50.09 74.5467 52.8972 78.9213C52.8972 78.9213 62.9351 100.948 69.9776 97.395Z" fill="#F9977A"/>
<path d="M53.6836 68.2958C53.6836 68.2958 55.1426 89.7305 66.6747 80.5935C66.4442 80.3891 66.2932 80.2737 66.2932 80.2737L66.178 79.8173C66.1518 79.7297 66.1469 79.6372 66.1638 79.5474C66.1806 79.4575 66.2188 79.3731 66.2749 79.301C66.3311 79.229 66.4037 79.1714 66.4867 79.1332C66.5697 79.095 66.6606 79.0772 66.7519 79.0814C66.851 79.0911 66.9573 79.0999 67.0683 79.1072L67.1217 78.9052C55.7728 79.8364 53.6836 68.2958 53.6836 68.2958Z" fill="#DD765E"/>
<path d="M66.699 60.2216C66.6149 60.2357 66.5285 60.2232 66.452 60.1857C66.3754 60.1483 66.3125 60.0878 66.272 60.0128C66.2138 59.9117 66.1957 59.7925 66.2212 59.6788C66.2467 59.565 66.314 59.4649 66.4096 59.3984C68.3724 58.1868 70.5851 57.4381 72.88 57.2091C72.9935 57.2093 73.1026 57.2526 73.1855 57.3302C73.2683 57.4078 73.3186 57.5139 73.3263 57.6272C73.334 57.7405 73.2984 57.8525 73.2268 57.9405C73.1552 58.0286 73.0529 58.0862 72.9404 58.1018C70.7816 58.33 68.7 59.034 66.8455 60.163C66.801 60.1921 66.7512 60.2121 66.699 60.2216Z" fill="black"/>
<path d="M68.8697 61.1703C69.0681 60.9514 69.3044 60.7704 69.5674 60.636C69.8279 60.495 70.1074 60.3922 70.3972 60.3308C70.9834 60.1897 71.6014 60.2779 72.1249 60.5773C71.8264 60.5946 71.5548 60.5866 71.2833 60.6232C71.014 60.6623 70.7484 60.689 70.4855 60.7534C69.9545 60.8593 69.4378 61.0192 68.8697 61.1703Z" fill="#350500"/>
<path d="M71.0998 62.4193C71.3871 62.3753 71.5535 61.9047 71.4715 61.3681C71.3894 60.8316 71.09 60.4323 70.8027 60.4763C70.5153 60.5203 70.3489 60.9909 70.431 61.5274C70.513 62.0639 70.8125 62.4632 71.0998 62.4193Z" fill="#050505"/>
<path d="M53.891 62.0162C54.4766 61.7258 55.1117 61.5484 55.763 61.4934C56.0695 61.4869 56.373 61.5543 56.6479 61.6901C56.9449 61.8475 57.2185 62.0458 57.4605 62.2792C57.3354 61.9245 57.1089 61.6145 56.8092 61.3874C56.5057 61.1604 56.1357 61.0405 55.7568 61.0463C55.3923 61.0602 55.0359 61.1584 54.7157 61.3333C54.3952 61.4995 54.114 61.7323 53.891 62.0162Z" fill="#DD765E"/>
<path d="M54.4425 65.4373C54.7727 65.2417 55.0593 64.9806 55.2848 64.6701C55.5231 64.3522 55.7084 63.9979 55.8335 63.6208C55.8945 63.4281 55.9428 63.2317 55.9781 63.0328C56.0054 62.8318 56.0158 62.629 56.0092 62.4263C56.0018 62.027 55.9138 61.6333 55.7505 61.2688C55.7505 61.6493 55.7284 62.0294 55.6843 62.4073C55.6412 62.7692 55.5595 63.1254 55.4406 63.4699C55.1989 64.168 54.8631 64.8299 54.4425 65.4373Z" fill="#DD765E"/>
<path d="M50.3478 72.0763C47.6857 71.5552 46.6875 66.9988 45.717 62.5692C44.8489 59.3063 44.6986 55.8938 45.2766 52.5672C45.7551 50.0726 46.2185 47.6568 48.1749 45.4662C50.8932 42.4227 54.6861 41.8378 57.7113 41.3713C61.0975 40.8491 63.8043 40.4317 66.4125 41.8493C69.1772 43.3518 69.8841 43.0567 71.6587 45.3636C72.2704 46.1589 74.6156 46.3315 75.9314 47.1734C76.1937 47.3413 77.7154 48.3149 77.609 49.2125C77.5632 49.5995 76.9692 52.8112 71.4895 53.9096C68.3263 54.5436 67.2956 54.1592 65.8079 54.963C62.531 56.7335 60.5849 55.5568 59.85 55.7398C58.9655 55.9601 59.9151 57.194 60.5115 59.2904C60.9502 60.8733 61.2242 62.4973 61.3293 64.1365C61.537 66.7072 61.1899 67.3143 61.6993 69.1356C61.8999 70.2251 62.3985 71.2376 63.1395 72.0607C64.2195 73.1323 65.5873 73.3714 67.4595 73.6737C70.7103 74.1985 70.9044 73.1744 71.3185 73.946C71.7328 74.7179 71.2497 77.4525 70.4855 78.148C68.3743 80.069 65.7698 79.0424 63.9809 78.8969C61.565 78.7003 56.2822 76.4055 56.1538 73.2257C56.0849 71.5171 57.0809 67.0956 57.7108 64.4967C57.9168 63.7198 57.9013 62.9007 57.666 62.1321C57.4308 61.3635 56.9852 60.6762 56.3796 60.1479C56.1009 59.8927 55.7467 59.7351 55.3706 59.6992C54.9293 59.7205 54.5023 59.8622 54.1359 60.109C53.7694 60.3558 53.4774 60.6982 53.2916 61.0992C53.191 61.3176 52.88 62.0941 53.8367 64.33C54.8444 66.6852 52.6652 72.5298 50.3478 72.0763Z" fill="black"/>
<path d="M73.0851 69.785C73.0146 69.7977 72.9428 69.8008 72.8715 69.7939L69.3786 69.4631C68.9671 69.4217 68.5679 69.2993 68.2037 69.1031C67.8396 68.907 67.5178 68.6408 67.2568 68.3198C67.1087 68.1388 67.0334 67.9091 67.0456 67.6755C67.0577 67.4419 67.1564 67.2212 67.3225 67.0565C67.4022 66.979 67.4972 66.919 67.6015 66.8804C67.7058 66.8418 67.817 66.8255 67.928 66.8325C68.039 66.8395 68.1472 66.8697 68.2458 66.9212C68.3444 66.9726 68.4311 67.0441 68.5004 67.1311C68.6259 67.2853 68.7805 67.4133 68.9555 67.5075C69.1305 67.6018 69.3223 67.6606 69.5201 67.6805L73.0129 68.0114C73.2412 68.0417 73.4486 68.1602 73.5907 68.3414C73.7328 68.5227 73.7983 68.7524 73.7734 68.9814C73.763 69.1724 73.6899 69.3547 73.5655 69.5C73.441 69.6453 73.2722 69.7454 73.0851 69.785Z" fill="black"/>
<path d="M90.8817 241.151L119.868 239.914L121.551 236.036C121.689 235.907 121.791 235.744 121.848 235.564C121.905 235.384 121.915 235.192 121.876 235.007C121.837 234.823 121.751 234.651 121.627 234.509C121.502 234.367 121.343 234.259 121.165 234.197L103.289 227.923C103.289 227.923 96.6782 232.788 90.4042 229.958C90.4042 229.958 86.0368 238.586 90.8817 241.151ZM136.049 237.117L161.774 225.34L161.66 219.477C161.73 219.302 161.754 219.112 161.729 218.924C161.705 218.737 161.632 218.559 161.518 218.408C161.405 218.257 161.255 218.138 161.082 218.062C160.909 217.987 160.719 217.957 160.531 217.976L141.683 219.874C141.683 219.874 139.318 231.164 130.875 227.182C130.875 227.182 130.574 236.848 136.049 237.117Z" fill="#D6694B"/>
<path d="M103.932 101.722C103.932 101.722 107.34 100.493 111.117 93.4466C114.894 86.4007 117.116 80.4529 113.39 84.6808L110.605 87.9496C110.605 87.9496 111.004 81.5338 111.577 77.7325C111.744 76.7267 111.585 75.6936 111.122 74.7853C110.658 73.877 109.916 73.1415 109.003 72.6872C107.275 71.8732 105.827 72.3747 104.322 76.6144C102.071 82.9555 101.063 86.3694 100.965 88.0978C100.931 88.6966 101.088 95.2028 101.088 95.2028L103.932 101.722Z" fill="#F9977A"/>
<path d="M110.053 91.8033C110 91.1503 110.027 90.4932 110.134 89.8468C110.224 89.1997 110.382 88.5638 110.605 87.9496C110.726 88.6001 110.731 89.2671 110.618 89.9192C110.53 90.573 110.339 91.2088 110.053 91.8033ZM108.604 83.577C108.645 81.9726 108.843 80.3761 109.197 78.8106C109.503 77.2283 110.057 75.7044 110.839 74.2953C110.592 75.06 110.404 75.83 110.208 76.5979C110.019 77.3674 109.844 78.1412 109.675 78.9165C109.325 80.4657 109.01 82.0228 108.604 83.577ZM106.396 82.7184C106.342 80.9582 106.5 79.1979 106.865 77.4752C107.041 76.6081 107.292 75.758 107.614 74.9343C107.911 74.0942 108.384 73.3278 109.003 72.6873C108.548 73.4254 108.202 74.2252 107.975 75.0622C107.726 75.8877 107.514 76.7265 107.344 77.5766C106.981 79.2725 106.713 80.9905 106.396 82.7184ZM104.533 81.4268C104.457 79.9556 104.572 78.4809 104.874 77.0391C105.141 75.5854 105.654 74.1878 106.391 72.9066C105.98 74.3191 105.639 75.7145 105.354 77.1369C105.062 78.5563 104.82 79.9841 104.533 81.4268Z" fill="#DD765E"/>
<path d="M52.8973 78.9213C52.8973 78.9213 39.4681 83.3015 35.5001 96.6791C30.9211 111.847 28.9181 127.677 29.5748 143.508C29.5748 143.508 57.5405 154.424 69.0188 142.072C69.0188 142.072 84.943 98.5795 67.8647 81.8385C67.8647 81.8385 80.2278 110.769 52.8973 78.9213Z" fill="#376F92"/>
<path d="M49.3195 103.734C51.0004 106.753 52.9142 109.636 55.0435 112.357C56.0966 113.714 57.2524 114.988 58.5008 116.167C59.7244 117.344 61.1075 118.343 62.6093 119.134L62.2261 119.193L69.8909 111.885L77.6199 104.644L77.5983 105.121C75.2804 102.518 72.9579 99.9072 70.5347 97.3975C69.3188 96.1473 68.0968 94.9017 66.8246 93.71C66.1863 93.117 65.5365 92.5353 64.8529 91.9965C64.5125 91.726 64.1585 91.473 63.7925 91.2384C63.4408 90.9796 63.0282 90.8163 62.5947 90.7644C63.0352 90.7909 63.4613 90.9307 63.8319 91.1704C64.2163 91.3826 64.587 91.6189 64.9418 91.8777C65.6546 92.3894 66.3335 92.9447 67.0013 93.5116C68.3375 94.6456 69.6132 95.8469 70.8596 97.0755C73.35 99.5362 75.7823 102.051 78.1134 104.666L78.3334 104.913L78.0917 105.144L70.4259 112.451L62.6957 119.691L62.5207 119.855L62.3122 119.75C60.7494 118.925 59.3248 117.861 58.0898 116.596C56.8549 115.364 55.7165 114.039 54.6847 112.633C53.6421 111.244 52.6775 109.798 51.7954 108.302C50.9066 106.814 50.0604 105.299 49.3195 103.734ZM54.7335 141.561C55.9607 140.849 57.1276 140.065 58.2692 139.259C59.4018 138.447 60.4871 137.571 61.5198 136.636C62.5517 135.706 63.5072 134.695 64.377 133.611C65.2465 132.511 66.0226 131.34 66.6975 130.111C66.2901 131.484 65.6731 132.787 64.8683 133.972C64.0597 135.161 63.112 136.249 62.0454 137.213C59.9321 139.149 57.4432 140.629 54.7335 141.561ZM53.9166 146.297C55.0025 145.792 56.0615 145.23 57.0893 144.615C58.1102 144.013 59.0949 143.352 60.0381 142.634C60.9888 141.929 61.8931 141.163 62.7456 140.341C63.6169 139.532 64.4074 138.642 65.2244 137.741C64.6744 138.83 63.9898 139.844 63.1868 140.762C62.3877 141.69 61.4889 142.527 60.5067 143.259C59.5309 143.997 58.4809 144.631 57.3738 145.152C56.2777 145.686 55.115 146.071 53.9166 146.297Z" fill="#10394F"/>
<path d="M76.3624 106.305L81.1449 111.56L86.134 106.93L92.3595 111.46L101.08 91.8044L110.259 94.7191L102.495 122.198L120.748 124.632L129.944 121.422C130.743 121.106 131.601 120.967 132.458 121.015C133.316 121.063 134.153 121.297 134.912 121.7L142.553 124.662C142.994 124.834 143.365 125.149 143.605 125.558C143.844 125.967 143.939 126.445 143.872 126.915C143.806 127.384 143.582 127.817 143.239 128.143C142.895 128.469 142.451 128.67 141.979 128.711C141.848 128.723 141.712 128.732 141.572 128.739C140.524 128.754 139.486 128.53 138.537 128.084C136.552 127.223 132.647 127.313 130.162 128.147L127.113 129.792C126.653 130.045 126.147 130.204 125.625 130.26C123.835 130.439 122.08 130.924 120.703 130.897L83.9334 132.709C82.9232 132.783 81.9086 132.645 80.9554 132.302C80.0021 131.959 79.1313 131.42 78.3993 130.719L64.5515 117.466L76.3624 106.305Z" fill="#F9977A"/>
<path d="M81.1449 111.56C82.6275 112.95 84.0548 114.391 85.4686 115.843C86.8933 117.286 88.2726 118.771 89.6504 120.256L89.4145 120.134C91.6031 120.411 93.7893 120.708 95.9694 121.051L99.2375 121.582C100.323 121.787 101.412 121.968 102.495 122.198C101.389 122.149 100.29 122.05 99.1874 121.974L95.8908 121.665C93.6945 121.449 91.5041 121.186 89.3163 120.903L89.1745 120.884L89.08 120.78C87.7178 119.28 86.357 117.779 85.0415 116.236C83.7153 114.702 82.4024 113.157 81.1449 111.56Z" fill="#DD765E"/>
<path d="M37.0029 174.438L21.9783 239.232L28.2881 240.696L43.3127 175.902L37.0029 174.438Z" fill="#FFBA55"/>
<path d="M112.245 174.533L105.895 175.803L118.84 240.599L125.19 239.329L112.245 174.533Z" fill="#FFBA55"/>
<path d="M118.91 177.329L56.159 179.785C49.4793 180.046 42.8964 178.123 37.4074 174.306C31.9184 170.488 27.8223 164.985 25.7397 158.63L0.780884 82.4705C0.780884 82.4705 19.4329 78.842 30.8314 117.719C35.3433 133.107 43.3459 142.81 51.3688 148.918C60.0923 155.434 70.6482 159.031 81.5337 159.197C94.089 159.495 122.983 161.848 118.91 177.329Z" fill="#F73C4F"/>
<path d="M230.659 137.503H224.124V241.219H230.659V137.503Z" fill="#935B50"/>
<path d="M242.045 132.488H79.1348C78.5125 132.488 78.008 132.993 78.008 133.615V136.376C78.008 136.998 78.5125 137.503 79.1348 137.503H242.045C242.667 137.503 243.172 136.998 243.172 136.376V133.615C243.172 132.993 242.667 132.488 242.045 132.488Z" fill="#935B50"/>
<path d="M97.5768 137.503H91.0416V241.219H97.5768V137.503Z" fill="#935B50"/>
<path d="M85.8281 137.503H235.798V151.651C235.798 152.249 235.561 152.822 235.138 153.245C234.716 153.668 234.143 153.905 233.545 153.905H88.0816C87.4839 153.905 86.9107 153.668 86.4881 153.245C86.0656 152.822 85.8281 152.249 85.8281 151.651V137.503Z" fill="#C38F86"/>
<path d="M235.551 132.074C235.551 132.074 249.494 45.0575 186.751 52.6964V66.1474" stroke="#FEC165" stroke-width="0.794" stroke-linecap="round" stroke-linejoin="round"/>
<path d="M171.416 80.1798H203.184C202.724 76.288 200.853 72.7002 197.926 70.0967C194.998 67.4932 191.217 66.0552 187.3 66.0552C183.383 66.0552 179.602 67.4932 176.674 70.0967C173.747 72.7002 171.876 76.288 171.416 80.1798Z" fill="#FEC165"/>
<path d="M238.04 132.462H218.399V131.754C218.399 131.589 218.464 131.431 218.58 131.315C218.697 131.199 218.854 131.133 219.019 131.133H237.42C237.585 131.133 237.742 131.199 237.859 131.315C237.975 131.431 238.04 131.589 238.04 131.754V132.462Z" fill="#FEC165"/>
<path d="M209.941 132.472H198.608L194.79 112.394H213.759L209.941 132.472Z" fill="#E19974"/>
<path d="M213.324 114.686L213.759 112.394H194.79L195.225 114.686H213.324Z" fill="#D6694B"/>
<path d="M201.908 124.648L199.514 122.252L197.12 124.648L199.514 127.043L201.908 124.648Z" fill="#D6694B"/>
<path d="M206.696 124.648L204.302 122.252L201.908 124.648L204.302 127.043L206.696 124.648Z" fill="#D6694B"/>
<path d="M211.429 124.648L209.035 122.252L206.641 124.648L209.035 127.043L211.429 124.648Z" fill="#D6694B"/>
<path d="M208.689 95.4958C208.689 95.4958 209.684 109.562 203.852 112.543C203.852 112.543 201.832 107.21 208.689 95.4958Z" fill="#558031"/>
<path d="M189.868 101.538C189.868 101.538 199.41 103.185 203.852 112.543C203.852 112.543 193.358 108.977 189.868 101.538Z" fill="#849F4C"/>
<path d="M193.251 119.962C193.251 119.962 198.104 112.699 203.852 112.543C203.852 112.543 202.986 118.391 193.251 119.962Z" fill="#A6B862"/>
<path d="M199.237 97.5007C199.237 97.5007 205.971 103.651 203.852 112.543C203.852 112.543 200.122 108.587 199.237 97.5007Z" fill="#849F4C"/>
<path d="M203.852 112.543C203.852 112.543 206.217 103.879 218.176 101.657C218.176 101.657 215.485 109.546 203.852 112.543Z" fill="#A6B862"/>
<path d="M221.344 110.278C221.344 110.278 212.22 106.515 203.852 112.543C203.852 112.543 214.976 113.879 221.344 110.278Z" fill="#849F4C"/>
<path d="M221.261 119.04C221.261 119.04 216.856 111.979 203.852 112.543L221.261 119.04ZM184.953 111.4C184.953 111.4 196.936 106.955 204.008 112.33C204.008 112.33 197.293 116.031 184.953 111.4Z" fill="#558031"/>
<path d="M194.78 98.528C194.78 98.528 205.472 106.094 203.938 112.549C203.938 112.549 196.52 106.598 194.78 98.528Z" fill="#558031"/>
<path d="M213.536 120.074C213.536 120.074 204.722 118.568 203.852 112.543C203.852 112.543 210.292 112.862 213.536 120.074Z" fill="#849F4C"/>
<path d="M183.816 129.639V129.904C183.816 130.581 183.547 131.231 183.068 131.71C182.59 132.189 181.94 132.458 181.263 132.458H173.594C172.917 132.458 172.268 132.189 171.789 131.71C171.311 131.231 171.042 130.581 171.041 129.904V119.565C171.042 118.888 171.311 118.238 171.789 117.759C172.268 117.28 172.917 117.011 173.594 117.011H181.263C181.94 117.011 182.59 117.28 183.068 117.759C183.547 118.238 183.816 118.888 183.816 119.565L183.816 129.639Z" fill="#F65B2B"/>
<path d="M188.044 119.647H183.816V121.179H187.278V128.106H183.816V129.639H188.044C188.145 129.639 188.244 129.619 188.337 129.58C188.43 129.542 188.515 129.486 188.586 129.414C188.657 129.343 188.714 129.259 188.752 129.166C188.79 129.073 188.81 128.973 188.81 128.872V120.413C188.81 120.312 188.79 120.213 188.752 120.119C188.714 120.026 188.657 119.942 188.586 119.871C188.515 119.8 188.43 119.743 188.337 119.705C188.244 119.666 188.145 119.646 188.044 119.647Z" fill="#E5CAF3"/>
<path d="M180.091 122.299H177.94C177.658 122.299 177.429 122.528 177.429 122.81V124.962C177.429 125.245 177.658 125.473 177.94 125.473H180.091C180.373 125.473 180.602 125.245 180.602 124.962V122.81C180.602 122.528 180.373 122.299 180.091 122.299Z" fill="#FFBA55"/>
<path d="M179.375 117.011H178.657V122.3H179.375V117.011Z" fill="#E5CAF3"/>
<path d="M0.780884 241.219H391.219" stroke="#935B50" stroke-width="2" stroke-linecap="round" stroke-linejoin="round"/>
</svg>
