<svg width="549" height="432" viewBox="0 0 549 432" fill="none" xmlns="http://www.w3.org/2000/svg">
<path d="M276.852 149.766C276.899 148.716 277.103 147.678 277.457 146.688C277.795 145.691 278.188 144.714 278.635 143.76C279.538 141.857 280.559 140.012 281.694 138.237C281.727 138.186 281.739 138.124 281.728 138.065C281.718 138.005 281.685 137.952 281.637 137.915L281.632 137.912C279.975 136.565 278.603 134.901 277.595 133.017C276.534 131.15 275.614 129.205 274.845 127.199C273.282 123.18 272.142 119.016 270.888 114.852C270.722 114.331 270.57 113.811 270.381 113.29C270.216 112.735 269.981 112.203 269.682 111.707C269.045 110.75 268.24 109.917 267.306 109.248C265.499 107.975 263.547 106.92 261.492 106.106C259.473 105.261 257.405 104.56 255.346 103.889L253.822 103.378C253.397 103.277 253.015 103.042 252.734 102.706C252.217 101.899 251.948 100.958 251.959 99.9994L251.959 99.977C251.954 99.8493 251.909 99.7265 251.828 99.6273C251.747 99.5282 251.637 99.4582 251.513 99.428L248.905 98.7971L247.602 98.4818L247.276 98.4028C247.163 98.3749 247.322 98.4046 247.343 98.437C247.361 98.4458 247.377 98.4599 247.388 98.4774C247.391 98.4786 247.394 98.4805 247.396 98.4829C247.345 98.3603 247.314 98.2303 247.303 98.0978C247.242 97.2568 247.263 96.4117 247.367 95.5748C247.453 94.7091 247.579 93.8316 247.717 92.975L247.115 93.491C248.822 93.4926 250.517 93.2048 252.129 92.6399C252.963 92.3306 253.734 91.8726 254.405 91.288C255.084 90.6884 255.624 89.948 255.989 89.1182C257.397 85.7284 256.205 82.2085 256.01 79.1931C255.949 77.5124 255.675 75.8463 255.194 74.235C254.746 72.6849 254.402 71.1068 254.163 69.511C253.989 67.8534 253.621 66.2221 253.067 64.6506C252.532 63.0822 251.884 61.5547 251.128 60.0801L250.769 60.6728C251.408 60.6623 252.046 60.6125 252.679 60.5236C253.33 60.4338 253.965 60.251 254.565 59.9809C255.215 59.7001 255.749 59.2038 256.077 58.5754C256.376 57.9154 256.409 57.1648 256.168 56.4812C256.145 56.4135 256.1 56.3554 256.04 56.316C255.981 56.2766 255.91 56.258 255.839 56.2633L255.828 56.2644C255.19 56.3091 254.554 56.1503 254.012 55.811C253.446 55.4432 252.93 55.0035 252.477 54.5028C251.55 53.4285 250.536 52.4325 249.445 51.5249C248.275 50.6829 246.948 50.083 245.543 49.7604C244.17 49.4012 242.766 49.1703 241.351 49.0706C238.509 48.7823 235.639 49.1921 232.991 50.2645C231.702 50.8783 230.508 51.6762 229.448 52.6332C228.909 53.1157 228.44 53.6717 228.055 54.2849C227.859 54.6005 227.709 54.9422 227.608 55.2998C227.489 55.6801 227.474 56.0857 227.567 56.4735L227.652 56.2115C226.069 57.3213 224.617 58.6092 223.327 60.05C221.996 61.4731 220.943 63.1332 220.223 64.9446C220.043 65.4011 219.904 65.8728 219.808 66.3541C219.762 66.5956 219.69 66.8326 219.666 67.0777L219.608 67.8155C219.578 68.3089 219.594 68.8039 219.657 69.2942C219.703 69.7859 219.849 70.2562 219.941 70.7386C220.496 72.6025 221.305 74.3806 222.346 76.0227C224.4 79.2851 226.781 82.3293 229.451 85.1081L229.949 85.6303C230.116 85.7856 230.27 85.9541 230.41 86.1341C230.65 86.4827 230.825 86.8722 230.925 87.2835C231.159 88.1852 231.315 89.1052 231.394 90.0335C231.564 91.9207 231.625 93.8162 231.575 95.7104L232.048 95.2474L229.2 95.229C229.074 95.2281 228.953 95.2762 228.861 95.3631C228.769 95.4501 228.715 95.5691 228.709 95.6953L228.708 95.7222C228.612 97.4136 228.243 99.0782 227.616 100.652C227.313 101.437 226.935 102.192 226.487 102.905C226.01 103.598 225.476 104.25 224.889 104.853C222.492 107.334 219.787 109.574 217.161 111.891C215.844 113.05 214.528 114.216 213.243 115.428C212.6 116.034 211.969 116.659 211.351 117.303C210.729 117.97 210.169 118.616 209.576 119.239C208.986 119.868 208.362 120.472 207.743 121.117C207.076 121.77 206.496 122.507 206.017 123.31C205.55 124.156 205.261 125.088 205.165 126.049C205.061 126.961 205.038 127.88 205.097 128.795C205.15 129.7 205.223 130.573 205.359 131.474L205.645 132.848C205.772 133.292 205.942 133.716 206.089 134.151C206.233 134.583 206.409 135.003 206.616 135.408C206.812 135.814 206.992 136.232 207.203 136.629C207.655 137.4 208.057 138.21 208.559 138.944C210.495 141.91 212.647 144.729 214.997 147.378C217.3 150.044 219.717 152.599 222.083 155.17C222.668 155.814 223.254 156.458 223.806 157.112C224.092 157.437 224.31 157.767 224.568 158.093C224.787 158.424 224.981 158.771 225.148 159.131C225.481 159.77 225.589 160.503 225.453 161.211C225.362 161.533 225.206 161.834 224.994 162.094C224.776 162.352 224.513 162.569 224.219 162.734L224.189 162.75C224.107 162.793 224.035 162.852 223.977 162.923C223.918 162.995 223.874 163.077 223.847 163.165C223.82 163.253 223.811 163.346 223.82 163.438C223.828 163.53 223.855 163.619 223.899 163.701L223.914 163.729L226.567 168.212C226.632 168.322 226.726 168.412 226.839 168.473C226.952 168.533 227.079 168.561 227.206 168.554L227.231 168.553C228.425 168.445 229.623 168.707 230.663 169.302C231.114 169.597 231.464 170.022 231.667 170.521L231.801 170.914L231.912 171.388C231.982 171.707 232.048 172.03 232.107 172.355C232.571 174.964 232.835 177.658 233.041 180.325L233.043 180.345C233.054 180.49 233.116 180.626 233.217 180.73C233.319 180.834 233.453 180.899 233.598 180.914C237.343 181.292 241.097 181.605 244.861 181.651C248.622 181.759 252.386 181.625 256.137 181.375C259.889 181.118 263.623 180.64 267.33 180.027C271.046 179.426 274.72 178.589 278.329 177.52L278.338 177.518C278.379 177.505 278.418 177.483 278.45 177.453C278.481 177.422 278.506 177.386 278.521 177.344C279.063 175.833 279.466 174.276 279.725 172.691C279.997 171.12 280.163 169.533 280.223 167.94C280.298 166.343 280.175 164.744 279.857 163.177C279.564 161.614 279.156 160.079 278.723 158.554C278.718 158.537 278.707 158.522 278.691 158.513C278.675 158.504 278.656 158.501 278.638 158.506C278.621 158.511 278.606 158.523 278.597 158.538C278.588 158.554 278.585 158.573 278.59 158.591C279.36 161.647 280.106 164.778 279.843 167.92C279.745 169.492 279.541 171.055 279.232 172.599C278.941 174.136 278.511 175.644 277.948 177.103L278.14 176.928C274.546 177.921 270.892 178.685 267.201 179.216C263.51 179.76 259.797 180.169 256.071 180.358C252.348 180.551 248.616 180.655 244.891 180.505C241.163 180.419 237.45 180.068 233.748 179.655L234.305 180.244C234.123 177.525 233.891 174.831 233.44 172.116C233.382 171.777 233.316 171.437 233.245 171.096L233.13 170.583C233.08 170.401 233.009 170.203 232.945 170.014C232.645 169.252 232.118 168.601 231.435 168.15C230.791 167.733 230.07 167.447 229.316 167.308C228.588 167.162 227.845 167.113 227.105 167.161L227.768 167.501L225.126 163.012L224.822 164.007C225.301 163.758 225.727 163.416 226.074 163.002C226.42 162.583 226.674 162.096 226.819 161.572C227.042 160.55 226.909 159.483 226.442 158.547C226.242 158.111 226.008 157.692 225.744 157.292C225.463 156.928 225.191 156.528 224.899 156.195C224.321 155.509 223.729 154.856 223.138 154.202C220.765 151.611 218.371 149.067 216.098 146.424C213.809 143.818 211.696 141.06 209.775 138.171C209.282 137.46 208.901 136.696 208.461 135.96C208.259 135.584 208.091 135.196 207.903 134.815C207.708 134.441 207.542 134.053 207.407 133.653C207.272 133.259 207.111 132.868 206.994 132.472L206.738 131.274C206.606 130.444 206.527 129.567 206.473 128.722C206.413 127.888 206.427 127.05 206.516 126.219C206.585 125.429 206.815 124.661 207.194 123.964C207.957 122.605 209.339 121.453 210.531 120.143C211.143 119.492 211.727 118.812 212.297 118.195C212.887 117.57 213.497 116.958 214.126 116.359C215.383 115.16 216.683 113.994 217.989 112.831C220.593 110.49 223.261 108.213 225.707 105.622C226.334 104.96 226.902 104.246 227.406 103.487C227.882 102.71 228.281 101.888 228.598 101.033C229.251 99.3345 229.62 97.5404 229.693 95.7222L229.2 96.215L232.048 96.1966H232.06C232.182 96.1956 232.299 96.1465 232.386 96.0598C232.472 95.9731 232.521 95.8558 232.522 95.7332C232.548 93.7991 232.461 91.865 232.261 89.941C232.166 88.9622 231.987 87.9935 231.726 87.0454C231.591 86.5275 231.357 86.0404 231.038 85.6109C230.881 85.4162 230.71 85.2335 230.526 85.0641L230.027 84.5551C227.356 81.8478 224.966 78.8764 222.893 75.6865C221.859 74.1063 221.048 72.3909 220.483 70.5888C220.391 70.1338 220.243 69.6833 220.195 69.2236C220.129 68.7656 220.108 68.3023 220.129 67.8402L220.177 67.1464C220.197 66.9156 220.266 66.6904 220.308 66.4622C220.397 66.0042 220.526 65.5551 220.696 65.1206C221.386 63.3631 222.399 61.7506 223.682 60.3664C224.939 58.9486 226.354 57.6792 227.9 56.5831C227.937 56.5567 227.965 56.5198 227.982 56.4772C227.998 56.4345 228.001 56.388 227.991 56.3435L227.986 56.3207C227.908 55.6823 228.066 55.0377 228.429 54.5073C228.79 53.9282 229.23 53.4025 229.736 52.9456C230.756 52.0116 231.913 51.2401 233.167 50.6582C235.753 49.6349 238.549 49.2574 241.314 49.5583C242.697 49.665 244.068 49.9001 245.408 50.2605C246.744 50.5744 248.004 51.1522 249.115 51.96C250.173 52.8607 251.15 53.852 252.036 54.9224C252.518 55.472 253.069 55.9561 253.676 56.3625C254.329 56.7828 255.097 56.9867 255.872 56.9453L255.533 56.7289C255.692 57.2341 255.657 57.7805 255.436 58.2615C255.171 58.7365 254.75 59.1053 254.245 59.3059C253.709 59.534 253.143 59.6846 252.565 59.7531C251.969 59.8258 251.369 59.8621 250.769 59.8618C250.66 59.8645 250.557 59.9104 250.481 59.9894C250.406 60.0685 250.366 60.1742 250.368 60.2833C250.37 60.3428 250.384 60.4013 250.41 60.4549C251.119 61.902 251.724 63.398 252.22 64.9317C252.73 66.4538 253.058 68.0312 253.196 69.6307C253.526 72.9717 254.912 76.069 254.873 79.1957C254.91 80.0402 255.002 80.8814 255.149 81.7139C255.269 82.5201 255.38 83.3149 255.442 84.1067C255.632 85.6379 255.447 87.1926 254.902 88.6357C254.588 89.3065 254.142 89.9067 253.59 90.3997C253.039 90.8928 252.393 91.2685 251.691 91.5041C250.212 92.0079 248.658 92.2593 247.095 92.2478C246.951 92.2504 246.811 92.3033 246.702 92.3976C246.592 92.4918 246.518 92.6214 246.493 92.7641C246.341 93.6632 246.23 94.551 246.142 95.4565C246.033 96.3875 246.019 97.3274 246.101 98.2613C246.13 98.5734 246.227 98.8753 246.385 99.1457C246.418 99.1942 246.452 99.2409 246.49 99.2868C246.543 99.3409 246.601 99.3907 246.662 99.4357C246.778 99.5065 246.905 99.5578 247.038 99.5874L247.36 99.6631L248.649 99.9666L251.228 100.573L250.782 100.002C250.797 100.595 250.882 101.183 251.035 101.756C251.183 102.362 251.454 102.931 251.83 103.428C252.04 103.697 252.3 103.924 252.595 104.096C252.863 104.247 253.146 104.369 253.44 104.46L254.997 104.971C257.056 105.627 259.094 106.304 261.075 107.117C263.053 107.885 264.934 108.884 266.679 110.092C267.512 110.682 268.236 111.413 268.817 112.253C269.084 112.682 269.294 113.143 269.443 113.626C269.631 114.121 269.792 114.638 269.963 115.146C271.274 119.256 272.492 123.446 274.138 127.483C274.953 129.511 275.92 131.474 277.031 133.356C278.127 135.276 279.595 136.958 281.349 138.302L281.287 137.977C280.191 139.799 279.211 141.688 278.353 143.633C277.927 144.608 277.557 145.605 277.243 146.621C276.911 147.637 276.733 148.697 276.714 149.766C276.714 149.784 276.721 149.802 276.734 149.815C276.747 149.828 276.765 149.835 276.783 149.835C276.801 149.834 276.819 149.827 276.831 149.814C276.844 149.801 276.852 149.784 276.852 149.766Z" fill="#114C5F"/>
<path d="M247.613 69.0322C247.041 68.6576 246.404 68.3966 245.734 68.2635C245.061 68.1188 244.37 68.0776 243.684 68.1411C242.993 68.2038 242.318 68.3914 241.693 68.6948C241.07 68.9868 240.52 69.4156 240.085 69.9494C240.686 69.7034 241.301 69.4915 241.926 69.3147C242.529 69.1499 243.145 69.0398 243.767 68.9859C245.047 68.8833 246.335 68.8988 247.613 69.0322ZM256.361 69.9494C256.023 69.703 255.643 69.5207 255.239 69.4114C254.845 69.2963 254.439 69.23 254.029 69.2141C253.613 69.2014 253.197 69.2478 252.795 69.3519C252.379 69.4534 251.996 69.659 251.682 69.9494L252.871 70.01C253.25 70.0346 253.624 70.0456 254.002 70.0622C254.79 70.1049 255.581 70.0671 256.361 69.9494ZM243.544 74.2791C243.214 74.2676 242.902 74.1284 242.672 73.8909C242.443 73.6533 242.315 73.3359 242.315 73.0056C242.315 72.6753 242.443 72.3579 242.672 72.1203C242.902 71.8827 243.214 71.7436 243.544 71.7321C243.873 71.7436 244.185 71.8827 244.415 72.1203C244.644 72.3579 244.772 72.6753 244.772 73.0056C244.772 73.3359 244.644 73.6533 244.415 73.8909C244.185 74.1284 243.873 74.2676 243.544 74.2791ZM229.505 81.1049C229.176 81.0935 228.863 80.9543 228.634 80.7167C228.405 80.4791 228.277 80.1617 228.277 79.8314C228.277 79.5011 228.405 79.1837 228.634 78.9462C228.863 78.7086 229.176 78.5694 229.505 78.558C229.835 78.5694 230.147 78.7086 230.376 78.9462C230.605 79.1837 230.733 79.5011 230.733 79.8314C230.733 80.1617 230.605 80.4791 230.376 80.7167C230.147 80.9543 229.835 81.0935 229.505 81.1049ZM253.513 74.9922C253.183 74.9808 252.871 74.8416 252.642 74.6041C252.412 74.3665 252.284 74.0491 252.284 73.7187C252.284 73.3884 252.412 73.071 252.642 72.8334C252.871 72.5958 253.183 72.4567 253.513 72.4453C253.842 72.4567 254.155 72.5958 254.384 72.8334C254.613 73.071 254.741 73.3884 254.741 73.7187C254.741 74.0491 254.613 74.3665 254.384 74.6041C254.155 74.8416 253.842 74.9808 253.513 74.9922ZM253.513 84.0083C253.246 84.2744 252.966 84.5266 252.673 84.7638C252.408 84.9776 252.127 85.1701 251.831 85.3396C251.533 85.5113 251.225 85.6644 250.908 85.7979C250.58 85.9437 250.231 86.0624 249.851 86.2498C250.44 86.4884 251.094 86.5138 251.699 86.3217C252.305 86.1297 252.825 85.7321 253.17 85.1974C253.409 84.8485 253.53 84.4314 253.513 84.0083ZM230.706 86.5769C231.666 87.3067 232.649 87.9574 233.661 88.5806C234.674 89.1972 235.71 89.7764 236.778 90.2886C238.887 91.3726 241.183 92.042 243.543 92.2608C241.223 91.9054 238.993 91.108 236.973 89.9116C235.952 89.3442 234.967 88.7129 234.009 88.0475C233.056 87.3798 232.116 86.6702 231.246 85.9228L231.238 85.9158C231.196 85.879 231.147 85.8509 231.094 85.8332C231.041 85.8154 230.985 85.8084 230.929 85.8124C230.873 85.8165 230.818 85.8316 230.768 85.8568C230.718 85.8821 230.674 85.917 230.637 85.9595C230.601 86.0021 230.573 86.0514 230.556 86.1048C230.539 86.1581 230.532 86.2143 230.537 86.2702C230.541 86.326 230.557 86.3805 230.582 86.4303C230.608 86.4802 230.643 86.5245 230.686 86.5607L230.706 86.5769ZM250.359 73.0055C250.116 73.8494 250.147 74.7486 250.446 75.5741C250.593 75.998 250.8 76.3986 251.061 76.7639C251.323 77.065 251.567 77.3819 251.791 77.7127C252.168 78.3245 252.256 79.0308 251.704 79.4074C251.397 79.6124 251.043 79.7366 250.675 79.7682C250.267 79.8206 249.855 79.8417 249.444 79.8314C249.835 80.0148 250.252 80.1341 250.681 80.1849C251.147 80.2539 251.622 80.1806 252.046 79.9748C252.287 79.8543 252.492 79.6729 252.641 79.4485C252.79 79.2241 252.878 78.9646 252.896 78.6956C252.914 78.1939 252.781 77.6983 252.515 77.2728C252.268 76.9182 251.993 76.5837 251.693 76.2726C251.447 75.9765 251.232 75.6558 251.052 75.3154C250.683 74.594 250.448 73.8113 250.359 73.0055Z" fill="#114C5F"/>
<path d="M226.642 81.3719C225.407 79.041 225.945 78.2013 227.267 75.6544C228.59 73.1074 234.083 78.4051 234.083 78.4051V69.2339C231.54 67.7035 231.336 62.2064 234.083 59.252C236.83 56.2976 250.766 60.2708 250.766 60.2708L250.769 60.2673C257.274 60.2673 255.85 56.6049 255.85 56.6049C252.801 56.8057 251.578 52.9355 248.322 51.1008C245.073 49.2661 236.729 48.0476 231.848 51.1008C226.96 54.1609 227.776 56.3972 227.776 56.3972C227.776 56.3972 219.84 61.7005 219.84 68.2154C219.84 72.2052 223.268 77.2624 226.302 80.9604M250.997 99.6823C250.252 101.375 249.567 103.088 248.914 104.81C248.258 106.532 247.628 108.262 247.025 110.001L248.107 109.82C247.365 108.767 246.61 107.723 245.84 106.69C245.083 105.648 244.311 104.617 243.525 103.597C242.752 102.567 241.959 101.551 241.16 100.541C240.371 99.522 239.547 98.5303 238.738 97.5267L238.715 97.4973C238.662 97.4306 238.589 97.3823 238.506 97.3592C236.01 96.6522 233.51 95.9595 230.976 95.3694C233.362 96.4078 235.782 97.3445 238.207 98.2664L237.975 98.0992C238.709 99.1586 239.427 100.23 240.182 101.274C240.925 102.326 241.675 103.374 242.444 104.407C243.203 105.448 243.974 106.48 244.757 107.503C245.531 108.532 246.318 109.552 247.118 110.562L247.137 110.585C247.207 110.673 247.299 110.739 247.403 110.778C247.508 110.817 247.621 110.826 247.73 110.805C247.84 110.784 247.942 110.733 248.024 110.659C248.107 110.584 248.168 110.488 248.2 110.381C248.729 108.618 249.224 106.844 249.695 105.063C250.171 103.283 250.614 101.492 250.997 99.6823ZM252.13 103.832L255.649 109.122L253.357 103.194C253.324 103.109 253.275 103.031 253.212 102.965C253.149 102.898 253.073 102.845 252.99 102.808C252.906 102.771 252.816 102.751 252.725 102.749C252.634 102.747 252.543 102.763 252.458 102.796C252.373 102.829 252.295 102.879 252.229 102.942C252.163 103.005 252.11 103.08 252.073 103.164C252.036 103.248 252.016 103.338 252.014 103.429C252.011 103.521 252.027 103.612 252.06 103.697C252.079 103.744 252.102 103.789 252.13 103.832Z" fill="#114C5F"/>
<path d="M238.357 97.813C238.05 98.9385 237.812 100.073 237.566 101.206C237.336 102.342 237.117 103.479 236.921 104.619C236.52 106.898 236.187 109.185 235.894 111.478L237.041 111.061C236.246 110.347 235.467 109.616 234.659 108.916C233.853 108.214 233.053 107.505 232.228 106.823C230.589 105.448 228.922 104.104 227.166 102.856C228.546 104.511 230.015 106.071 231.513 107.599C232.256 108.369 233.024 109.112 233.786 109.862C234.547 110.613 235.336 111.334 236.109 112.072C236.2 112.158 236.313 112.218 236.437 112.245C236.56 112.271 236.687 112.263 236.806 112.221C236.925 112.179 237.029 112.105 237.109 112.007C237.188 111.909 237.238 111.791 237.255 111.666L237.256 111.655C237.557 109.363 237.819 107.066 238.011 104.761C238.112 103.608 238.19 102.453 238.256 101.296C238.308 100.138 238.366 98.9797 238.357 97.813ZM276.791 150.212C276.732 146.787 276.431 143.371 275.892 139.988C275.407 136.564 274.546 133.204 273.325 129.97L268.863 120.749C267.398 117.675 265.923 114.602 264.347 111.567C265.392 114.824 266.593 118.021 267.877 121.186C268.508 122.773 269.198 124.336 269.888 125.902C270.572 127.46 271.425 129.017 272.049 130.5C273.239 133.648 274.171 136.888 274.836 140.187C275.553 143.503 276.179 146.848 276.791 150.212ZM223.705 123.684L227.499 129.288C228.767 131.144 229.991 133.026 231.195 134.915L233.022 137.737C233.602 138.694 234.202 139.645 234.726 140.636C235.839 142.582 236.615 144.703 237.023 146.909C237.032 146.966 237.062 147.018 237.107 147.055C237.152 147.092 237.209 147.111 237.267 147.108L237.281 147.107C238.754 147.074 240.219 147.341 241.585 147.894C242.239 148.174 242.853 148.54 243.41 148.985C243.945 149.422 244.403 149.947 244.765 150.536L244.674 150.147C244.294 152.135 243.615 154.054 242.659 155.837C242.191 156.738 241.671 157.61 241.1 158.449L240.214 159.687L239.231 160.85C238.918 161.252 238.535 161.589 238.183 161.958C237.836 162.331 237.464 162.681 237.07 163.005L235.902 164.002L234.651 164.898C233.807 165.496 232.928 166.042 232.019 166.532C231.117 167.05 230.151 167.44 229.219 167.936L229.212 167.94C229.197 167.948 229.186 167.961 229.18 167.977C229.174 167.993 229.174 168.011 229.181 168.027C229.187 168.042 229.199 168.055 229.214 168.063C229.23 168.07 229.247 168.072 229.264 168.067C229.768 167.922 230.273 167.769 230.777 167.608C231.288 167.464 231.79 167.295 232.284 167.1C233.27 166.697 234.231 166.235 235.161 165.715C237.047 164.674 238.765 163.352 240.255 161.794C243.281 158.636 245.245 154.609 245.872 150.278L245.875 150.252C245.891 150.123 245.857 149.993 245.781 149.888C245.305 149.21 244.718 148.618 244.045 148.136C243.378 147.683 242.647 147.331 241.876 147.094C240.373 146.65 238.8 146.492 237.239 146.627L237.497 146.825C236.965 144.607 236.234 142.441 235.312 140.355C234.448 138.245 233.419 136.207 232.236 134.259C231.036 132.33 229.728 130.47 228.318 128.688C226.923 126.898 225.417 125.197 223.81 123.594C223.804 123.588 223.796 123.583 223.788 123.579C223.779 123.576 223.77 123.574 223.761 123.574C223.752 123.574 223.743 123.576 223.735 123.58C223.726 123.583 223.719 123.588 223.712 123.595C223.701 123.607 223.694 123.622 223.693 123.638C223.691 123.654 223.696 123.67 223.705 123.684Z" fill="#114C5F"/>
<path d="M226.223 160.918C227.58 160.18 228.868 159.323 230.073 158.357C231.293 157.399 232.429 156.34 233.469 155.189C233.996 154.618 234.468 153.994 234.944 153.378C235.396 152.738 235.803 152.068 236.161 151.371C236.919 149.994 237.298 148.44 237.26 146.867C236.978 148.357 236.409 149.776 235.584 151.047C234.785 152.324 233.866 153.521 232.839 154.621C231.837 155.751 230.755 156.817 229.643 157.856C228.524 158.888 227.395 159.918 226.223 160.918ZM238.357 170.554C239.389 169.053 240.344 167.501 241.219 165.904C242.108 164.306 242.908 162.66 243.618 160.975C245.169 157.579 245.968 153.887 245.962 150.153C245.954 149.97 245.875 149.797 245.741 149.672C245.607 149.547 245.428 149.481 245.245 149.487C245.062 149.494 244.889 149.573 244.764 149.707C244.639 149.841 244.573 150.019 244.579 150.202C244.579 150.218 244.58 150.232 244.582 150.247L244.584 150.272C244.739 152.026 244.66 153.794 244.35 155.528C244.027 157.294 243.566 159.033 242.972 160.728C242.377 162.437 241.689 164.112 240.912 165.746C240.142 167.391 239.289 168.996 238.357 170.554ZM281.487 138.106C280.925 137.919 280.335 137.826 279.742 137.831C279.146 137.823 278.551 137.898 277.975 138.054C277.377 138.204 276.819 138.482 276.338 138.869C276.091 139.056 275.884 139.291 275.728 139.559C275.572 139.828 275.47 140.124 275.428 140.432C275.779 140.009 276.215 139.664 276.706 139.419C277.183 139.182 277.684 138.998 278.201 138.871C279.245 138.573 280.341 138.406 281.487 138.106Z" fill="#114C5F"/>
<path d="M245.323 151.521C248.763 151.964 252.203 152.3 255.647 152.571C257.369 152.71 259.091 152.829 260.815 152.939L261.461 152.981C261.696 153.001 261.932 153.008 262.168 153.002C262.622 152.989 263.076 152.952 263.526 152.891C264.41 152.782 265.267 152.596 266.119 152.411C267.818 152.015 269.485 151.551 271.157 151.118C272.813 150.65 274.497 150.29 276.2 150.041C276.62 149.991 277.043 149.967 277.467 149.967C277.865 149.948 278.262 150.021 278.626 150.182C278.698 150.219 278.762 150.27 278.815 150.331C278.872 150.405 278.928 150.5 278.984 150.584C279.104 150.751 279.188 150.949 279.292 151.129C279.844 152.272 280.163 153.514 280.23 154.782C280.297 155.587 280.144 156.396 279.786 157.12C279.598 157.439 279.336 157.709 279.022 157.907C278.708 158.104 278.352 158.223 277.983 158.255C277.605 158.326 277.218 158.34 276.836 158.295C276.444 158.238 276.061 158.135 275.693 157.988C275.231 157.819 274.745 157.727 274.254 157.718C273.766 157.72 273.281 157.788 272.812 157.921C271.944 158.185 271.103 158.533 270.3 158.958C268.772 159.716 267.207 160.396 265.609 160.994C264.012 161.615 262.397 162.196 260.774 162.751C257.534 163.878 254.234 164.824 250.889 165.583C247.56 166.426 244.119 166.738 240.694 166.505L240.69 166.505C240.672 166.503 240.655 166.508 240.641 166.519C240.627 166.53 240.618 166.545 240.615 166.562C240.612 166.58 240.616 166.598 240.626 166.612C240.635 166.627 240.65 166.637 240.667 166.641C244.109 167.311 247.646 167.313 251.088 166.647C254.53 166.071 257.924 165.237 261.241 164.152C264.569 163.073 267.803 161.72 270.91 160.108C271.628 159.707 272.379 159.368 273.154 159.093C273.865 158.827 274.644 158.807 275.368 159.037C275.813 159.187 276.274 159.285 276.742 159.327C277.223 159.352 277.704 159.302 278.17 159.181C278.405 159.133 278.634 159.06 278.853 158.963C279.091 158.882 279.314 158.761 279.512 158.606C279.613 158.53 279.72 158.461 279.813 158.377L280.062 158.092C280.222 157.903 280.356 157.693 280.459 157.467C280.828 156.609 280.954 155.665 280.823 154.74C280.721 153.855 280.515 152.986 280.21 152.15C280.055 151.735 279.879 151.328 279.681 150.932C279.568 150.739 279.479 150.536 279.344 150.351C279.279 150.257 279.224 150.164 279.149 150.069C279.062 149.965 278.955 149.879 278.835 149.816C278.408 149.624 277.944 149.529 277.476 149.539C277.034 149.531 276.593 149.55 276.154 149.595C272.68 149.965 269.284 150.718 265.894 151.281C265.051 151.433 264.206 151.559 263.374 151.667C262.968 151.719 262.558 151.749 262.148 151.758C261.94 151.766 261.774 151.751 261.559 151.746L260.911 151.716C259.182 151.631 257.452 151.555 255.721 151.5C252.259 151.382 248.795 151.329 245.33 151.383C245.312 151.383 245.295 151.39 245.282 151.402C245.27 151.414 245.262 151.431 245.261 151.449C245.26 151.466 245.266 151.483 245.278 151.497C245.289 151.51 245.305 151.519 245.323 151.521ZM252.292 117.425C251.962 117.413 251.65 117.274 251.421 117.036C251.192 116.799 251.064 116.481 251.064 116.151C251.064 115.821 251.192 115.503 251.421 115.266C251.65 115.028 251.962 114.889 252.292 114.878C252.622 114.889 252.934 115.028 253.163 115.266C253.392 115.503 253.52 115.821 253.52 116.151C253.52 116.481 253.392 116.799 253.163 117.036C252.934 117.274 252.622 117.413 252.292 117.425ZM258.853 130.261C258.524 130.25 258.211 130.111 257.982 129.873C257.753 129.635 257.625 129.318 257.625 128.988C257.625 128.657 257.753 128.34 257.982 128.102C258.211 127.865 258.524 127.726 258.853 127.714C259.183 127.726 259.495 127.865 259.724 128.102C259.954 128.34 260.082 128.657 260.082 128.988C260.082 129.318 259.954 129.635 259.724 129.873C259.495 130.111 259.183 130.25 258.853 130.261ZM262.821 141.722C262.491 141.711 262.179 141.572 261.95 141.334C261.72 141.097 261.592 140.779 261.592 140.449C261.592 140.119 261.72 139.801 261.95 139.564C262.179 139.326 262.491 139.187 262.821 139.176C263.15 139.187 263.463 139.326 263.692 139.564C263.921 139.801 264.049 140.119 264.049 140.449C264.049 140.779 263.921 141.097 263.692 141.334C263.463 141.572 263.15 141.711 262.821 141.722Z" fill="#114C5F"/>
<path d="M266.012 151.843C265.981 151.547 265.839 151.273 265.614 151.078C265.39 150.883 265.1 150.78 264.803 150.791C264.62 150.788 264.44 150.827 264.274 150.903C264.109 150.98 263.962 151.093 263.846 151.234C263.73 151.375 263.647 151.54 263.603 151.717C263.559 151.895 263.556 152.079 263.593 152.258L266.012 151.843ZM266.941 169.23C266.611 169.218 266.299 169.079 266.07 168.841C265.84 168.604 265.712 168.286 265.712 167.956C265.712 167.626 265.84 167.308 266.07 167.071C266.299 166.833 266.611 166.694 266.941 166.683C267.27 166.694 267.583 166.833 267.812 167.071C268.041 167.308 268.169 167.626 268.169 167.956C268.169 168.286 268.041 168.604 267.812 168.841C267.583 169.079 267.27 169.218 266.941 169.23ZM277.671 177.391C277.859 177.339 278.001 177.301 278.092 177.271L277.671 177.391ZM276.987 177.587C277.257 177.512 277.49 177.444 277.671 177.391L276.987 177.587ZM266.166 208.51C266.121 208.698 266.091 208.886 266.053 209.066C266.923 208.627 267.664 207.968 268.203 207.155C268.825 206.196 269.291 205.145 269.585 204.04C269.882 202.92 270.101 201.781 270.239 200.63C270.397 199.471 270.487 198.305 270.532 197.131C270.615 195.957 270.622 194.775 270.622 193.594C270.637 192.412 270.6 191.223 270.577 190.035L270.344 183.299C269.255 183.578 268.158 183.818 267.06 184.044C267.406 186.437 267.661 188.838 267.804 191.246C268.081 195.114 267.955 199.001 267.429 202.843C267.346 203.324 267.278 203.806 267.181 204.288L266.85 205.71L266.166 208.51Z" fill="#114C5F"/>
<path d="M257.156 317.856C254.985 333.125 252.355 348.365 248.327 363.258C256.262 363.258 266.94 351.646 266.94 351.646L260.613 333.916C260.613 333.916 275.792 280.123 278.46 252.007C281.127 223.884 276.634 177.685 276.634 177.685C273.239 178.565 269.8 179.263 266.331 179.777C266.542 180.823 266.73 181.884 266.895 182.938C270.262 182.471 273.613 181.922 276.942 181.139C274.832 182.013 272.659 182.728 270.442 183.276C271.052 185.463 271.486 187.695 271.742 189.952C272.039 192.355 272.137 194.779 272.035 197.199C271.963 199.659 271.512 202.094 270.697 204.416C270.263 205.596 269.611 206.684 268.774 207.622C268.041 208.431 267.079 208.996 266.016 209.24C265.678 210.873 265.37 212.513 265.137 214.161C264.566 217.962 264.197 221.785 263.927 225.615C263.656 229.453 263.499 233.284 263.401 237.137L263.055 248.704C262.724 256.41 262.416 264.116 261.875 271.815C260.778 287.204 259.313 302.579 257.156 317.856Z" fill="#114C5F"/>
<path d="M266.767 182.96C266.64 181.892 266.497 180.83 266.331 179.777C255.517 181.4 244.534 181.569 233.674 180.281C233.389 181.583 233.121 182.888 232.87 184.195C234.734 184.195 236.575 184.307 238.431 184.338L241.203 184.383C242.128 184.405 243.052 184.42 243.969 184.405C244.893 184.39 245.817 184.39 246.742 184.398L249.507 184.322C251.348 184.315 253.189 184.18 255.022 184.104C258.704 183.879 262.371 183.532 266.023 183.066C266.271 183.028 266.519 182.99 266.767 182.96Z" fill="#114C5F"/>
<path d="M224.522 368.759C233.065 373.342 248.327 363.258 248.327 363.258C250.078 355.747 251.483 348.169 252.715 340.568C253.978 332.975 255.08 325.354 256.022 317.706C257.923 302.421 259.376 287.089 260.38 271.709C260.951 264.033 261.319 256.342 261.688 248.644L262.101 237.099C262.206 233.246 262.416 229.37 262.77 225.525C263.115 221.679 263.559 217.834 264.197 214.011C264.505 212.107 264.896 210.203 265.34 208.314L266.084 205.507L266.429 204.13C266.534 203.663 266.609 203.189 266.7 202.723C267.33 198.939 267.567 195.101 267.406 191.269C267.323 188.868 267.151 186.467 266.887 184.082C266.662 184.127 266.437 184.172 266.211 184.217C262.544 184.912 258.837 185.375 255.112 185.602C251.39 185.809 247.66 185.801 243.939 185.579C242.075 185.512 240.227 185.256 238.378 185.075C236.529 184.842 234.696 184.533 232.87 184.195H232.863C225.032 224.441 232.757 266.675 232.757 266.675C226.656 296.325 224.522 368.759 224.522 368.759Z" fill="#114C5F"/>
<path d="M247.309 363.866C247.848 366.668 249.023 369.309 250.743 371.584C251.623 372.737 252.669 373.752 253.849 374.596C255.046 375.439 256.385 376.059 257.802 376.428C259.134 376.723 260.44 377.128 261.706 377.638C262.323 377.891 262.902 378.227 263.429 378.637C263.905 379.046 264.342 379.628 264.142 380.181C264.042 380.465 263.843 380.704 263.581 380.852C263.31 381.025 263.006 381.141 262.688 381.192C261.998 381.314 261.319 381.452 260.632 381.553C259.264 381.768 257.886 381.91 256.504 381.978C255.138 382.043 253.769 382.008 252.409 381.873C251.104 381.767 249.83 381.413 248.658 380.829C246.267 379.359 243.797 378.022 241.26 376.823C239.939 376.227 238.554 375.789 237.131 375.518C236.381 375.391 235.616 375.375 234.861 375.471C234.501 375.523 234.144 375.594 233.791 375.684L233.277 375.799C233.137 375.832 232.995 375.854 232.852 375.864C232.252 375.904 231.655 375.746 231.154 375.413C230.652 375.081 230.273 374.593 230.075 374.025C229.971 373.724 229.912 373.409 229.9 373.09L229.83 372.044C229.785 371.347 229.738 370.65 229.676 369.953C229.675 369.936 229.667 369.92 229.654 369.908C229.641 369.896 229.624 369.89 229.607 369.89C229.59 369.89 229.573 369.896 229.56 369.908C229.547 369.92 229.539 369.936 229.538 369.953C229.476 370.65 229.429 371.347 229.384 372.044L229.314 373.09C229.281 373.469 229.311 373.852 229.404 374.221C229.596 375.001 230.046 375.694 230.679 376.188C231.312 376.682 232.092 376.949 232.895 376.946C233.1 376.944 233.304 376.925 233.505 376.889L234.016 376.808C234.343 376.744 234.672 376.699 235.004 376.671C235.636 376.632 236.271 376.686 236.888 376.829C238.189 377.149 239.454 377.599 240.664 378.174C243.148 379.298 245.556 380.66 248.035 381.973C249.378 382.605 250.84 382.944 252.323 382.968C253.743 383.019 255.165 382.941 256.571 382.733C257.969 382.561 259.343 382.279 260.714 382.016L262.764 381.607C263.133 381.539 263.488 381.406 263.811 381.214C264.16 381.017 264.428 380.703 264.566 380.326C264.635 380.13 264.664 379.922 264.651 379.714C264.625 379.514 264.571 379.319 264.489 379.136C264.318 378.794 264.09 378.484 263.815 378.219C263.287 377.716 262.693 377.288 262.048 376.947C260.787 376.286 259.468 375.741 258.109 375.317C256.849 374.904 255.65 374.322 254.546 373.588C253.445 372.824 252.447 371.923 251.574 370.906C249.811 368.796 248.415 366.405 247.444 363.833L247.442 363.828C247.436 363.812 247.424 363.798 247.408 363.791C247.393 363.783 247.375 363.781 247.358 363.786C247.342 363.791 247.327 363.802 247.318 363.816C247.309 363.831 247.306 363.849 247.309 363.866Z" fill="#114C5F"/>
<path d="M264.72 353.956C265.259 356.758 266.433 359.399 268.154 361.674C269.033 362.827 270.08 363.842 271.26 364.686C272.457 365.529 273.796 366.15 275.213 366.518C276.545 366.813 277.851 367.218 279.116 367.728C279.734 367.981 280.313 368.317 280.84 368.727C281.316 369.136 281.753 369.718 281.553 370.271C281.453 370.555 281.254 370.794 280.992 370.942C280.721 371.116 280.417 371.231 280.099 371.282C279.409 371.404 278.73 371.542 278.043 371.643C276.675 371.858 275.297 372 273.914 372.068C272.549 372.133 271.18 372.098 269.82 371.963C268.515 371.857 267.242 371.503 266.069 370.92C263.678 369.449 261.208 368.112 258.671 366.913C257.35 366.317 255.965 365.879 254.542 365.608C253.792 365.481 253.027 365.465 252.272 365.561C251.912 365.613 251.555 365.684 251.202 365.775L250.688 365.889C250.029 366.045 249.337 365.949 248.745 365.621C248.153 365.293 247.704 364.756 247.486 364.115C247.382 363.814 247.323 363.499 247.311 363.18L247.241 362.134C247.196 361.437 247.149 360.74 247.087 360.043C247.086 360.026 247.078 360.01 247.065 359.998C247.052 359.986 247.035 359.98 247.018 359.98C247.001 359.98 246.984 359.986 246.971 359.998C246.958 360.01 246.95 360.026 246.949 360.043C246.887 360.74 246.84 361.437 246.795 362.134L246.725 363.18C246.692 363.56 246.722 363.942 246.814 364.311C247.007 365.092 247.457 365.784 248.09 366.278C248.723 366.773 249.503 367.039 250.306 367.036C250.511 367.034 250.715 367.015 250.916 366.979L251.427 366.898C251.754 366.834 252.083 366.789 252.414 366.762C253.047 366.723 253.682 366.776 254.299 366.92C255.599 367.239 256.865 367.689 258.074 368.264C260.559 369.388 262.967 370.75 265.446 372.063C266.789 372.695 268.251 373.034 269.734 373.058C271.154 373.11 272.576 373.031 273.982 372.823C275.38 372.651 276.754 372.369 278.125 372.106L280.175 371.697C280.544 371.629 280.899 371.496 281.222 371.304C281.571 371.108 281.839 370.793 281.978 370.416C282.046 370.22 282.075 370.012 282.062 369.804C282.037 369.605 281.982 369.41 281.9 369.226C281.729 368.884 281.501 368.574 281.226 368.309C280.698 367.806 280.104 367.378 279.459 367.038C278.198 366.377 276.879 365.831 275.52 365.407C274.26 364.994 273.061 364.413 271.957 363.678C270.857 362.914 269.858 362.013 268.984 360.996C267.223 358.887 265.827 356.495 264.855 353.923L264.853 353.918C264.847 353.902 264.835 353.889 264.819 353.881C264.804 353.873 264.786 353.872 264.769 353.876C264.753 353.881 264.739 353.892 264.73 353.907C264.72 353.921 264.717 353.939 264.72 353.956ZM280.556 158.375C282.653 157.933 284.634 157.054 286.37 155.795C288.119 154.569 289.723 153.148 291.152 151.56C292.688 150.076 294.125 148.491 295.452 146.818C296.729 145.033 297.584 142.98 297.952 140.815C298.32 138.698 298.509 136.554 298.517 134.406C298.555 132.273 298.565 130.177 298.632 128.06C298.771 123.838 298.892 119.612 299.123 115.39L299.209 113.807L299.249 113.015C299.259 112.8 299.295 112.586 299.355 112.379C299.457 112.072 299.624 111.79 299.845 111.553C300.065 111.317 300.335 111.131 300.634 111.008C300.933 110.885 301.256 110.829 301.579 110.842C301.902 110.856 302.218 110.94 302.506 111.087L303.936 111.786C304.893 112.245 305.854 112.694 306.825 113.125C308.762 114.017 310.757 114.776 312.797 115.395C313.318 115.545 313.848 115.661 314.383 115.742C314.955 115.859 315.548 115.825 316.103 115.642C316.256 115.569 316.393 115.465 316.506 115.337C316.587 115.246 316.673 115.159 316.764 115.077C316.95 114.906 317.152 114.741 317.356 114.581C317.766 114.259 318.193 113.952 318.623 113.649C320.35 112.444 322.133 111.306 323.907 110.156C325.686 109.011 327.487 107.902 329.229 106.682C329.664 106.375 330.095 106.062 330.51 105.71C330.745 105.526 330.947 105.303 331.105 105.05C331.132 104.996 331.151 104.938 331.16 104.878C331.165 104.828 331.16 104.778 331.145 104.73C331.131 104.682 331.107 104.637 331.075 104.599C330.985 104.506 330.863 104.452 330.734 104.446C330.587 104.437 330.439 104.442 330.293 104.46C329.224 104.544 328.176 104.711 327.127 104.872C325.032 105.209 322.954 105.613 320.879 106.056L321.163 106.679C322.639 105.648 324.007 104.471 325.246 103.163C325.586 102.799 325.857 102.376 326.049 101.916C326.119 101.746 326.145 101.562 326.125 101.379C326.105 101.196 326.039 101.021 325.934 100.871C325.715 100.62 325.414 100.457 325.085 100.408C324.599 100.329 324.104 100.33 323.618 100.41C323.149 100.468 322.686 100.568 322.236 100.709C320.515 101.339 318.915 102.26 317.506 103.433C316.092 104.557 314.778 105.801 313.579 107.152L314.492 107.141C313.329 105.826 312.06 104.608 310.698 103.501C310.003 102.935 309.262 102.428 308.482 101.985C307.643 101.461 306.676 101.179 305.688 101.17L306.351 102.087C306.412 101.975 306.485 101.869 306.568 101.772C306.667 101.652 306.777 101.541 306.896 101.441C307.147 101.232 307.426 101.058 307.724 100.925C308.363 100.649 309.048 100.493 309.743 100.466C310.488 100.412 311.108 100.538 312.083 100.507C313.026 100.455 313.923 100.083 314.626 99.4512C315.276 98.8357 315.775 98.0764 316.08 97.2339C316.122 97.1344 316.155 97.0329 316.191 96.9326L316.244 96.772L316.301 96.5361C316.356 96.2025 316.313 95.8599 316.178 95.5502C316.045 95.2505 315.833 94.9922 315.566 94.8023C315.299 94.6124 314.986 94.498 314.659 94.471C314.341 94.4474 314.022 94.5047 313.731 94.6378L313.225 94.8532C312.883 94.9888 312.534 95.1117 312.177 95.2221C311.462 95.4433 310.733 95.62 309.995 95.7512C308.483 95.9616 306.958 96.072 305.431 96.0816C303.761 96.0947 302.118 96.5034 300.636 97.2744C299.903 97.6836 299.228 98.1884 298.628 98.7754L298.184 99.209L297.787 99.6103C297.527 99.8837 297.25 100.125 296.974 100.372C296.69 100.612 296.411 100.832 296.089 101.079C295.72 101.343 295.396 101.665 295.129 102.032C294.678 102.734 294.307 103.486 294.023 104.271C292.888 107.217 291.924 110.17 290.883 113.11C289.849 116.043 288.782 118.967 287.681 121.88C285.452 127.696 283.151 133.491 280.727 139.235C280.72 139.252 280.719 139.271 280.726 139.288C280.732 139.305 280.745 139.318 280.762 139.326C280.778 139.333 280.797 139.334 280.814 139.328C280.831 139.322 280.845 139.309 280.853 139.293C283.55 133.667 286.112 127.976 288.498 122.206C289.699 119.325 290.855 116.423 291.938 113.491C293.034 110.573 294.065 107.615 295.229 104.765C295.487 104.088 295.816 103.441 296.212 102.834C296.409 102.574 296.649 102.349 296.921 102.169C297.222 101.948 297.561 101.693 297.871 101.428C298.177 101.158 298.488 100.887 298.766 100.598L299.193 100.17L299.587 99.7893C300.103 99.2867 300.683 98.8553 301.312 98.5064C302.611 97.8444 304.048 97.5012 305.504 97.5051C307.092 97.501 308.677 97.3903 310.249 97.1737C311.045 97.0355 311.832 96.8481 312.605 96.6126C312.994 96.4942 313.379 96.3602 313.761 96.2106C313.952 96.1345 314.142 96.0558 314.331 95.971C314.395 95.9397 314.467 95.9258 314.538 95.9306C314.601 95.9366 314.661 95.959 314.713 95.9955C314.765 96.0319 314.806 96.0812 314.833 96.1386C314.854 96.1884 314.861 96.2428 314.853 96.2962C314.848 96.3117 314.844 96.3279 314.842 96.3443L314.804 96.4615C314.775 96.5446 314.75 96.6298 314.716 96.71C314.499 97.3427 314.138 97.9163 313.661 98.3856C313.2 98.811 312.606 99.0629 311.98 99.0984C311.4 99.1374 310.465 99.0132 309.653 99.0823C308.79 99.128 307.942 99.3336 307.153 99.6886C306.742 99.8788 306.359 100.125 306.015 100.42C305.838 100.573 305.675 100.742 305.528 100.924C305.36 101.124 305.22 101.348 305.113 101.587C305.066 101.689 305.047 101.801 305.056 101.912C305.065 102.023 305.103 102.131 305.165 102.223C305.228 102.316 305.314 102.39 305.414 102.44C305.514 102.49 305.625 102.513 305.736 102.507L305.776 102.504C306.514 102.527 307.233 102.745 307.86 103.135C308.578 103.535 309.262 103.993 309.904 104.505C311.217 105.556 312.449 106.706 313.588 107.943L313.595 107.951C313.649 108.009 313.715 108.056 313.787 108.09C313.86 108.123 313.938 108.141 314.018 108.144C314.098 108.147 314.177 108.134 314.252 108.106C314.327 108.079 314.395 108.036 314.454 107.982L314.502 107.932C315.628 106.617 316.865 105.401 318.199 104.297C319.495 103.182 320.965 102.288 322.551 101.652C322.94 101.518 323.34 101.42 323.746 101.358C324.131 101.281 324.525 101.265 324.915 101.311C325.026 101.322 325.132 101.36 325.225 101.422C325.234 101.422 325.266 101.479 325.214 101.641C325.066 102 324.86 102.331 324.603 102.621C323.443 103.915 322.153 105.085 320.752 106.114L320.742 106.122C320.679 106.17 320.635 106.239 320.616 106.317C320.598 106.394 320.607 106.476 320.641 106.548C320.675 106.62 320.733 106.678 320.805 106.712C320.877 106.746 320.958 106.755 321.036 106.736C323.084 106.246 325.148 105.79 327.218 105.404C328.252 105.211 329.295 105.05 330.332 104.955C330.448 104.94 330.565 104.934 330.681 104.937C330.732 104.933 330.745 104.965 330.703 104.92C330.691 104.907 330.682 104.892 330.677 104.876C330.672 104.86 330.67 104.842 330.673 104.825C330.665 104.827 330.678 104.819 330.664 104.84C330.533 105.031 330.375 105.201 330.195 105.345C329.807 105.681 329.384 105.995 328.958 106.301C325.522 108.743 321.855 110.865 318.338 113.237C317.9 113.538 317.464 113.843 317.038 114.169C316.825 114.333 316.614 114.5 316.408 114.684C316.302 114.778 316.2 114.877 316.105 114.983C316.042 115.053 315.965 115.11 315.879 115.15C315.42 115.281 314.934 115.29 314.47 115.178C313.963 115.084 313.463 114.958 312.972 114.8C310.984 114.128 309.045 113.321 307.168 112.384C306.22 111.926 305.278 111.455 304.344 110.968L302.945 110.232C302.396 109.933 301.771 109.8 301.148 109.85C300.516 109.901 299.913 110.133 299.41 110.519C298.907 110.905 298.525 111.428 298.311 112.025C298.212 112.323 298.15 112.632 298.126 112.945L298.069 113.738L297.968 115.324C297.721 119.556 297.475 123.791 297.429 128.034C297.298 132.279 297.632 136.538 296.917 140.622C296.603 142.652 295.852 144.59 294.716 146.3C293.459 147.977 292.094 149.57 290.629 151.069C289.273 152.671 287.755 154.128 286.1 155.418C285.267 156.053 284.382 156.617 283.454 157.103C282.534 157.605 281.554 157.987 280.536 158.238L280.529 158.24C280.511 158.244 280.496 158.255 280.486 158.27C280.476 158.285 280.473 158.304 280.476 158.321C280.48 158.339 280.49 158.355 280.505 158.365C280.52 158.375 280.538 158.379 280.556 158.375Z" fill="#114C5F"/>
<path d="M320.733 106.036L315.871 109.58L321.182 106.756C321.282 106.703 321.356 106.613 321.389 106.505C321.422 106.397 321.411 106.281 321.358 106.181C321.305 106.081 321.215 106.007 321.107 105.974C321 105.94 320.883 105.952 320.784 106.004C320.766 106.014 320.749 106.024 320.733 106.036Z" fill="#114C5F"/>
<path d="M408.826 141.231C408.931 138.883 409.022 136.573 409.089 134.285C409.164 131.997 409.21 129.732 409.24 127.467C409.255 125.458 409.255 123.448 409.225 121.439C411.396 121.409 413.568 121.386 415.74 121.334C418.039 121.281 420.331 121.205 422.63 121.108C422.698 123.275 422.78 125.45 422.788 127.617C422.818 129.928 422.78 132.238 422.69 134.548L422.405 141.479C422.345 143.579 422.345 145.679 422.367 147.771C420.233 147.801 418.099 147.869 415.927 147.966L412.275 148.155L408.511 148.358L408.826 141.231ZM371.938 109.564C372.051 107.916 372.141 106.32 372.149 104.725C372.63 104.717 373.103 104.702 373.584 104.687L375.816 104.619C377.176 104.589 378.536 104.484 379.896 104.378C379.956 105.206 380.016 106.042 380.039 106.869C380.054 107.855 380.061 108.833 380.009 109.812C379.911 111.55 379.686 113.289 379.633 115.027C378.438 115.035 377.251 115.095 376.026 115.178C374.568 115.29 373.065 115.448 371.405 115.629C371.608 113.484 371.803 111.482 371.938 109.564ZM371.938 109.564C372.051 107.916 372.141 106.32 372.149 104.725C372.63 104.717 373.103 104.702 373.584 104.687L375.816 104.619C377.176 104.589 378.536 104.484 379.896 104.378C379.956 105.206 380.016 106.042 380.039 106.869C380.054 107.855 380.061 108.833 380.009 109.812C379.911 111.55 379.686 113.289 379.633 115.027C378.438 115.035 377.251 115.095 376.026 115.178C374.568 115.29 373.065 115.448 371.405 115.629C371.608 113.484 371.803 111.482 371.938 109.564ZM408.826 141.231C408.931 138.883 409.022 136.573 409.089 134.285C409.164 131.997 409.21 129.732 409.24 127.467C409.255 125.458 409.255 123.448 409.225 121.439C411.396 121.409 413.568 121.386 415.74 121.334C418.039 121.281 420.331 121.205 422.63 121.108C422.698 123.275 422.78 125.45 422.788 127.617C422.818 129.928 422.78 132.238 422.69 134.548L422.405 141.479C422.345 143.579 422.345 145.679 422.367 147.771C420.233 147.801 418.099 147.869 415.927 147.966L412.275 148.155L408.511 148.358L408.826 141.231ZM408.826 141.231C408.931 138.883 409.022 136.573 409.089 134.285C409.164 131.997 409.21 129.732 409.24 127.467C409.255 125.458 409.255 123.448 409.225 121.439C411.396 121.409 413.568 121.386 415.74 121.334C418.039 121.281 420.331 121.205 422.63 121.108C422.698 123.275 422.78 125.45 422.788 127.617C422.818 129.928 422.78 132.238 422.69 134.548L422.405 141.479C422.345 143.579 422.345 145.679 422.367 147.771C420.233 147.801 418.099 147.869 415.927 147.966L412.275 148.155L408.511 148.358L408.826 141.231ZM371.938 109.564C372.051 107.916 372.141 106.32 372.149 104.725C372.63 104.717 373.103 104.702 373.584 104.687L375.816 104.619C377.176 104.589 378.536 104.484 379.896 104.378C379.956 105.206 380.016 106.042 380.039 106.869C380.054 107.855 380.061 108.833 380.009 109.812C379.911 111.55 379.686 113.289 379.633 115.027C378.438 115.035 377.251 115.095 376.026 115.178C374.568 115.29 373.065 115.448 371.405 115.629C371.608 113.484 371.803 111.482 371.938 109.564ZM371.938 109.564C372.051 107.916 372.141 106.32 372.149 104.725C372.63 104.717 373.103 104.702 373.584 104.687L375.816 104.619C377.176 104.589 378.536 104.484 379.896 104.378C379.956 105.206 380.016 106.042 380.039 106.869C380.054 107.855 380.061 108.833 380.009 109.812C379.911 111.55 379.686 113.289 379.633 115.027C378.438 115.035 377.251 115.095 376.026 115.178C374.568 115.29 373.065 115.448 371.405 115.629C371.608 113.484 371.803 111.482 371.938 109.564ZM408.826 141.231C408.931 138.883 409.022 136.573 409.089 134.285C409.164 131.997 409.21 129.732 409.24 127.467C409.255 125.458 409.255 123.448 409.225 121.439C411.396 121.409 413.568 121.386 415.74 121.334C418.039 121.281 420.331 121.205 422.63 121.108C422.698 123.275 422.78 125.45 422.788 127.617C422.818 129.928 422.78 132.238 422.69 134.548L422.405 141.479C422.345 143.579 422.345 145.679 422.367 147.771C420.233 147.801 418.099 147.869 415.927 147.966L412.275 148.155L408.511 148.358L408.826 141.231ZM408.826 141.231C408.931 138.883 409.022 136.573 409.089 134.285C409.164 131.997 409.21 129.732 409.24 127.467C409.255 125.458 409.255 123.448 409.225 121.439C411.396 121.409 413.568 121.386 415.74 121.334C418.039 121.281 420.331 121.205 422.63 121.108C422.698 123.275 422.78 125.45 422.788 127.617C422.818 129.928 422.78 132.238 422.69 134.548L422.405 141.479C422.345 143.579 422.345 145.679 422.367 147.771C420.233 147.801 418.099 147.869 415.927 147.966L412.275 148.155L408.511 148.358L408.826 141.231ZM371.938 109.564C372.051 107.916 372.141 106.32 372.149 104.725C372.63 104.717 373.103 104.702 373.584 104.687L375.816 104.619C377.176 104.589 378.536 104.484 379.896 104.378C379.956 105.206 380.016 106.042 380.039 106.869C380.054 107.855 380.061 108.833 380.009 109.812C379.911 111.55 379.686 113.289 379.633 115.027C378.438 115.035 377.251 115.095 376.026 115.178C374.568 115.29 373.065 115.448 371.405 115.629C371.608 113.484 371.803 111.482 371.938 109.564ZM371.938 109.564C372.051 107.916 372.141 106.32 372.149 104.725C372.63 104.717 373.103 104.702 373.584 104.687L375.816 104.619C377.176 104.589 378.536 104.484 379.896 104.378C379.956 105.206 380.016 106.042 380.039 106.869C380.054 107.855 380.061 108.833 380.009 109.812C379.911 111.55 379.686 113.289 379.633 115.027C378.438 115.035 377.251 115.095 376.026 115.178C374.568 115.29 373.065 115.448 371.405 115.629C371.608 113.484 371.803 111.482 371.938 109.564ZM408.826 141.231C408.931 138.883 409.022 136.573 409.089 134.285C409.164 131.997 409.21 129.732 409.24 127.467C409.255 125.458 409.255 123.448 409.225 121.439C411.396 121.409 413.568 121.386 415.74 121.334C418.039 121.281 420.331 121.205 422.63 121.108C422.698 123.275 422.78 125.45 422.788 127.617C422.818 129.928 422.78 132.238 422.69 134.548L422.405 141.479C422.345 143.579 422.345 145.679 422.367 147.771C420.233 147.801 418.099 147.869 415.927 147.966L412.275 148.155L408.511 148.358L408.826 141.231ZM369.331 91.5397H426.335C428.324 91.5402 430.231 92.3317 431.637 93.7401C433.043 95.1484 433.834 97.0585 433.834 99.0503V149.878C433.834 151.87 433.044 153.78 431.637 155.188C430.231 156.597 428.324 157.388 426.335 157.388H380.279V146.341C382.105 146.634 383.931 146.792 385.757 146.906C387.636 147.026 389.514 147.056 391.393 147.071C393.272 147.056 395.15 147.018 397.029 146.906C398.914 146.807 400.792 146.611 402.657 146.318C400.793 146.022 398.914 145.826 397.029 145.732C395.15 145.611 393.272 145.581 391.393 145.566C389.514 145.581 387.636 145.611 385.757 145.732C383.923 145.822 382.094 146.011 380.279 146.296V140.832C382.133 141.132 384.002 141.328 385.877 141.419C387.741 141.54 389.605 141.577 391.468 141.585C393.339 141.57 395.203 141.54 397.066 141.419C398.939 141.324 400.805 141.128 402.657 140.832C400.805 140.539 398.939 140.345 397.066 140.253C395.203 140.133 393.339 140.095 391.468 140.08C389.605 140.095 387.741 140.125 385.877 140.245C384.003 140.344 382.134 140.54 380.279 140.832V135.7C382.095 135.981 383.923 136.169 385.757 136.264C387.636 136.385 389.514 136.415 391.393 136.43C393.272 136.415 395.15 136.385 397.029 136.264C398.914 136.166 400.792 135.97 402.657 135.677C400.792 135.385 398.914 135.189 397.029 135.09C395.15 134.97 393.272 134.94 391.393 134.925C389.514 134.94 387.636 134.97 385.757 135.09C383.923 135.185 382.095 135.374 380.279 135.655V134.902C380.28 133.915 380.086 132.938 379.71 132.026C379.333 131.114 378.781 130.286 378.084 129.588C377.388 128.889 376.561 128.336 375.651 127.958C374.741 127.579 373.765 127.385 372.78 127.384H361.832V99.0502C361.831 98.0638 362.025 97.087 362.402 96.1756C362.778 95.2642 363.331 94.4361 364.027 93.7386C364.724 93.0411 365.55 92.4879 366.461 92.1106C367.371 91.7333 368.346 91.5394 369.331 91.5397ZM413.485 103.347C410.307 103.227 407.128 103.197 403.95 103.182C400.771 103.197 397.592 103.227 394.414 103.347C391.228 103.46 388.049 103.618 384.871 103.935C388.049 104.251 391.228 104.409 394.414 104.521C397.592 104.642 400.771 104.672 403.95 104.687C407.128 104.672 410.307 104.642 413.485 104.521C416.664 104.409 419.842 104.243 423.021 103.935C419.842 103.626 416.664 103.46 413.485 103.347ZM413.485 109.3C410.307 109.18 407.128 109.142 403.95 109.127C400.771 109.142 397.592 109.172 394.414 109.293C391.228 109.406 388.049 109.571 384.871 109.88C388.049 110.196 391.228 110.361 394.414 110.466C397.592 110.587 400.771 110.624 403.95 110.632C407.128 110.617 410.307 110.587 413.485 110.466C416.664 110.354 419.842 110.196 423.021 109.88C419.842 109.571 416.664 109.406 413.485 109.3ZM407.669 127.768C407.707 130.123 407.752 132.479 407.827 134.812C407.895 137.145 407.98 139.453 408.082 141.735C408.173 144.015 408.285 146.266 408.406 148.463L411.922 148.674L415.552 148.862C418.009 148.967 420.519 149.043 423.021 149.065L423.667 149.073L423.675 148.411C423.712 146.1 423.705 143.79 423.637 141.479L423.359 134.548C423.269 132.238 423.231 129.928 423.261 127.617C423.269 125.307 423.359 122.997 423.434 120.686L423.449 120.288L423.021 120.273C420.594 120.167 418.167 120.084 415.74 120.039C413.312 119.979 410.885 119.956 408.458 119.919L407.707 119.904L407.692 120.686C407.647 123.042 407.654 125.405 407.669 127.768ZM403.95 116.434C407.128 116.419 410.307 116.389 413.485 116.269C416.664 116.164 419.842 115.998 423.021 115.69C419.842 115.373 416.664 115.208 413.485 115.102C410.307 114.982 407.128 114.952 403.95 114.937C400.771 114.944 397.592 114.982 394.414 115.102C391.228 115.208 388.049 115.373 384.871 115.69C388.049 115.998 391.228 116.164 394.414 116.276C397.592 116.389 400.771 116.427 403.95 116.434ZM385.877 130.785C387.741 130.906 389.605 130.936 391.468 130.951C393.339 130.936 395.203 130.899 397.066 130.778C398.939 130.686 400.805 130.492 402.657 130.199C400.805 129.903 398.939 129.707 397.066 129.612C395.203 129.491 393.339 129.461 391.468 129.446C389.605 129.454 387.741 129.491 385.877 129.612C384.002 129.703 382.133 129.899 380.279 130.199C382.134 130.491 384.003 130.687 385.877 130.785ZM385.877 125.051C387.741 125.171 389.605 125.202 391.468 125.217C393.339 125.202 395.203 125.171 397.066 125.051C398.939 124.953 400.805 124.757 402.657 124.464C400.805 124.172 398.939 123.976 397.066 123.877C395.203 123.757 393.339 123.727 391.468 123.712C389.605 123.727 387.741 123.757 385.877 123.877C384.002 123.972 382.134 124.168 380.279 124.464C382.133 124.764 384.002 124.96 385.877 125.051ZM370.766 110.053C370.901 112.055 371.097 113.973 371.3 115.742C372.615 115.922 374.087 116.081 375.605 116.194C377.131 116.299 378.709 116.367 380.279 116.359L380.956 116.352L380.948 115.69C380.948 113.725 380.663 111.769 380.557 109.812C380.497 108.834 380.505 107.855 380.52 106.869C380.55 105.891 380.625 104.913 380.693 103.935L380.715 103.558L380.279 103.52C378.792 103.4 377.304 103.287 375.816 103.25L373.584 103.182C372.84 103.167 372.096 103.129 371.352 103.129L370.556 103.137L370.548 103.935C370.526 105.989 370.631 108.059 370.766 110.053ZM372.149 104.725C372.63 104.717 373.103 104.702 373.584 104.687L375.816 104.619C377.176 104.589 378.536 104.484 379.896 104.378C379.956 105.206 380.016 106.042 380.039 106.869C380.054 107.855 380.061 108.833 380.009 109.812C379.911 111.55 379.686 113.289 379.633 115.027C378.438 115.035 377.251 115.095 376.026 115.178C374.568 115.29 373.065 115.448 371.405 115.629C371.608 113.484 371.803 111.482 371.938 109.564C372.051 107.916 372.141 106.32 372.149 104.725ZM409.089 134.285C409.164 131.997 409.21 129.732 409.24 127.467C409.255 125.458 409.255 123.448 409.225 121.439C411.396 121.409 413.568 121.386 415.74 121.334C418.039 121.281 420.331 121.205 422.63 121.108C422.698 123.275 422.78 125.45 422.788 127.617C422.818 129.928 422.78 132.238 422.69 134.548L422.405 141.479C422.345 143.579 422.345 145.679 422.367 147.771C420.233 147.801 418.099 147.869 415.927 147.966L412.275 148.155L408.511 148.358L408.826 141.231C408.931 138.883 409.022 136.573 409.089 134.285ZM408.826 141.231C408.931 138.883 409.022 136.573 409.089 134.285C409.164 131.997 409.21 129.732 409.24 127.467C409.255 125.458 409.255 123.448 409.225 121.439C411.396 121.409 413.568 121.386 415.74 121.334C418.039 121.281 420.331 121.205 422.63 121.108C422.698 123.275 422.78 125.45 422.788 127.617C422.818 129.928 422.78 132.238 422.69 134.548L422.405 141.479C422.345 143.579 422.345 145.679 422.367 147.771C420.233 147.801 418.099 147.869 415.927 147.966L412.275 148.155L408.511 148.358L408.826 141.231ZM371.938 109.564C372.051 107.916 372.141 106.32 372.149 104.725C372.63 104.717 373.103 104.702 373.584 104.687L375.816 104.619C377.176 104.589 378.536 104.484 379.896 104.378C379.956 105.206 380.016 106.042 380.039 106.869C380.054 107.855 380.061 108.833 380.009 109.812C379.911 111.55 379.686 113.289 379.633 115.027C378.438 115.035 377.251 115.095 376.026 115.178C374.568 115.29 373.065 115.448 371.405 115.629C371.608 113.484 371.803 111.482 371.938 109.564ZM371.938 109.564C372.051 107.916 372.141 106.32 372.149 104.725C372.63 104.717 373.103 104.702 373.584 104.687L375.816 104.619C377.176 104.589 378.536 104.484 379.896 104.378C379.956 105.206 380.016 106.042 380.039 106.869C380.054 107.855 380.061 108.833 380.009 109.812C379.911 111.55 379.686 113.289 379.633 115.027C378.438 115.035 377.251 115.095 376.026 115.178C374.568 115.29 373.065 115.448 371.405 115.629C371.608 113.484 371.803 111.482 371.938 109.564ZM408.826 141.231C408.931 138.883 409.022 136.573 409.089 134.285C409.164 131.997 409.21 129.732 409.24 127.467C409.255 125.458 409.255 123.448 409.225 121.439C411.396 121.409 413.568 121.386 415.74 121.334C418.039 121.281 420.331 121.205 422.63 121.108C422.698 123.275 422.78 125.45 422.788 127.617C422.818 129.928 422.78 132.238 422.69 134.548L422.405 141.479C422.345 143.579 422.345 145.679 422.367 147.771C420.233 147.801 418.099 147.869 415.927 147.966L412.275 148.155L408.511 148.358L408.826 141.231ZM408.826 141.231C408.931 138.883 409.022 136.573 409.089 134.285C409.164 131.997 409.21 129.732 409.24 127.467C409.255 125.458 409.255 123.448 409.225 121.439C411.396 121.409 413.568 121.386 415.74 121.334C418.039 121.281 420.331 121.205 422.63 121.108C422.698 123.275 422.78 125.45 422.788 127.617C422.818 129.928 422.78 132.238 422.69 134.548L422.405 141.479C422.345 143.579 422.345 145.679 422.367 147.771C420.233 147.801 418.099 147.869 415.927 147.966L412.275 148.155L408.511 148.358L408.826 141.231ZM371.938 109.564C372.051 107.916 372.141 106.32 372.149 104.725C372.63 104.717 373.103 104.702 373.584 104.687L375.816 104.619C377.176 104.589 378.536 104.484 379.896 104.378C379.956 105.206 380.016 106.042 380.039 106.869C380.054 107.855 380.061 108.833 380.009 109.812C379.911 111.55 379.686 113.289 379.633 115.027C378.438 115.035 377.251 115.095 376.026 115.178C374.568 115.29 373.065 115.448 371.405 115.629C371.608 113.484 371.803 111.482 371.938 109.564ZM371.938 109.564C372.051 107.916 372.141 106.32 372.149 104.725C372.63 104.717 373.103 104.702 373.584 104.687L375.816 104.619C377.176 104.589 378.536 104.484 379.896 104.378C379.956 105.206 380.016 106.042 380.039 106.869C380.054 107.855 380.061 108.833 380.009 109.812C379.911 111.55 379.686 113.289 379.633 115.027C378.438 115.035 377.251 115.095 376.026 115.178C374.568 115.29 373.065 115.448 371.405 115.629C371.608 113.484 371.803 111.482 371.938 109.564ZM408.826 141.231C408.931 138.883 409.022 136.573 409.089 134.285C409.164 131.997 409.21 129.732 409.24 127.467C409.255 125.458 409.255 123.448 409.225 121.439C411.396 121.409 413.568 121.386 415.74 121.334C418.039 121.281 420.331 121.205 422.63 121.108C422.698 123.275 422.78 125.45 422.788 127.617C422.818 129.928 422.78 132.238 422.69 134.548L422.405 141.479C422.345 143.579 422.345 145.679 422.367 147.771C420.233 147.801 418.099 147.869 415.927 147.966L412.275 148.155L408.511 148.358L408.826 141.231ZM371.938 109.564C372.051 107.916 372.141 106.32 372.149 104.725C372.63 104.717 373.103 104.702 373.584 104.687L375.816 104.619C377.176 104.589 378.536 104.484 379.896 104.378C379.956 105.206 380.016 106.042 380.039 106.869C380.054 107.855 380.061 108.833 380.009 109.812C379.911 111.55 379.686 113.289 379.633 115.027C378.438 115.035 377.251 115.095 376.026 115.178C374.568 115.29 373.065 115.448 371.405 115.629C371.608 113.484 371.803 111.482 371.938 109.564ZM371.938 109.564C372.051 107.916 372.141 106.32 372.149 104.725C372.63 104.717 373.103 104.702 373.584 104.687L375.816 104.619C377.176 104.589 378.536 104.484 379.896 104.378C379.956 105.206 380.016 106.042 380.039 106.869C380.054 107.855 380.061 108.833 380.009 109.812C379.911 111.55 379.686 113.289 379.633 115.027C378.438 115.035 377.251 115.095 376.026 115.178C374.568 115.29 373.065 115.448 371.405 115.629C371.608 113.484 371.803 111.482 371.938 109.564ZM121.835 122.658C127.739 122.697 133.642 122.695 139.545 122.769L157.255 123.023C163.159 123.131 169.062 123.145 174.965 123.188C177.933 123.208 180.834 123.231 183.855 123.168C185.444 123.07 186.976 122.535 188.282 121.623C189.588 120.712 190.619 119.457 191.26 117.998C191.581 117.274 191.794 116.506 191.893 115.72C191.946 115.33 191.973 114.936 191.976 114.541L191.966 113.429L191.918 108.995L191.819 100.127L191.718 91.2586L191.673 82.3904C191.628 76.4783 191.654 70.5663 191.677 64.6542L191.692 60.2201C191.717 59.4628 191.667 58.7049 191.541 57.9576C191.386 57.2073 191.135 56.4803 190.793 55.7948C190.097 54.4159 189.035 53.2559 187.724 52.4425C186.407 51.6229 184.891 51.1799 183.341 51.1615C171.535 51.0748 159.728 50.9256 147.921 50.8896L130.211 50.819C127.241 50.8124 124.35 50.7823 121.314 50.8385C119.701 50.9355 118.145 51.4753 116.818 52.3987C115.49 53.3222 114.442 54.5937 113.788 56.0741C113.463 56.8105 113.242 57.589 113.132 58.3869C113.075 58.7845 113.043 59.1853 113.038 59.587L113.037 60.7L113.043 65.1341C113.046 68.09 113.048 71.0462 113.084 74.0024C113.143 79.9145 113.179 85.8265 113.288 91.7386L113.551 109.475L113.597 113.909C113.582 114.657 113.642 115.406 113.777 116.142C113.94 116.876 114.196 117.585 114.541 118.253C115.239 119.584 116.288 120.699 117.574 121.475C118.86 122.252 120.334 122.661 121.835 122.658ZM121.835 122.519C120.366 122.506 118.929 122.09 117.678 121.317C116.431 120.548 115.419 119.45 114.754 118.142C114.428 117.492 114.187 116.801 114.037 116.089C113.914 115.369 113.865 114.639 113.888 113.909L113.935 109.475L114.198 91.7386C114.307 85.8265 114.342 79.9145 114.401 74.0024C114.438 71.0462 114.439 68.09 114.442 65.1341L114.449 60.7L114.453 59.5962C114.46 59.2589 114.488 58.9223 114.537 58.5886C114.63 57.9207 114.817 57.2693 115.091 56.6536C115.642 55.4165 116.521 54.355 117.634 53.5855C118.747 52.8159 120.049 52.3681 121.399 52.2911C121.723 52.268 122.089 52.2661 122.463 52.2698L123.57 52.2716L125.784 52.2749L130.211 52.2624L147.921 52.1919C159.728 52.1559 171.535 52.0067 183.341 51.92C184.764 51.9121 186.161 52.2946 187.381 53.0259C188.602 53.7572 189.599 54.8094 190.265 56.0682C190.594 56.7007 190.841 57.3732 190.998 58.069C191.13 58.7781 191.19 59.4989 191.176 60.2201L191.191 64.6543C191.214 70.5663 191.24 76.4784 191.195 82.3904L191.15 91.2587L191.049 100.127L190.951 108.995L190.902 113.429L190.887 114.534C190.877 114.878 190.845 115.222 190.791 115.562C190.687 116.242 190.493 116.905 190.214 117.533C189.651 118.791 188.754 119.869 187.62 120.65C186.486 121.431 185.159 121.885 183.785 121.961L174.965 121.989C169.062 122.032 163.159 122.046 157.255 122.154L139.545 122.407C133.642 122.482 127.739 122.479 121.835 122.519Z" fill="#114C5F"/>
<path d="M91.1913 177.717C97.0946 177.756 102.998 177.754 108.901 177.828L126.611 178.082C132.514 178.19 138.418 178.204 144.321 178.247C147.288 178.268 150.19 178.29 153.211 178.227C154.8 178.129 156.332 177.594 157.638 176.683C158.944 175.771 159.975 174.516 160.616 173.057C160.937 172.333 161.15 171.565 161.249 170.779C161.301 170.389 161.329 169.995 161.331 169.6L161.322 168.488L161.273 164.054L161.175 155.186L161.074 146.318L161.029 137.45C160.984 131.537 161.01 125.625 161.033 119.713L161.048 115.279C161.073 114.522 161.022 113.764 160.897 113.017C160.742 112.267 160.491 111.539 160.149 110.854C159.453 109.475 158.391 108.315 157.08 107.501C155.763 106.682 154.247 106.239 152.697 106.221C140.89 106.134 129.084 105.985 117.277 105.949L99.5671 105.878C96.5967 105.871 93.7057 105.841 90.6704 105.898C89.0569 105.995 87.5012 106.534 86.1736 107.458C84.8461 108.381 83.7979 109.653 83.1439 111.133C82.8186 111.87 82.5979 112.648 82.4881 113.446C82.4309 113.844 82.3993 114.244 82.3934 114.646L82.3923 115.759L82.3991 120.193C82.402 123.149 82.4035 126.105 82.4402 129.061C82.4987 134.973 82.5345 140.885 82.6436 146.798L82.9065 164.534L82.9531 168.968C82.9382 169.717 82.9983 170.465 83.1327 171.201C83.2954 171.935 83.5523 172.644 83.897 173.312C84.5951 174.643 85.644 175.758 86.93 176.534C88.216 177.311 89.6897 177.72 91.1913 177.717ZM91.1913 177.578C89.722 177.565 88.2843 177.149 87.034 176.376C85.7865 175.607 84.7749 174.509 84.1101 173.202C83.7835 172.551 83.5424 171.861 83.3928 171.148C83.2702 170.428 83.2203 169.698 83.2438 168.968L83.2906 164.534L83.5535 146.798C83.6625 140.886 83.6982 134.973 83.7568 129.061C83.7935 126.105 83.7949 123.149 83.7979 120.193L83.8047 115.759L83.8091 114.655C83.8156 114.318 83.8435 113.981 83.8927 113.648C83.9861 112.98 84.1728 112.328 84.4471 111.713C84.9973 110.476 85.877 109.414 86.9897 108.645C88.1025 107.875 89.4052 107.427 90.7552 107.35C91.0783 107.327 91.4449 107.325 91.8189 107.329L92.9259 107.331L95.1397 107.334L99.567 107.321L117.277 107.251C129.084 107.215 140.89 107.066 152.697 106.979C154.119 106.971 155.517 107.354 156.737 108.085C157.958 108.816 158.955 109.868 159.62 111.127C159.95 111.76 160.196 112.432 160.354 113.128C160.486 113.837 160.546 114.558 160.532 115.279L160.547 119.713C160.57 125.625 160.596 131.537 160.55 137.45L160.506 146.318L160.405 155.186L160.306 164.054L160.258 168.488L160.243 169.593C160.233 169.937 160.201 170.281 160.147 170.621C160.043 171.301 159.849 171.964 159.569 172.592C159.007 173.85 158.109 174.928 156.975 175.71C155.841 176.491 154.514 176.944 153.14 177.02L144.321 177.048C138.418 177.091 132.514 177.105 126.611 177.213L108.901 177.466C102.998 177.541 97.0946 177.538 91.1913 177.578Z" fill="#114C5F"/>
<path d="M152.697 106.6C153.76 106.6 154.812 106.809 155.794 107.217C156.776 107.624 157.668 108.221 158.419 108.974C159.171 109.726 159.767 110.62 160.174 111.603C160.58 112.586 160.79 113.64 160.79 114.705V122.588H121.836C119.689 122.588 117.631 121.734 116.113 120.215C114.595 118.695 113.743 116.633 113.743 114.484V106.6H152.697ZM401.563 232.448C412.505 232.426 423.448 232.649 434.39 232.814C439.861 232.921 445.332 232.935 450.803 232.979C453.554 232.999 456.24 233.019 459.045 232.96C460.525 232.868 461.952 232.37 463.169 231.52C464.386 230.67 465.346 229.502 465.943 228.142C466.242 227.467 466.44 226.752 466.532 226.02C466.58 225.655 466.606 225.289 466.608 224.921L466.598 223.89L466.55 219.781L466.451 211.562L466.35 203.343L466.305 195.124C466.26 189.645 466.286 184.166 466.309 178.686L466.324 174.577C466.348 173.874 466.301 173.17 466.185 172.476C466.042 171.778 465.809 171.103 465.492 170.465C464.845 169.183 463.859 168.104 462.64 167.347C461.416 166.584 460.007 166.172 458.566 166.154C447.623 166.021 436.681 165.93 425.739 165.881L409.326 165.811C406.571 165.804 403.896 165.776 401.077 165.829C399.572 165.92 398.121 166.423 396.883 167.285C395.645 168.146 394.667 169.332 394.057 170.713C393.754 171.4 393.548 172.126 393.446 172.871C393.392 173.241 393.363 173.615 393.358 173.989L393.357 175.022L393.363 179.131C393.366 181.871 393.368 184.61 393.404 187.35C393.463 192.829 393.499 198.308 393.608 203.788L393.871 220.225L393.917 224.335C393.904 225.029 393.96 225.724 394.085 226.407C394.236 227.087 394.475 227.745 394.795 228.365C395.445 229.598 396.419 230.63 397.612 231.35C398.804 232.069 400.171 232.449 401.563 232.448ZM401.563 232.31C400.205 232.295 398.877 231.91 397.722 231.196C396.567 230.481 395.629 229.464 395.008 228.254C394.706 227.652 394.483 227.013 394.345 226.354C394.232 225.687 394.186 225.011 394.208 224.335L394.255 220.225L394.518 203.788C394.627 198.308 394.663 192.829 394.721 187.35C394.758 184.61 394.759 181.871 394.762 179.131L394.769 175.022L394.773 173.999C394.779 173.689 394.805 173.379 394.85 173.072C394.936 172.458 395.108 171.859 395.361 171.292C395.867 170.155 396.676 169.179 397.699 168.471C398.722 167.764 399.921 167.352 401.162 167.282C401.458 167.26 401.798 167.259 402.145 167.262L403.171 167.264L405.222 167.267L409.326 167.254L425.739 167.184C436.681 167.144 447.624 167.053 458.566 166.912C459.879 166.906 461.169 167.26 462.296 167.934C463.423 168.608 464.346 169.578 464.963 170.739C465.268 171.323 465.496 171.945 465.642 172.587C465.765 173.243 465.821 173.91 465.808 174.577L465.823 178.686C465.846 184.166 465.872 189.645 465.827 195.124L465.782 203.343L465.681 211.562L465.583 219.781L465.534 223.89L465.519 224.914C465.51 225.231 465.48 225.548 465.43 225.862C465.334 226.488 465.154 227.098 464.896 227.677C464.378 228.835 463.551 229.828 462.507 230.547C461.462 231.267 460.24 231.684 458.974 231.753L450.803 231.779C445.332 231.823 439.861 231.837 434.39 231.945C423.448 232.109 412.505 232.331 401.563 232.31Z" fill="#114C5F"/>
<path d="M380.122 135.677C380.174 135.685 380.227 135.692 380.279 135.7V135.655C380.227 135.662 380.174 135.67 380.122 135.677ZM380.122 146.318C380.174 146.326 380.227 146.333 380.279 146.341V146.296C380.227 146.303 380.174 146.311 380.122 146.318Z" fill="white"/>
<path d="M370.116 138.071C366.936 137.785 363.757 137.635 360.578 137.533C357.398 137.422 354.219 137.393 351.04 137.379C347.86 137.391 344.681 137.421 341.502 137.531C338.323 137.632 335.143 137.783 331.964 138.071C335.143 138.36 338.323 138.51 341.502 138.612C344.681 138.721 347.86 138.751 351.04 138.763C354.219 138.749 357.398 138.72 360.578 138.609C363.757 138.508 366.936 138.358 370.116 138.071ZM370.116 144.018C366.936 143.732 363.757 143.582 360.578 143.48C357.398 143.37 354.219 143.34 351.04 143.326C347.86 143.339 344.681 143.368 341.502 143.478C338.323 143.58 335.143 143.73 331.964 144.018C335.143 144.307 338.323 144.458 341.502 144.559C344.681 144.669 347.86 144.699 351.04 144.71C354.219 144.697 357.398 144.667 360.578 144.557C363.757 144.455 366.936 144.305 370.116 144.018ZM370.116 149.822C366.936 149.536 363.757 149.386 360.578 149.284C357.398 149.174 354.219 149.144 351.04 149.13C347.86 149.143 344.681 149.172 341.502 149.282C338.323 149.384 335.143 149.534 331.964 149.822C335.143 150.11 338.323 150.261 341.502 150.363C344.681 150.473 347.86 150.502 351.04 150.514C354.219 150.5 357.398 150.471 360.578 150.361C363.757 150.259 366.936 150.109 370.116 149.822ZM318.393 149.871C319.725 150.04 321.195 150.183 322.715 150.286C324.237 150.385 325.81 150.451 327.372 150.44L327.99 150.435L327.988 149.822C327.984 147.864 327.725 145.905 327.625 143.947C327.572 142.967 327.578 141.988 327.594 141.009C327.617 140.03 327.691 139.051 327.75 138.071L327.771 137.722L327.372 137.692C325.884 137.58 324.395 137.474 322.907 137.439L320.675 137.378C319.93 137.362 319.186 137.328 318.442 137.334L317.713 137.339L317.705 138.071C317.684 140.118 317.781 142.177 317.902 144.171C318.027 146.166 318.207 148.088 318.393 149.871ZM318.491 149.774C318.677 147.64 318.857 145.645 318.982 143.723C319.103 141.799 319.2 139.941 319.179 138.071L318.442 138.809C319.186 138.815 319.93 138.781 320.675 138.764L322.907 138.703C324.395 138.668 325.884 138.562 327.372 138.45L326.993 138.071C327.053 139.051 327.126 140.03 327.15 141.009C327.166 141.988 327.172 142.967 327.119 143.947C327.018 145.905 326.76 147.864 326.755 149.822L327.372 149.205C325.957 149.194 324.553 149.26 323.099 149.358C321.642 149.462 320.135 149.605 318.491 149.774ZM355.498 182.598L359.026 182.79L362.661 182.961C365.115 183.058 367.617 183.132 370.116 183.15L370.708 183.155L370.716 182.549C370.745 180.238 370.744 177.927 370.683 175.617L370.424 168.685C370.341 166.374 370.311 164.063 370.332 161.752C370.34 159.442 370.423 157.131 370.494 154.82L370.505 154.456L370.116 154.441C367.687 154.348 365.259 154.27 362.831 154.224L355.547 154.115L354.855 154.105L354.844 154.82C354.805 157.173 354.807 159.534 354.827 161.89C354.855 164.245 354.898 166.596 354.976 168.922C355.094 173.586 355.288 178.178 355.498 182.598ZM355.596 182.5C355.807 177.678 356 173.026 356.119 168.448C356.196 166.152 356.239 163.881 356.268 161.615C356.287 159.35 356.29 157.089 356.251 154.82L355.547 155.525L362.831 155.416C365.259 155.37 367.687 155.292 370.116 155.199L369.737 154.82C369.808 157.131 369.891 159.442 369.899 161.752C369.923 164.063 369.892 166.374 369.807 168.685L369.548 175.617C369.487 177.928 369.486 180.238 369.515 182.549L370.116 181.948C367.758 181.967 365.404 182.04 363.002 182.138L355.596 182.5ZM349.752 158.602C347.16 158.315 344.569 158.165 341.977 158.063C339.385 157.953 336.794 157.923 334.202 157.91C331.61 157.922 329.019 157.951 326.427 158.062C323.836 158.163 321.244 158.314 318.652 158.602C321.244 158.89 323.836 159.04 326.427 159.142C329.019 159.252 331.61 159.282 334.202 159.294C336.794 159.28 339.385 159.25 341.977 159.14C344.569 159.038 347.16 158.888 349.752 158.602ZM349.752 164.332C347.16 164.045 344.569 163.895 341.977 163.794C339.385 163.683 336.794 163.654 334.202 163.64C331.61 163.652 329.019 163.681 326.427 163.792C323.836 163.893 321.244 164.043 318.652 164.332C321.244 164.62 323.836 164.771 326.427 164.872C329.019 164.982 331.61 165.012 334.202 165.024C336.794 165.01 339.385 164.98 341.977 164.87C344.569 164.768 347.16 164.618 349.752 164.332ZM349.752 169.813C347.147 169.527 344.543 169.377 341.938 169.275C339.333 169.164 336.729 169.135 334.124 169.121C331.519 169.133 328.915 169.163 326.31 169.273C323.705 169.374 321.1 169.525 318.496 169.813C321.1 170.101 323.705 170.252 326.31 170.353C328.915 170.464 331.519 170.493 334.124 170.505C336.729 170.491 339.333 170.462 341.938 170.351C344.543 170.249 347.147 170.1 349.752 169.813ZM349.752 174.972C347.16 174.685 344.569 174.536 341.977 174.434C339.385 174.323 336.794 174.294 334.202 174.28C331.61 174.292 329.019 174.322 326.427 174.432C323.836 174.533 321.244 174.684 318.652 174.972C321.244 175.26 323.836 175.411 326.427 175.512C329.019 175.622 331.61 175.652 334.202 175.664C336.794 175.65 339.385 175.621 341.977 175.51C344.569 175.409 347.16 175.259 349.752 174.972ZM349.752 180.453C347.147 180.167 344.543 180.017 341.938 179.915C339.333 179.805 336.729 179.775 334.124 179.761C331.519 179.774 328.915 179.803 326.31 179.913C323.705 180.015 321.1 180.165 318.496 180.453C321.1 180.742 323.705 180.892 326.31 180.994C328.915 181.104 331.519 181.133 334.124 181.145C336.729 181.132 339.333 181.102 341.938 180.992C344.543 180.89 347.147 180.74 349.752 180.453Z" fill="#114C5F"/>
<path d="M315.777 193.302C326.72 193.281 337.662 193.503 348.604 193.668C354.075 193.775 359.546 193.79 365.017 193.833C367.769 193.854 370.454 193.873 373.259 193.814C374.74 193.723 376.167 193.224 377.383 192.375C378.6 191.525 379.56 190.356 380.158 188.996C380.456 188.321 380.654 187.606 380.746 186.874C380.795 186.51 380.82 186.143 380.822 185.775L380.812 184.745L380.764 180.635L380.665 172.416L380.565 164.197L380.52 155.978C380.475 150.499 380.501 145.02 380.524 139.541L380.538 135.431C380.562 134.728 380.516 134.024 380.4 133.33C380.256 132.633 380.023 131.957 379.706 131.32C379.06 130.038 378.073 128.959 376.855 128.202C375.631 127.439 374.222 127.026 372.78 127.008C361.838 126.875 350.896 126.785 339.953 126.736L323.54 126.666C320.786 126.658 318.111 126.631 315.291 126.684C313.786 126.774 312.335 127.278 311.097 128.139C309.859 129.001 308.881 130.187 308.272 131.568C307.968 132.255 307.762 132.981 307.66 133.725C307.607 134.096 307.577 134.47 307.572 134.844L307.571 135.876L307.578 139.986C307.581 142.725 307.582 145.465 307.619 148.204C307.677 153.684 307.713 159.163 307.822 164.642L308.085 181.08L308.132 185.189C308.118 185.884 308.174 186.578 308.299 187.261C308.451 187.942 308.689 188.6 309.009 189.219C309.659 190.453 310.633 191.485 311.826 192.204C313.019 192.924 314.385 193.304 315.777 193.302ZM315.777 193.164C314.42 193.15 313.092 192.765 311.937 192.05C310.781 191.335 309.843 190.319 309.223 189.109C308.921 188.507 308.698 187.868 308.559 187.208C308.446 186.541 308.4 185.865 308.423 185.189L308.469 181.08L308.732 164.642C308.841 159.163 308.877 153.684 308.935 148.204C308.972 145.465 308.974 142.725 308.977 139.986L308.983 135.876L308.988 134.853C308.994 134.543 309.019 134.234 309.065 133.927C309.151 133.312 309.322 132.713 309.575 132.147C310.081 131.009 310.89 130.033 311.913 129.326C312.937 128.618 314.135 128.207 315.376 128.136C315.673 128.115 316.012 128.113 316.359 128.117L317.385 128.118L319.437 128.121L323.54 128.109L339.954 128.039C350.896 127.998 361.838 127.907 372.78 127.766C374.093 127.761 375.383 128.114 376.51 128.788C377.638 129.463 378.56 130.433 379.177 131.594C379.482 132.178 379.711 132.799 379.857 133.442C379.979 134.098 380.035 134.764 380.022 135.431L380.037 139.541C380.06 145.02 380.086 150.499 380.041 155.979L379.996 164.198L379.896 172.416L379.797 180.635L379.748 184.745L379.734 185.768C379.724 186.086 379.694 186.402 379.644 186.716C379.548 187.342 379.369 187.952 379.111 188.531C378.593 189.689 377.766 190.683 376.721 191.402C375.676 192.121 374.454 192.538 373.188 192.607L365.017 192.634C359.546 192.677 354.075 192.691 348.604 192.799C337.662 192.964 326.72 193.186 315.777 193.164ZM180.38 97.9905C175.748 97.6099 171.116 97.4103 166.484 97.2751C161.852 97.1281 157.22 97.0892 152.588 97.0708C147.957 97.087 143.325 97.1259 138.693 97.2722C134.061 97.407 129.429 97.6073 124.797 97.9905C129.429 98.3738 134.061 98.5741 138.693 98.7089C143.325 98.8552 147.957 98.8945 152.588 98.9103C157.22 98.8919 161.852 98.853 166.484 98.706C171.116 98.5708 175.748 98.3716 180.38 97.9905Z" fill="#114C5F"/>
<path d="M175.785 60.1565C175.404 63.7693 175.205 67.3826 175.07 70.9954C174.923 74.6087 174.884 78.2215 174.866 81.8347C174.882 85.4476 174.921 89.0608 175.068 92.6737C175.202 96.2869 175.402 99.8997 175.785 103.513C176.167 99.8997 176.367 96.2869 176.502 92.6737C176.648 89.0608 176.687 85.4476 176.703 81.8348C176.685 78.2215 176.646 74.6087 176.499 70.9955C176.364 67.3826 176.165 63.7693 175.785 60.1565ZM160.79 98.2558C162.393 98.3532 164.071 98.4373 165.779 98.5042C167.484 98.5854 169.232 98.6159 170.969 98.6309L171.369 98.6346L171.376 98.223C171.423 95.4131 171.258 92.6027 171.157 89.7927C171.117 88.3876 171.093 86.9824 171.121 85.5776C171.126 84.1724 171.173 82.7673 171.22 81.3625L171.229 81.1211L170.969 81.1104C169.278 81.041 167.587 80.9895 165.896 80.9561L160.823 80.8823L160.348 80.8753L160.343 81.3625C160.331 82.7949 160.324 84.2353 160.351 85.6677C160.366 87.103 160.407 88.5302 160.453 89.9464C160.526 92.7865 160.66 95.5711 160.79 98.2558ZM160.855 98.1907C160.986 95.2551 161.12 92.4194 161.193 89.6392C161.239 88.2451 161.28 86.8623 161.295 85.4877C161.322 84.11 161.314 82.7398 161.302 81.3626L160.823 81.8425L165.896 81.7686C167.587 81.7345 169.278 81.683 170.969 81.6143L170.717 81.3626C170.765 82.7674 170.812 84.1726 170.817 85.5777C170.845 86.9825 170.821 88.3877 170.781 89.7928C170.68 92.6028 170.515 95.4131 170.562 98.2231L170.969 97.8153C169.324 97.8307 167.69 97.8612 166.012 97.942C164.339 98.0088 162.635 98.0933 160.855 98.1907Z" fill="#114C5F"/>
<path d="M150.665 98.2558C152.292 98.3253 153.962 98.4124 155.671 98.4638C157.375 98.5255 159.108 98.5836 160.844 98.5917L161.208 98.5935L161.212 98.2231C161.234 96.1322 161.274 94.0411 161.245 91.9502C161.222 89.859 161.135 87.7682 161.079 85.677C161.004 83.5861 160.974 81.4951 160.989 79.4041C160.996 77.3129 161.032 75.2218 161.095 73.1308L161.102 72.8868L160.844 72.8787C157.462 72.7736 154.08 72.7086 150.698 72.6836L150.256 72.6799L150.251 73.1308C150.229 75.2477 150.203 77.3735 150.215 79.4963C150.228 81.6172 150.246 83.7408 150.3 85.842C150.353 87.9416 150.383 90.0486 150.458 92.1134L150.665 98.2558ZM150.73 98.1908L150.938 91.7867C151.012 89.6694 151.042 87.5947 151.095 85.5123C151.149 83.4314 151.168 81.3729 151.18 79.3118C151.192 77.2526 151.166 75.1963 151.144 73.1308L150.698 73.578C154.08 73.5497 157.462 73.4847 160.844 73.3829L160.592 73.1308C160.652 75.222 160.688 77.3131 160.699 79.4041C160.712 81.4949 160.682 83.5859 160.608 85.677C160.552 87.7682 160.465 89.859 160.442 91.9502C160.414 94.0411 160.454 96.1323 160.476 98.2231L160.844 97.8545C159.197 97.8626 157.548 97.9211 155.87 97.9824L150.73 98.1908Z" fill="#114C5F"/>
<path d="M140.519 98.2558L145.53 98.4513C147.236 98.4961 148.962 98.5759 150.698 98.5806L151.052 98.5818L151.055 98.2231C151.069 95.824 151.129 93.4248 151.106 91.0257C151.093 88.6269 151.008 86.2278 150.948 83.8286C150.869 81.4295 150.848 79.0303 150.84 76.6312L150.87 73.0327L150.949 69.4342L150.955 69.1891L150.698 69.1822C147.316 69.0907 143.934 69.0216 140.551 68.9973L140.118 68.994L140.115 69.4342C140.099 71.8576 140.057 74.2928 140.07 76.7235C140.067 79.1561 140.103 81.5835 140.146 83.997C140.202 86.4039 140.23 88.8206 140.305 91.1937L140.519 98.2558ZM140.584 98.1908L140.798 90.8585L140.957 83.6603C141 81.2755 141.036 78.9047 141.033 76.5394C141.046 74.1718 141.004 71.8087 140.988 69.4341L140.552 69.871C143.934 69.8464 147.316 69.7773 150.698 69.6858L150.446 69.4341L150.526 73.0327L150.555 76.6312C150.547 79.0303 150.526 81.4295 150.448 83.8286C150.387 86.2278 150.302 88.6269 150.289 91.0257C150.267 93.4248 150.326 95.8239 150.341 98.2231L150.698 97.8655C149.051 97.8703 147.395 97.9501 145.719 97.9953L140.584 98.1908Z" fill="#114C5F"/>
<path d="M130.373 98.2558C132 98.3253 133.67 98.4124 135.379 98.4638C137.083 98.5255 138.816 98.5836 140.552 98.5917L140.916 98.5935L140.92 98.2231C140.942 96.1322 140.982 94.0411 140.953 91.9502C140.93 89.859 140.843 87.7682 140.787 85.677C140.712 83.5861 140.682 81.4951 140.696 79.4041C140.704 77.3129 140.739 75.2218 140.803 73.1308L140.81 72.8868L140.552 72.8787C137.17 72.7736 133.787 72.7086 130.405 72.6836L129.964 72.6799L129.959 73.1308C129.937 75.2477 129.911 77.3735 129.923 79.4963C129.935 81.6172 129.954 83.7408 130.008 85.842C130.061 87.9416 130.091 90.0486 130.166 92.1134L130.373 98.2558ZM130.438 98.1908L130.645 91.7867C130.72 89.6694 130.75 87.5947 130.803 85.5123C130.857 83.4314 130.875 81.3729 130.888 79.3118C130.9 77.2526 130.874 75.1963 130.852 73.1308L130.405 73.578C133.787 73.5497 137.17 73.4847 140.552 73.3829L140.3 73.1308C140.36 75.222 140.399 77.3129 140.407 79.4041C140.42 81.4949 140.39 83.5859 140.316 85.677C140.26 87.7682 140.173 89.859 140.15 91.9502C140.121 94.0411 140.161 96.1323 140.183 98.2231L140.552 97.8545C138.905 97.8626 137.256 97.9211 135.578 97.9824L130.438 98.1908ZM140.445 159.489C139.001 155.383 137.458 151.319 135.855 147.279C135.058 145.258 134.245 143.243 133.416 141.235L133.262 140.858C133.191 140.693 133.105 140.535 133.003 140.387C132.8 140.081 132.524 139.83 132.201 139.655C131.883 139.48 131.531 139.377 131.169 139.352C130.807 139.328 130.444 139.382 130.106 139.513C129.767 139.65 129.461 139.859 129.211 140.125C128.997 140.377 128.823 140.661 128.695 140.966L128 142.439C126.171 146.382 124.434 150.37 122.562 154.291L121.853 155.758C121.753 155.995 121.629 156.221 121.483 156.432C121.338 156.625 121.148 156.779 120.929 156.879C120.712 156.983 120.475 157.038 120.234 157.04C119.994 157.042 119.756 156.991 119.537 156.89C119.319 156.793 119.127 156.643 118.98 156.455C118.831 156.248 118.705 156.025 118.605 155.79C117.635 153.847 116.717 151.876 115.771 149.92C113.914 145.99 112.02 142.079 110.088 138.187L108.638 135.269L107.913 133.809L107.551 133.08C107.48 132.946 107.453 132.864 107.347 132.687C107.256 132.522 107.146 132.368 107.021 132.229C106.764 131.946 106.447 131.725 106.094 131.581C105.74 131.438 105.359 131.375 104.979 131.398C104.598 131.42 104.227 131.528 103.894 131.713C103.56 131.898 103.272 132.156 103.051 132.467C102.948 132.616 102.858 132.773 102.782 132.937L102.611 133.306L102.269 134.046L101.589 135.527C98.0183 143.449 94.5295 151.41 91.2936 159.487L91.4192 159.545C95.4518 151.835 99.2313 144.009 102.929 136.145L103.612 134.666L103.951 133.925L104.121 133.555C104.16 133.473 104.204 133.394 104.255 133.319C104.351 133.189 104.475 133.081 104.617 133.003C104.759 132.925 104.917 132.879 105.078 132.868C105.24 132.857 105.402 132.881 105.554 132.939C105.705 132.996 105.843 133.086 105.956 133.202C106.09 133.36 106.2 133.538 106.283 133.728L106.661 134.45L107.418 135.893L108.93 138.78C110.941 142.631 112.996 146.459 115.097 150.265C116.126 152.179 117.183 154.078 118.187 156.004C118.405 156.562 118.822 157.019 119.357 157.288C119.634 157.413 119.934 157.475 120.238 157.469C120.542 157.464 120.84 157.392 121.113 157.258C121.634 156.973 122.034 156.507 122.236 155.947L122.965 154.49C124.928 150.613 127.026 146.804 129.032 142.949L129.775 141.498C129.861 141.304 129.974 141.122 130.111 140.959C130.236 140.831 130.385 140.731 130.55 140.663C130.72 140.6 130.901 140.574 131.082 140.588C131.263 140.601 131.439 140.654 131.597 140.742C131.754 140.827 131.888 140.948 131.988 141.095C132.041 141.17 132.088 141.249 132.126 141.333L132.286 141.707C133.134 143.708 133.994 145.703 134.867 147.693C136.611 151.673 138.415 155.628 140.317 159.542L140.445 159.489Z" fill="#114C5F"/>
<path d="M150.761 159.489C149.317 155.383 147.774 151.319 146.172 147.279C145.375 145.258 144.561 143.243 143.733 141.235L143.579 140.857C143.508 140.693 143.421 140.535 143.32 140.387C143.116 140.081 142.841 139.83 142.518 139.655C142.2 139.48 141.848 139.377 141.486 139.352C141.124 139.328 140.761 139.382 140.423 139.513C140.084 139.65 139.778 139.859 139.527 140.125C139.313 140.377 139.139 140.661 139.011 140.966L138.316 142.439C136.488 146.382 134.751 150.37 132.879 154.291L132.169 155.758C132.07 155.995 131.946 156.221 131.799 156.432C131.655 156.625 131.465 156.779 131.245 156.879C131.029 156.983 130.791 157.038 130.551 157.04C130.31 157.042 130.072 156.991 129.854 156.89C129.635 156.793 129.444 156.643 129.297 156.455C129.147 156.248 129.021 156.025 128.922 155.79C127.951 153.847 127.033 151.876 126.087 149.92C124.231 145.99 122.336 142.079 120.405 138.187L118.955 135.268L118.23 133.809L117.867 133.079C117.797 132.946 117.769 132.864 117.663 132.687C117.572 132.522 117.463 132.368 117.337 132.228C117.08 131.946 116.764 131.725 116.41 131.581C116.057 131.437 115.676 131.375 115.295 131.398C114.915 131.42 114.544 131.528 114.21 131.713C113.877 131.898 113.589 132.156 113.367 132.467C113.265 132.616 113.175 132.773 113.098 132.937L112.928 133.306L112.586 134.046L111.906 135.527C108.335 143.449 104.846 151.409 101.61 159.487L101.736 159.545C105.768 151.835 109.548 144.009 113.245 136.145L113.928 134.666L114.268 133.925L114.438 133.555C114.476 133.473 114.521 133.394 114.571 133.319C114.668 133.188 114.792 133.081 114.934 133.003C115.076 132.925 115.233 132.879 115.395 132.868C115.557 132.857 115.719 132.881 115.871 132.938C116.022 132.996 116.159 133.086 116.273 133.201C116.407 133.36 116.517 133.538 116.6 133.728L116.978 134.45L117.734 135.893L119.247 138.78C121.257 142.631 123.313 146.459 125.413 150.265C126.443 152.179 127.5 154.078 128.504 156.004C128.722 156.562 129.138 157.019 129.673 157.288C129.95 157.412 130.251 157.475 130.555 157.469C130.858 157.464 131.157 157.392 131.429 157.258C131.951 156.973 132.35 156.506 132.553 155.947L133.281 154.49C135.244 150.613 137.342 146.804 139.349 142.949L140.091 141.498C140.178 141.304 140.291 141.122 140.427 140.959C140.552 140.831 140.702 140.731 140.867 140.663C141.037 140.6 141.218 140.574 141.399 140.588C141.58 140.601 141.755 140.654 141.914 140.742C142.07 140.827 142.204 140.948 142.305 141.094C142.358 141.17 142.404 141.249 142.443 141.333L142.603 141.707C143.451 143.708 144.311 145.703 145.183 147.693C146.928 151.673 148.731 155.628 150.634 159.542L150.761 159.489Z" fill="#114C5F"/>
<path d="M118.579 156.256C118.734 156.56 118.97 156.814 119.261 156.991C119.552 157.167 119.886 157.26 120.226 157.257C120.566 157.255 120.899 157.157 121.187 156.976C121.475 156.795 121.708 156.537 121.858 156.232L125.306 149.221L128.896 156.256C129.051 156.56 129.287 156.814 129.578 156.991C129.868 157.167 130.203 157.26 130.543 157.257C130.883 157.255 131.216 157.157 131.504 156.976C131.792 156.795 132.024 156.537 132.174 156.232L135.873 148.712L140.381 159.516H101.673L110.48 140.387L118.579 156.256ZM428.92 200.533L426.109 220.347C426.155 220.355 426.2 220.355 426.237 220.362C426.523 220.393 426.808 220.415 427.094 220.43H427.184C431.396 220.644 435.571 219.539 439.128 217.27C442.686 215 445.45 211.678 447.037 207.765C447.044 207.727 447.059 207.697 447.067 207.667C447.172 207.411 447.277 207.148 447.368 206.884C447.413 206.764 447.45 206.636 447.488 206.516C447.548 206.335 447.608 206.147 447.668 205.958C447.766 205.642 447.848 205.319 447.931 204.995C448.021 204.634 448.096 204.265 448.172 203.904C448.187 203.821 448.194 203.739 448.209 203.656C448.262 203.362 448.307 203.076 448.344 202.783C448.359 202.708 448.367 202.632 448.374 202.557C448.412 202.248 448.442 201.947 448.465 201.639C448.471 201.584 448.473 201.529 448.472 201.473C448.495 201.142 448.51 200.803 448.517 200.472V200.39C448.551 198.136 448.208 195.893 447.503 193.752C447.488 193.714 447.473 193.669 447.458 193.632C447.36 193.331 447.255 193.037 447.142 192.751L447.052 192.525C446.947 192.269 446.834 192.014 446.721 191.758C446.684 191.668 446.646 191.585 446.609 191.502C446.481 191.238 446.353 190.983 446.225 190.727C446.188 190.659 446.15 190.591 446.12 190.524C445.947 190.2 445.767 189.884 445.579 189.575C445.549 189.53 445.519 189.485 445.489 189.432C445.331 189.177 445.166 188.92 445.001 188.672C444.933 188.574 444.865 188.484 444.798 188.394C444.768 188.349 444.738 188.304 444.708 188.266L428.92 200.533ZM428.334 199.065L443.783 187.069C440.451 183.073 435.714 180.511 430.55 179.912C425.386 179.313 420.189 180.722 416.033 183.848L428.334 199.065ZM423.344 219.866C423.765 219.971 424.193 220.062 424.614 220.137L427.417 200.337L414.853 184.796C414.65 184.977 414.455 185.158 414.259 185.346C414.214 185.384 414.177 185.421 414.139 185.459C413.763 185.82 413.395 186.196 413.049 186.588C413.049 186.589 413.049 186.59 413.049 186.591C413.048 186.592 413.048 186.592 413.047 186.593C413.046 186.594 413.046 186.594 413.045 186.595C413.044 186.595 413.043 186.595 413.042 186.595C412.319 187.409 411.663 188.279 411.081 189.199C411.073 189.207 411.073 189.214 411.066 189.222C410.487 190.133 409.982 191.089 409.555 192.081C409.547 192.095 409.542 192.111 409.54 192.127C409.337 192.593 409.165 193.067 408.999 193.549C408.969 193.632 408.939 193.714 408.916 193.797C408.759 194.271 408.616 194.753 408.496 195.242C407.856 197.835 407.733 200.529 408.133 203.17C408.533 205.811 409.448 208.348 410.827 210.634C412.206 212.921 414.021 214.913 416.169 216.497C418.316 218.081 420.755 219.226 423.344 219.866Z" fill="#114C5F"/>
<path d="M444.723 188.251L444.354 187.777C444.474 187.935 444.595 188.1 444.707 188.266L444.723 188.251ZM443.798 187.054L443.783 187.069C443.941 187.257 444.099 187.453 444.257 187.649L443.798 187.054ZM426.004 220.34C425.839 220.317 425.674 220.302 425.508 220.28L426.109 220.362V220.347C426.079 220.347 426.042 220.34 426.004 220.34ZM425.17 220.227C424.982 220.204 424.802 220.174 424.614 220.137V220.152L425.17 220.227ZM416.018 183.833L415.432 184.315C415.627 184.157 415.83 183.999 416.033 183.848L416.018 183.833ZM414.845 184.789L414.853 184.796C415.033 184.638 415.221 184.48 415.409 184.33L414.845 184.789Z" fill="white"/>
</svg>
