<svg width="60" height="60" viewBox="0 0 60 60" fill="none" xmlns="http://www.w3.org/2000/svg">
<path d="M49.2032 41.2539C48.7062 41.0031 48.0229 41.0031 47.6501 41.0031H46.594C46.4697 41.0031 46.4076 41.0658 46.4076 41.1912V44.3887C46.4076 44.5141 46.4697 44.5768 46.594 44.5768H47.7744C48.1471 44.5768 48.7684 44.5768 49.2654 44.326C50.0109 44.0125 50.1351 43.2602 50.1351 42.7586C50.1351 42.0063 49.8245 41.5047 49.2032 41.2539Z" fill="#F2E6CF"/>
<path d="M49.1411 0H10.3128C4.59727 0 0 4.6395 0 10.4075V49.5925C0 55.3605 4.59727 60 10.3128 60H49.1411C54.8566 60 59.4539 55.3605 59.4539 49.5925V10.4075C59.4539 4.6395 54.7945 0 49.1411 0ZM44.4196 19.2477C44.4196 19.1223 44.4817 19.0596 44.606 19.0596H48.2092C48.3335 19.0596 48.3956 19.1223 48.3956 19.2477V30.9718C48.3956 31.0972 48.4577 31.1599 48.582 31.1599H53.4277C53.552 31.1599 53.6141 31.2853 53.6141 31.348L53.3035 34.6082C53.3035 34.7335 53.2414 34.7962 53.1171 34.7962H44.606C44.4817 34.7962 44.4196 34.7335 44.4196 34.6082V19.2477ZM38.8283 19.2477V30.9718C38.8283 31.0972 38.8904 31.1599 39.0147 31.1599H43.8605C43.9847 31.1599 44.0468 31.2853 44.0468 31.348L43.7362 34.6082C43.7362 34.7335 43.6741 34.7962 43.5498 34.7962H35.1008C34.9765 34.7962 34.9144 34.7335 34.9144 34.6082V19.2477C34.9144 19.1223 34.9765 19.0596 35.1008 19.0596H38.7041C38.7662 19.0596 38.8283 19.1223 38.8283 19.2477ZM15.2828 33.1034C14.4131 34.4201 12.9221 35.047 10.8098 35.047C9.07029 35.047 7.70354 34.6082 6.77166 33.7304C6.33678 33.3542 5.77765 32.5392 5.46703 31.2853C5.46703 31.1599 5.52915 31.0972 5.59128 31.0345L9.13242 30.2821C9.25667 30.2821 9.31879 30.3448 9.38092 30.4075C9.69155 31.5361 10.5613 31.5987 10.8098 31.5987C11.6796 31.5987 12.2387 30.8464 12.2387 30.1567C12.2387 29.4044 11.6796 29.1536 9.50517 28.2132L9.31879 28.1505C8.32479 27.7116 5.59128 26.5831 5.59128 23.6364C5.59128 20.5016 8.32479 18.8088 10.9341 18.8088C11.4311 18.8088 12.3629 18.8715 13.2327 19.2477C13.9161 19.5611 15.2828 20.3135 15.5934 22.0063C15.5934 22.1317 15.5313 22.1944 15.4692 22.1944L12.1766 23.0094C12.1144 23.0094 11.9902 23.0094 11.9902 22.884C11.8038 22.5078 11.4932 22.1944 10.8719 22.1944C10.2507 22.1944 9.62942 22.6332 9.62942 23.3856C9.62942 24.0752 10.0643 24.2633 12.7357 25.5172C15.2828 26.7085 16.2768 27.9624 16.2768 30.0313C16.1526 30.6583 16.0283 31.9749 15.2828 33.1034ZM29.3231 34.7962H24.9744C24.9122 34.7962 24.8501 34.7335 24.788 34.6708L21.1226 28.5893C20.9983 28.4013 20.7498 28.4639 20.7498 28.7147V34.6082C20.7498 34.7335 20.6877 34.7962 20.5635 34.7962H17.0223C16.8981 34.7962 16.836 34.7335 16.836 34.6082V19.3103C16.836 19.185 16.8981 19.1223 17.0223 19.1223H20.5635C20.6877 19.1223 20.7498 19.185 20.7498 19.3103V25.0784C20.7498 25.2665 20.9983 25.3292 21.1226 25.2038L24.9122 19.185C24.9744 19.1223 25.0365 19.1223 25.0986 19.1223H28.764C28.8883 19.1223 29.0125 19.3103 28.9504 19.4357L24.2289 26.5831C24.1667 26.6458 24.1667 26.7712 24.2289 26.8339L29.4474 34.4828C29.5716 34.6082 29.4474 34.7962 29.3231 34.7962ZM41.4997 46.8339C41.4997 49.5298 40.8784 50.6583 39.9466 51.6614C38.8283 52.79 37.5237 53.3542 35.722 53.3542C34.8523 53.3542 32.8022 53.1661 31.3733 51.6614C30.0065 50.1567 29.8201 48.9655 29.8201 46.8339V13.2915H27.9564L29.8823 9.90596L31.8081 6.52038L33.734 9.90596L35.6599 13.2915H33.7962V41.3793V41.442V46.8339C33.7962 47.3981 33.7962 48.0251 34.0447 48.5893C34.2932 49.2163 34.9765 49.5298 35.722 49.5298C36.4675 49.5298 37.1509 49.279 37.3373 48.7147C37.5858 48.1505 37.5858 47.4608 37.5858 46.8966V37.6176C37.5858 37.4922 37.6479 37.4295 37.7722 37.4295H41.3754C41.4997 37.4295 41.5618 37.4922 41.5618 37.6176V46.8339H41.4997ZM52.3095 46.8339C51.3155 47.7116 50.3215 48.2132 47.8986 48.2132H46.6561C46.5318 48.2132 46.4697 48.2759 46.4697 48.4013V52.9154C46.4697 53.0408 46.4076 53.1034 46.2833 53.1034H42.6801C42.5558 53.1034 42.4937 53.0408 42.4937 52.9154V37.5549C42.4937 37.4295 42.5558 37.3668 42.6801 37.3668H47.4637C50.2594 37.3668 51.3155 37.8056 52.1231 38.4953C53.2414 39.4984 53.9248 41.0031 53.9248 42.6332C53.9248 44.326 53.3035 46.0188 52.3095 46.8339Z" fill="#F2E6CF"/>
</svg>
