<svg width="19" height="18" viewBox="0 0 19 18" fill="none" xmlns="http://www.w3.org/2000/svg">
<path d="M18.0039 0.0146484V8.11273H15.3045V4.61706L7.75978 12.1618L5.85673 10.2587L13.4014 2.71401H9.90577V0.0146484H18.0039ZM12.6051 13.5114C12.6051 13.8694 12.4629 14.2127 12.2098 14.4658C11.9567 14.7189 11.6134 14.8611 11.2554 14.8611H4.50705C4.14909 14.8611 3.80579 14.7189 3.55268 14.4658C3.29957 14.2127 3.15737 13.8694 3.15737 13.5114V6.76305C3.15737 6.40509 3.29957 6.0618 3.55268 5.80868C3.80579 5.55557 4.14909 5.41337 4.50705 5.41337H7.20641V2.71401H4.50705C3.43318 2.71401 2.40329 3.1406 1.64394 3.89995C0.884602 4.65929 0.458008 5.68918 0.458008 6.76305V13.5114C0.458008 14.5853 0.884602 15.6152 1.64394 16.3746C2.40329 17.1339 3.43318 17.5605 4.50705 17.5605H11.2554C12.3293 17.5605 13.3592 17.1339 14.1186 16.3746C14.8779 15.6152 15.3045 14.5853 15.3045 13.5114V10.8121H12.6051V13.5114Z" fill="#F2E6CF"/>
</svg>
