<svg width="17" height="16" viewBox="0 0 17 16" fill="none" xmlns="http://www.w3.org/2000/svg">
<g clip-path="url(#clip0_15_6886)">
<path d="M12.5 4H9.84375V3.32812C9.84375 2.96354 9.71354 2.65104 9.45312 2.39062C9.19271 2.13021 8.875 2 8.5 2H5.84375C5.46875 2 5.15104 2.13021 4.89062 2.39062C4.63021 2.65104 4.5 2.96354 4.5 3.32812V4H1.84375C1.46875 4 1.15104 4.13021 0.890625 4.39062C0.630208 4.65104 0.5 4.96354 0.5 5.32812V7.59375C0.5 7.84375 0.5625 8.06771 0.6875 8.26562C0.8125 8.46354 0.973958 8.625 1.17188 8.75V12.6719C1.17188 13.0365 1.30208 13.349 1.5625 13.6094C1.82292 13.8698 2.13542 14 2.5 14H11.8438C12.2083 14 12.5208 13.8698 12.7812 13.6094C13.0417 13.349 13.1719 13.0365 13.1719 12.6719V8.73438C13.3698 8.60938 13.5312 8.44531 13.6562 8.24219C13.7812 8.03906 13.8438 7.81771 13.8438 7.57812V5.32812C13.8438 4.96354 13.7135 4.65104 13.4531 4.39062C13.1927 4.13021 12.875 4 12.5 4ZM5.84375 3.32812H8.5V4H5.84375V3.32812ZM1.84375 5.32812H12.5V7.59375C12.1042 7.66667 11.6094 7.75 11.0156 7.84375C10.4219 7.9375 9.80729 8.02083 9.17188 8.09375V7.32812C9.17188 7.15104 9.10677 6.9974 8.97656 6.86719C8.84635 6.73698 8.6875 6.67188 8.5 6.67188H5.84375C5.65625 6.67188 5.4974 6.73698 5.36719 6.86719C5.23698 6.9974 5.17188 7.15104 5.17188 7.32812V8.0625C4.53646 8 3.92188 7.92188 3.32812 7.82812C2.73438 7.73438 2.23958 7.65104 1.84375 7.57812V5.32812ZM7.84375 8V9.32812H6.5V8H7.84375ZM11.8438 12.6719H2.5V9.04688C2.89583 9.10938 3.32292 9.17448 3.78125 9.24219C4.23958 9.3099 4.70312 9.36458 5.17188 9.40625V10C5.17188 10.1875 5.23698 10.3464 5.36719 10.4766C5.4974 10.6068 5.65625 10.6719 5.84375 10.6719H8.5C8.6875 10.6719 8.84635 10.6068 8.97656 10.4766C9.10677 10.3464 9.17188 10.1875 9.17188 10V9.40625C9.64062 9.36458 10.1042 9.3099 10.5625 9.24219C11.0208 9.17448 11.4479 9.10938 11.8438 9.04688V12.6719Z" fill="#767676"/>
</g>
<defs>
<clipPath id="clip0_15_6886">
<rect width="16" height="16" fill="white" transform="matrix(1 0 0 -1 0.5 16)"/>
</clipPath>
</defs>
</svg>
