<svg width="44" height="44" viewBox="0 0 44 44" fill="none" xmlns="http://www.w3.org/2000/svg">
<g filter="url(#filter0_d_123_431)">
<path d="M35.3609 8.9722H27.4088V5.39122C27.4088 3.46008 26.0092 2.11108 23.907 2.11108H19.612C17.4412 2.11108 16.325 3.49017 16.325 5.3907V8.9722H8.37242C7.40216 8.97234 6.47167 9.35783 5.78559 10.0439C5.09951 10.73 4.71401 11.6605 4.71387 12.6308V32.2303C4.71401 33.2006 5.09949 34.1312 5.78556 34.8173C6.47162 35.5035 7.40211 35.8891 8.37242 35.8894H35.3609C36.3312 35.8893 37.2618 35.5037 37.9479 34.8175C38.634 34.1313 39.0194 33.2007 39.0194 32.2303L39.02 12.6308C39.0198 11.6604 38.6342 10.7298 37.948 10.0437C37.2618 9.35763 36.3312 8.9722 35.3609 8.9722ZM18.4361 5.39122C18.4361 4.25545 19.4441 4.2222 19.6115 4.2222H23.3777C24.0443 4.2222 25.2972 4.42486 25.2972 5.3907V8.9722H18.4361V5.39122ZM35.3609 33.7778H8.37242C7.96202 33.7778 7.56842 33.6147 7.27821 33.3245C6.98801 33.0343 6.82498 32.6407 6.82498 32.2303V22.6944H8.47692C8.6169 22.6944 8.75114 22.6388 8.85012 22.5398C8.9491 22.4409 9.0047 22.3066 9.0047 22.1666C9.0047 22.0267 8.9491 21.8924 8.85012 21.7934C8.75114 21.6945 8.6169 21.6389 8.47692 21.6389H6.82498V12.6308C6.82498 12.2203 6.98801 11.8267 7.27821 11.5365C7.56842 11.2463 7.96202 11.0833 8.37242 11.0833H35.3609C35.7713 11.0833 36.1649 11.2463 36.4551 11.5365C36.7453 11.8267 36.9083 12.2203 36.9083 12.6308L36.9088 21.6389H25.2967V21.148C25.2967 20.5785 25.0704 20.0322 24.6677 19.6295C24.2649 19.2268 23.7187 19.0005 23.1491 19.0005H20.5841C20.3021 19.0004 20.0228 19.0559 19.7622 19.1638C19.5015 19.2717 19.2647 19.4299 19.0653 19.6293C18.8658 19.8287 18.7076 20.0655 18.5996 20.3261C18.4917 20.5867 18.4361 20.866 18.4361 21.148V21.6389H11.6441C11.5041 21.6389 11.3699 21.6945 11.2709 21.7934C11.1719 21.8924 11.1163 22.0267 11.1163 22.1666C11.1163 22.3066 11.1719 22.4409 11.2709 22.5398C11.3699 22.6388 11.5041 22.6944 11.6441 22.6944H18.4361V23.713C18.4361 24.2827 18.6624 24.8291 19.0652 25.2319C19.4681 25.6348 20.0144 25.8611 20.5841 25.8611H23.1491C23.7188 25.8611 24.2652 25.6348 24.6681 25.2319C25.0709 24.8291 25.2972 24.2827 25.2972 23.713L25.2967 22.6944H36.9088V32.2303C36.9088 32.4336 36.8688 32.6348 36.791 32.8226C36.7132 33.0104 36.5992 33.181 36.4554 33.3247C36.3117 33.4684 36.141 33.5824 35.9532 33.6601C35.7654 33.7378 35.5641 33.7778 35.3609 33.7778ZM24.2416 21.148L24.2411 23.7125C24.2411 24.0022 24.1261 24.28 23.9213 24.4848C23.7166 24.6897 23.4388 24.8049 23.1491 24.805H20.5841C20.2944 24.805 20.0165 24.6899 19.8116 24.485C19.6067 24.2801 19.4916 24.0023 19.4916 23.7125V21.148C19.4916 20.5448 19.9804 20.0561 20.5841 20.0561H23.1491C23.7524 20.0561 24.2416 20.5443 24.2416 21.148Z" fill="#114C5F"/>
</g>
<defs>
<filter id="filter0_d_123_431" x="-1.1333" y="0" width="46" height="46" filterUnits="userSpaceOnUse" color-interpolation-filters="sRGB">
<feFlood flood-opacity="0" result="BackgroundImageFix"/>
<feColorMatrix in="SourceAlpha" type="matrix" values="0 0 0 0 0 0 0 0 0 0 0 0 0 0 0 0 0 0 127 0" result="hardAlpha"/>
<feOffset dy="4"/>
<feGaussianBlur stdDeviation="2"/>
<feComposite in2="hardAlpha" operator="out"/>
<feColorMatrix type="matrix" values="0 0 0 0 0 0 0 0 0 0 0 0 0 0 0 0 0 0 0.25 0"/>
<feBlend mode="normal" in2="BackgroundImageFix" result="effect1_dropShadow_123_431"/>
<feBlend mode="normal" in="SourceGraphic" in2="effect1_dropShadow_123_431" result="shape"/>
</filter>
</defs>
</svg>
