<svg width="39" height="38" viewBox="0 0 39 38" fill="none" xmlns="http://www.w3.org/2000/svg">
<path d="M33.3609 8.9722H25.4088V5.39122C25.4088 3.46008 24.0092 2.11108 21.907 2.11108H17.612C15.4412 2.11108 14.325 3.49017 14.325 5.3907V8.9722H6.37242C5.40216 8.97234 4.47167 9.35783 3.78559 10.0439C3.09951 10.73 2.71401 11.6605 2.71387 12.6308V32.2303C2.71401 33.2006 3.09949 34.1312 3.78556 34.8173C4.47162 35.5035 5.40211 35.8891 6.37242 35.8894H33.3609C34.3312 35.8893 35.2618 35.5037 35.9479 34.8175C36.634 34.1313 37.0194 33.2007 37.0194 32.2303L37.02 12.6308C37.0198 11.6604 36.6342 10.7298 35.948 10.0437C35.2618 9.35763 34.3312 8.9722 33.3609 8.9722ZM16.4361 5.39122C16.4361 4.25545 17.4441 4.2222 17.6115 4.2222H21.3777C22.0443 4.2222 23.2972 4.42486 23.2972 5.3907V8.9722H16.4361V5.39122ZM33.3609 33.7778H6.37242C5.96202 33.7778 5.56842 33.6147 5.27821 33.3245C4.98801 33.0343 4.82498 32.6407 4.82498 32.2303V22.6944H6.47692C6.6169 22.6944 6.75114 22.6388 6.85012 22.5398C6.9491 22.4409 7.0047 22.3066 7.0047 22.1666C7.0047 22.0267 6.9491 21.8924 6.85012 21.7934C6.75114 21.6945 6.6169 21.6389 6.47692 21.6389H4.82498V12.6308C4.82498 12.2203 4.98801 11.8267 5.27821 11.5365C5.56842 11.2463 5.96202 11.0833 6.37242 11.0833H33.3609C33.7713 11.0833 34.1649 11.2463 34.4551 11.5365C34.7453 11.8267 34.9083 12.2203 34.9083 12.6308L34.9088 21.6389H23.2967V21.148C23.2967 20.5785 23.0704 20.0322 22.6677 19.6295C22.2649 19.2268 21.7187 19.0005 21.1491 19.0005H18.5841C18.3021 19.0004 18.0228 19.0559 17.7622 19.1638C17.5015 19.2717 17.2647 19.4299 17.0653 19.6293C16.8658 19.8287 16.7076 20.0655 16.5996 20.3261C16.4917 20.5867 16.4361 20.866 16.4361 21.148V21.6389H9.64412C9.50414 21.6389 9.3699 21.6945 9.27092 21.7934C9.17194 21.8924 9.11634 22.0267 9.11634 22.1666C9.11634 22.3066 9.17194 22.4409 9.27092 22.5398C9.3699 22.6388 9.50414 22.6944 9.64412 22.6944H16.4361V23.713C16.4361 24.2827 16.6624 24.8291 17.0652 25.2319C17.4681 25.6348 18.0144 25.8611 18.5841 25.8611H21.1491C21.7188 25.8611 22.2652 25.6348 22.6681 25.2319C23.0709 24.8291 23.2972 24.2827 23.2972 23.713L23.2967 22.6944H34.9088V32.2303C34.9088 32.4336 34.8688 32.6348 34.791 32.8226C34.7132 33.0104 34.5992 33.181 34.4554 33.3247C34.3117 33.4684 34.141 33.5824 33.9532 33.6601C33.7654 33.7378 33.5641 33.7778 33.3609 33.7778ZM22.2416 21.148L22.2411 23.7125C22.2411 24.0022 22.1261 24.28 21.9213 24.4848C21.7166 24.6897 21.4388 24.8049 21.1491 24.805H18.5841C18.2944 24.805 18.0165 24.6899 17.8116 24.485C17.6067 24.2801 17.4916 24.0023 17.4916 23.7125V21.148C17.4916 20.5448 17.9804 20.0561 18.5841 20.0561H21.1491C21.7524 20.0561 22.2416 20.5443 22.2416 21.148Z" fill="#114C5F"/>
</svg>
