<svg width="12" height="14" viewBox="0 0 12 14" fill="none" xmlns="http://www.w3.org/2000/svg">
<path d="M5.82812 6.32812C5.54688 6.32812 5.3099 6.23177 5.11719 6.03906C4.92448 5.84635 4.82812 5.60938 4.82812 5.32812C4.82812 5.05729 4.92448 4.82292 5.11719 4.625C5.3099 4.42708 5.54688 4.32812 5.82812 4.32812C6.10938 4.32812 6.34635 4.42708 6.53906 4.625C6.73177 4.82292 6.82812 5.05729 6.82812 5.32812C6.82812 5.60938 6.73177 5.84635 6.53906 6.03906C6.34635 6.23177 6.10938 6.32812 5.82812 6.32812ZM5.82812 3C5.18229 3 4.63281 3.22656 4.17969 3.67969C3.72656 4.13281 3.5 4.68229 3.5 5.32812C3.5 5.97396 3.72656 6.52604 4.17969 6.98438C4.63281 7.44271 5.18229 7.67188 5.82812 7.67188C6.47396 7.67188 7.02344 7.44271 7.47656 6.98438C7.92969 6.52604 8.15625 5.97396 8.15625 5.32812C8.15625 4.68229 7.92969 4.13281 7.47656 3.67969C7.02344 3.22656 6.47396 3 5.82812 3ZM5.82812 12.0938C5.54688 11.8333 5.18229 11.4635 4.73438 10.9844C4.27604 10.5156 3.83333 9.98698 3.40625 9.39844C2.97917 8.8099 2.60938 8.1875 2.29688 7.53125C1.98438 6.875 1.82812 6.23438 1.82812 5.60938C1.82812 5.05729 1.93229 4.54167 2.14062 4.0625C2.34896 3.57292 2.63542 3.14583 3 2.78125C3.36458 2.41667 3.78646 2.13021 4.26562 1.92188C4.75521 1.71354 5.27604 1.60938 5.82812 1.60938C6.38021 1.60938 6.90104 1.71354 7.39062 1.92188C7.86979 2.13021 8.29167 2.41667 8.65625 2.78125C9.02083 3.14583 9.30729 3.57292 9.51562 4.0625C9.72396 4.54167 9.82812 5.05729 9.82812 5.60938C9.82812 6.22396 9.67188 6.85938 9.35938 7.51562C9.04688 8.17188 8.67708 8.79427 8.25 9.38281C7.82292 9.97135 7.38021 10.5052 6.92188 10.9844C6.47396 11.4635 6.10938 11.8333 5.82812 12.0938ZM5.82812 0.328125C5.09896 0.328125 4.41146 0.46875 3.76562 0.75C3.11979 1.02083 2.55729 1.39583 2.07812 1.875C1.59896 2.35417 1.21354 2.91146 0.921875 3.54688C0.640625 4.19271 0.5 4.88021 0.5 5.60938C0.5 6.52604 0.744792 7.44271 1.23438 8.35938C1.72396 9.28646 2.26823 10.1224 2.86719 10.8672C3.46615 11.612 4.02604 12.2292 4.54688 12.7188C5.05729 13.1979 5.33854 13.4583 5.39062 13.5C5.45312 13.5521 5.52083 13.5938 5.59375 13.625C5.66667 13.6562 5.74479 13.6719 5.82812 13.6719C5.91146 13.6719 5.98958 13.6562 6.0625 13.625C6.13542 13.5938 6.20312 13.5521 6.26562 13.5C6.31771 13.4583 6.60417 13.1979 7.125 12.7188C7.64583 12.2292 8.20573 11.612 8.80469 10.8672C9.40365 10.1224 9.94271 9.28646 10.4219 8.35938C10.9115 7.44271 11.1562 6.52604 11.1562 5.60938C11.1562 4.88021 11.0156 4.19792 10.7344 3.5625C10.4427 2.91667 10.0573 2.35417 9.57812 1.875C9.09896 1.39583 8.53646 1.02083 7.89062 0.75C7.24479 0.46875 6.55729 0.328125 5.82812 0.328125Z" fill="#767676"/>
</svg>
