<svg width="50" height="50" viewBox="0 0 50 50" fill="none" xmlns="http://www.w3.org/2000/svg">
<path d="M42.7556 11.8056H32.2924V7.09375C32.2924 4.55278 30.4507 2.77778 27.6847 2.77778H22.0333C19.1771 2.77778 17.7083 4.59236 17.7083 7.09306V11.8056H7.24445C5.96778 11.8057 4.74346 12.313 3.84072 13.2157C2.93798 14.1185 2.43074 15.3428 2.43056 16.6194V42.4083C2.43074 43.6851 2.93795 44.9095 3.84067 45.8123C4.74339 46.7152 5.96772 47.2225 7.24445 47.2229H42.7556C44.0323 47.2227 45.2568 46.7154 46.1595 45.8125C47.0623 44.9096 47.5694 43.6851 47.5694 42.4083L47.5701 16.6194C47.57 15.3427 47.0626 14.1182 46.1597 13.2155C45.2568 12.3127 44.0323 11.8056 42.7556 11.8056ZM20.4861 7.09375C20.4861 5.59931 21.8125 5.55556 22.0326 5.55556H26.9882C27.8653 5.55556 29.5139 5.82222 29.5139 7.09306V11.8056H20.4861V7.09375ZM42.7556 44.4444H7.24445C6.70444 44.4444 6.18654 44.2299 5.8047 43.8481C5.42285 43.4662 5.20834 42.9483 5.20834 42.4083V29.8611H7.38195C7.56612 29.8611 7.74276 29.7879 7.87299 29.6577C8.00323 29.5275 8.07639 29.3508 8.07639 29.1667C8.07639 28.9825 8.00323 28.8059 7.87299 28.6756C7.74276 28.5454 7.56612 28.4722 7.38195 28.4722H5.20834V16.6194C5.20834 16.0794 5.42285 15.5615 5.8047 15.1797C6.18654 14.7979 6.70444 14.5833 7.24445 14.5833H42.7556C43.2956 14.5833 43.8135 14.7979 44.1953 15.1797C44.5772 15.5615 44.7917 16.0794 44.7917 16.6194L44.7924 28.4722H29.5132V27.8264C29.5132 27.077 29.2155 26.3582 28.6856 25.8283C28.1556 25.2984 27.4369 25.0007 26.6875 25.0007H23.3125C22.9414 25.0006 22.5739 25.0736 22.2309 25.2156C21.888 25.3576 21.5765 25.5657 21.314 25.8281C21.0515 26.0905 20.8433 26.402 20.7013 26.7449C20.5592 27.0878 20.4861 27.4553 20.4861 27.8264V28.4722H11.5493C11.3651 28.4722 11.1885 28.5454 11.0583 28.6756C10.928 28.8059 10.8549 28.9825 10.8549 29.1667C10.8549 29.3508 10.928 29.5275 11.0583 29.6577C11.1885 29.7879 11.3651 29.8611 11.5493 29.8611H20.4861V31.2014C20.4861 31.951 20.7839 32.6699 21.3139 33.1999C21.844 33.73 22.5629 34.0278 23.3125 34.0278H26.6875C27.4371 34.0278 28.156 33.73 28.6861 33.1999C29.2161 32.6699 29.5139 31.951 29.5139 31.2014L29.5132 29.8611H44.7924V42.4083C44.7924 42.6758 44.7397 42.9406 44.6373 43.1877C44.5349 43.4348 44.3849 43.6592 44.1958 43.8483C44.0066 44.0374 43.7821 44.1874 43.535 44.2897C43.2878 44.3919 43.023 44.4445 42.7556 44.4444ZM28.125 27.8264L28.1243 31.2007C28.1243 31.5818 27.973 31.9474 27.7035 32.2169C27.4341 32.4865 27.0686 32.638 26.6875 32.6382H23.3125C22.9313 32.6382 22.5656 32.4867 22.296 32.2172C22.0265 31.9476 21.875 31.5819 21.875 31.2007V27.8264C21.875 27.0326 22.5181 26.3896 23.3125 26.3896H26.6875C27.4813 26.3896 28.125 27.0319 28.125 27.8264Z" fill="#F2E6CF"/>
</svg>
