<svg width="50" height="50" viewBox="0 0 50 50" fill="none" xmlns="http://www.w3.org/2000/svg">
<g clip-path="url(#clip0_6_26)">
<path d="M48.7984 20.3125C48.5082 20.0217 48.1634 19.791 47.7839 19.6336C47.4044 19.4762 46.9976 19.3952 46.5867 19.3952C46.1759 19.3952 45.769 19.4762 45.3895 19.6336C45.01 19.791 44.6652 20.0217 44.375 20.3125L42.8125 21.875L37.7844 26.9031V11.7188C37.7799 11.685 37.7731 11.6516 37.7641 11.6187C37.7601 11.5861 37.7538 11.5537 37.7453 11.5219C37.7149 11.389 37.6496 11.2666 37.5562 11.1672L26.6187 0.229687C26.52 0.136002 26.3981 0.0702195 26.2656 0.0390625C26.2343 0.0306324 26.2025 0.0243676 26.1703 0.0203125C26.1364 0.0111582 26.102 0.00437097 26.0672 0L4.19218 0C3.15618 0 2.16261 0.41155 1.43005 1.14411C0.697485 1.87668 0.285934 2.87025 0.285934 3.90625V46.0938C0.285934 47.1298 0.697485 48.1233 1.43005 48.8559C2.16261 49.5885 3.15618 50 4.19218 50H33.8797C34.3927 50 34.9006 49.899 35.3745 49.7027C35.8485 49.5063 36.2791 49.2186 36.6418 48.8559C37.0045 48.4932 37.2923 48.0625 37.4886 47.5886C37.6849 47.1147 37.7859 46.6067 37.7859 46.0938V35.7437L47.2328 26.2969L48.7953 24.7344C49.0861 24.4444 49.3168 24.0999 49.4743 23.7206C49.6319 23.3413 49.7131 22.9348 49.7134 22.5241C49.7137 22.1134 49.633 21.7067 49.476 21.3272C49.319 20.9477 49.0888 20.6029 48.7984 20.3125ZM26.8484 2.66719L35.1187 10.9375H29.1922C28.5706 10.9375 27.9744 10.6906 27.5349 10.251C27.0954 9.81149 26.8484 9.21535 26.8484 8.59375V2.66719ZM26.0937 10.9375H7.31718C7.10998 10.9375 6.91127 10.8552 6.76476 10.7087C6.61824 10.5622 6.53593 10.3635 6.53593 10.1562V7.03125C6.53593 6.82405 6.61824 6.62534 6.76476 6.47882C6.91127 6.33231 7.10998 6.25 7.31718 6.25H25.2859V8.59375C25.2908 9.44246 25.5747 10.266 26.0937 10.9375ZM36.2297 46.0938C36.2297 46.7154 35.9827 47.3115 35.5432 47.751C35.1037 48.1906 34.5075 48.4375 33.8859 48.4375H4.19843C3.57683 48.4375 2.98069 48.1906 2.54115 47.751C2.10161 47.3115 1.85468 46.7154 1.85468 46.0938V3.90625C1.85468 3.28573 2.10075 2.69053 2.53894 2.25117C2.97713 1.81182 3.57167 1.56415 4.19218 1.5625H25.2859V4.6875H7.31718C6.69558 4.6875 6.09944 4.93443 5.6599 5.37397C5.22036 5.81351 4.97343 6.40965 4.97343 7.03125V10.1562C4.97343 10.7779 5.22036 11.374 5.6599 11.8135C6.09944 12.2531 6.69558 12.5 7.31718 12.5H36.2234V28.4672L27.2531 37.4375C27.2179 37.4798 27.1875 37.5259 27.1625 37.575C27.1469 37.6 27.1203 37.6141 27.1078 37.6406L24.8984 42.0594C24.8355 42.1924 24.812 42.3407 24.8308 42.4867C24.8497 42.6326 24.91 42.7701 25.0047 42.8828L24.0328 43.8641C23.9528 43.9351 23.8883 44.0218 23.8431 44.1189C23.798 44.2159 23.7734 44.3212 23.7706 44.4281C23.7679 44.5351 23.7871 44.6415 23.8272 44.7407C23.8672 44.8399 23.9272 44.9298 24.0035 45.0049C24.0797 45.08 24.1706 45.1386 24.2704 45.1771C24.3703 45.2156 24.4769 45.2332 24.5838 45.2288C24.6907 45.2244 24.7956 45.198 24.8919 45.1514C24.9882 45.1048 25.0739 45.0389 25.1437 44.9578L26.0891 44.0016L26.1484 44.0609C26.2643 44.1769 26.4137 44.2535 26.5755 44.2799C26.7373 44.3062 26.9033 44.281 27.05 44.2078L31.4687 41.9969C31.4953 41.9844 31.5094 41.9578 31.5344 41.9422C31.5834 41.9172 31.6295 41.8868 31.6719 41.8516L36.2234 37.3016L36.2297 46.0938ZM28.0266 39.3094L29.8078 41.0906L26.8625 42.5641L26.6516 42.3516V42.3422H26.6422L26.5609 42.2609L28.0266 39.3094ZM36.4641 34.8656L31.1328 40.1953L28.9062 37.9906L43.3625 23.5344L45.5719 25.7437L36.4641 34.8656ZM47.7031 23.6266L46.6906 24.6391L44.4797 22.4281L45.4922 21.4156C45.6374 21.2705 45.8097 21.1553 45.9994 21.0767C46.189 20.9982 46.3923 20.9577 46.5976 20.9577C46.803 20.9577 47.0062 20.9982 47.1959 21.0767C47.3856 21.1553 47.5579 21.2705 47.7031 21.4156C47.8483 21.5608 47.9634 21.7331 48.042 21.9228C48.1206 22.1125 48.161 22.3158 48.161 22.5211C48.161 22.7264 48.1206 22.9297 48.042 23.1194C47.9634 23.309 47.8483 23.4814 47.7031 23.6266ZM13.5672 25H32.3172C32.5244 25 32.7231 24.9177 32.8696 24.7712C33.0161 24.6247 33.0984 24.426 33.0984 24.2188C33.0984 24.0115 33.0161 23.8128 32.8696 23.6663C32.7231 23.5198 32.5244 23.4375 32.3172 23.4375H13.5672C13.36 23.4375 13.1613 23.5198 13.0148 23.6663C12.8682 23.8128 12.7859 24.0115 12.7859 24.2188C12.7859 24.426 12.8682 24.6247 13.0148 24.7712C13.1613 24.9177 13.36 25 13.5672 25ZM13.5672 20.3125H32.3172C32.5244 20.3125 32.7231 20.2302 32.8696 20.0837C33.0161 19.9372 33.0984 19.7385 33.0984 19.5312C33.0984 19.324 33.0161 19.1253 32.8696 18.9788C32.7231 18.8323 32.5244 18.75 32.3172 18.75H13.5672C13.36 18.75 13.1613 18.8323 13.0148 18.9788C12.8682 19.1253 12.7859 19.324 12.7859 19.5312C12.7859 19.7385 12.8682 19.9372 13.0148 20.0837C13.1613 20.2302 13.36 20.3125 13.5672 20.3125ZM21.3797 43.6328C20.7779 43.6481 20.1874 43.4677 19.6969 43.1188C18.9565 42.6382 18.0928 42.3824 17.2102 42.3824C16.3275 42.3824 15.4638 42.6382 14.7234 43.1188C14.2329 43.4677 13.6424 43.6481 13.0406 43.6328C12.4411 43.6491 11.8524 43.471 11.3625 43.125C10.6304 42.6298 9.76342 42.3723 8.87968 42.3875C8.67248 42.3875 8.47377 42.4698 8.32726 42.6163C8.18074 42.7628 8.09843 42.9616 8.09843 43.1688C8.09843 43.3759 8.18074 43.5747 8.32726 43.7212C8.47377 43.8677 8.67248 43.95 8.87968 43.95C9.48044 43.9352 10.0698 44.1156 10.5594 44.4641C11.2915 44.9592 12.1585 45.2167 13.0422 45.2016C13.9267 45.2169 14.7945 44.96 15.5281 44.4656C16.0251 44.1306 16.6108 43.9517 17.2102 43.9517C17.8095 43.9517 18.3952 44.1306 18.8922 44.4656C19.6258 44.96 20.4936 45.2169 21.3781 45.2016C21.5853 45.2016 21.784 45.1193 21.9305 44.9727C22.0771 44.8262 22.1594 44.6275 22.1594 44.4203C22.1594 44.2131 22.0771 44.0144 21.9305 43.8679C21.784 43.7214 21.5853 43.6391 21.3781 43.6391L21.3797 43.6328ZM13.5672 17.1875H32.3172C32.5244 17.1875 32.7231 17.1052 32.8696 16.9587C33.0161 16.8122 33.0984 16.6135 33.0984 16.4062C33.0984 16.199 33.0161 16.0003 32.8696 15.8538C32.7231 15.7073 32.5244 15.625 32.3172 15.625H13.5672C13.36 15.625 13.1613 15.7073 13.0148 15.8538C12.8682 16.0003 12.7859 16.199 12.7859 16.4062C12.7859 16.6135 12.8682 16.8122 13.0148 16.9587C13.1613 17.1052 13.36 17.1875 13.5672 17.1875ZM13.5672 28.125H32.3172C32.5244 28.125 32.7231 28.0427 32.8696 27.8962C33.0161 27.7497 33.0984 27.551 33.0984 27.3438C33.0984 27.1365 33.0161 26.9378 32.8696 26.7913C32.7231 26.6448 32.5244 26.5625 32.3172 26.5625H13.5672C13.36 26.5625 13.1613 26.6448 13.0148 26.7913C12.8682 26.9378 12.7859 27.1365 12.7859 27.3438C12.7859 27.551 12.8682 27.7497 13.0148 27.8962C13.1613 28.0427 13.36 28.125 13.5672 28.125ZM7.31718 28.125C7.78073 28.125 8.23387 27.9875 8.6193 27.73C9.00473 27.4725 9.30513 27.1064 9.48253 26.6782C9.65992 26.2499 9.70633 25.7787 9.6159 25.324C9.52547 24.8694 9.30224 24.4517 8.97446 24.124C8.64669 23.7962 8.22907 23.573 7.77443 23.4825C7.31978 23.3921 6.84853 23.4385 6.42027 23.6159C5.99201 23.7933 5.62596 24.0937 5.36843 24.4791C5.11089 24.8646 4.97343 25.3177 4.97343 25.7812C4.97343 26.4029 5.22036 26.999 5.6599 27.4385C6.09944 27.8781 6.69558 28.125 7.31718 28.125ZM7.31718 25C7.4717 25 7.62275 25.0458 7.75122 25.1317C7.8797 25.2175 7.97983 25.3395 8.03896 25.4823C8.0981 25.625 8.11357 25.7821 8.08342 25.9337C8.05328 26.0852 7.97887 26.2244 7.86961 26.3337C7.76035 26.4429 7.62115 26.5173 7.4696 26.5475C7.31805 26.5776 7.16097 26.5622 7.01821 26.503C6.87546 26.4439 6.75344 26.3438 6.6676 26.2153C6.58175 26.0868 6.53593 25.9358 6.53593 25.7812C6.53593 25.574 6.61824 25.3753 6.76476 25.2288C6.91127 25.0823 7.10998 25 7.31718 25ZM9.66093 33.5938C9.66093 33.1302 9.52347 32.6771 9.26594 32.2916C9.00841 31.9062 8.64236 31.6058 8.2141 31.4284C7.78583 31.251 7.31458 31.2046 6.85994 31.295C6.4053 31.3855 5.98768 31.6087 5.6599 31.9365C5.33212 32.2642 5.1089 32.6819 5.01847 33.1365C4.92803 33.5912 4.97445 34.0624 5.15184 34.4907C5.32923 34.9189 5.62964 35.285 6.01507 35.5425C6.40049 35.8 6.85363 35.9375 7.31718 35.9375C7.93879 35.9375 8.53493 35.6906 8.97446 35.251C9.414 34.8115 9.66093 34.2154 9.66093 33.5938ZM7.31718 34.375C7.16267 34.375 7.01162 34.3292 6.88314 34.2433C6.75467 34.1575 6.65453 34.0355 6.5954 33.8927C6.53627 33.75 6.5208 33.5929 6.55095 33.4413C6.58109 33.2898 6.6555 33.1506 6.76476 33.0413C6.87402 32.9321 7.01322 32.8577 7.16477 32.8275C7.31632 32.7974 7.4734 32.8128 7.61615 32.872C7.75891 32.9311 7.88092 33.0312 7.96677 33.1597C8.05261 33.2882 8.09843 33.4392 8.09843 33.5938C8.09843 33.8009 8.01612 33.9997 7.86961 34.1462C7.7231 34.2927 7.52438 34.375 7.31718 34.375ZM13.5672 32.8125H26.0672C26.2744 32.8125 26.4731 32.7302 26.6196 32.5837C26.7661 32.4372 26.8484 32.2384 26.8484 32.0312C26.8484 31.824 26.7661 31.6253 26.6196 31.4788C26.4731 31.3323 26.2744 31.25 26.0672 31.25H13.5672C13.36 31.25 13.1613 31.3323 13.0148 31.4788C12.8682 31.6253 12.7859 31.824 12.7859 32.0312C12.7859 32.2384 12.8682 32.4372 13.0148 32.5837C13.1613 32.7302 13.36 32.8125 13.5672 32.8125ZM7.31718 20.3125C7.78073 20.3125 8.23387 20.175 8.6193 19.9175C9.00473 19.66 9.30513 19.2939 9.48253 18.8657C9.65992 18.4374 9.70633 17.9662 9.6159 17.5115C9.52547 17.0569 9.30224 16.6392 8.97446 16.3115C8.64669 15.9837 8.22907 15.7605 7.77443 15.67C7.31978 15.5796 6.84853 15.626 6.42027 15.8034C5.99201 15.9808 5.62596 16.2812 5.36843 16.6666C5.11089 17.0521 4.97343 17.5052 4.97343 17.9688C4.97343 18.5904 5.22036 19.1865 5.6599 19.626C6.09944 20.0656 6.69558 20.3125 7.31718 20.3125ZM7.31718 17.1875C7.4717 17.1875 7.62275 17.2333 7.75122 17.3192C7.8797 17.405 7.97983 17.527 8.03896 17.6698C8.0981 17.8125 8.11357 17.9696 8.08342 18.1212C8.05328 18.2727 7.97887 18.4119 7.86961 18.5212C7.76035 18.6304 7.62115 18.7048 7.4696 18.735C7.31805 18.7651 7.16097 18.7497 7.01821 18.6905C6.87546 18.6314 6.75344 18.5313 6.6676 18.4028C6.58175 18.2743 6.53593 18.1233 6.53593 17.9688C6.53593 17.7615 6.61824 17.5628 6.76476 17.4163C6.91127 17.2698 7.10998 17.1875 7.31718 17.1875ZM13.5672 35.9375H26.0672C26.2744 35.9375 26.4731 35.8552 26.6196 35.7087C26.7661 35.5622 26.8484 35.3634 26.8484 35.1562C26.8484 34.9491 26.7661 34.7503 26.6196 34.6038C26.4731 34.4573 26.2744 34.375 26.0672 34.375H13.5672C13.36 34.375 13.1613 34.4573 13.0148 34.6038C12.8682 34.7503 12.7859 34.9491 12.7859 35.1562C12.7859 35.3634 12.8682 35.5622 13.0148 35.7087C13.1613 35.8552 13.36 35.9375 13.5672 35.9375Z" fill="#F2E6CF"/>
</g>
<defs>
<clipPath id="clip0_6_26">
<rect width="50" height="50" fill="white"/>
</clipPath>
</defs>
</svg>
