<svg width="99" height="100" viewBox="0 0 99 100" fill="none" xmlns="http://www.w3.org/2000/svg">
<path d="M81.4791 68.3153C80.6561 67.9 79.5244 67.9 78.9072 67.9H77.1582C76.9525 67.9 76.8496 68.0038 76.8496 68.2114V73.5064C76.8496 73.714 76.9525 73.8178 77.1582 73.8178H79.1129C79.7302 73.8178 80.759 73.8178 81.582 73.4026C82.8165 72.8834 83.0223 71.6376 83.0223 70.807C83.0223 69.5611 82.5079 68.7305 81.4791 68.3153Z" fill="#114C5F"/>
<path d="M81.3762 0H17.0777C7.61295 0 0 7.68287 0 17.2346V82.1237C0 91.6754 7.61295 99.3582 17.0777 99.3582H81.3762C90.841 99.3582 98.4539 91.6754 98.4539 82.1237V17.2346C98.4539 7.68287 90.7381 0 81.3762 0ZM73.5575 31.8735C73.5575 31.6659 73.6604 31.5621 73.8661 31.5621H79.833C80.0388 31.5621 80.1417 31.6659 80.1417 31.8735V51.2884C80.1417 51.496 80.2446 51.5998 80.4503 51.5998H88.4748C88.6805 51.5998 88.7834 51.8075 88.7834 51.9113L88.269 57.3101C88.269 57.5177 88.1661 57.6215 87.9604 57.6215H73.8661C73.6604 57.6215 73.5575 57.5177 73.5575 57.3101V31.8735ZM64.2985 31.8735V51.2884C64.2985 51.496 64.4014 51.5998 64.6072 51.5998H72.6316C72.8374 51.5998 72.9402 51.8075 72.9402 51.9113L72.4259 57.3101C72.4259 57.5177 72.323 57.6215 72.1172 57.6215H58.1259C57.9201 57.6215 57.8172 57.5177 57.8172 57.3101V31.8735C57.8172 31.6659 57.9201 31.5621 58.1259 31.5621H64.0928C64.1956 31.5621 64.2985 31.6659 64.2985 31.8735ZM25.3079 54.8183C23.8676 56.9986 21.3985 58.0368 17.9007 58.0368C15.0201 58.0368 12.7568 57.3101 11.2137 55.8566C10.4935 55.2336 9.56762 53.8839 9.05323 51.8075C9.05323 51.5998 9.15611 51.496 9.25899 51.3922L15.123 50.1463C15.3288 50.1463 15.4316 50.2501 15.5345 50.354C16.0489 52.2228 17.4892 52.3266 17.9007 52.3266C19.341 52.3266 20.2669 51.0807 20.2669 49.9387C20.2669 48.6928 19.341 48.2775 15.7403 46.7202L15.4316 46.6163C13.7856 45.8896 9.25899 44.0208 9.25899 39.1411C9.25899 33.95 13.7856 31.1468 18.1065 31.1468C18.9295 31.1468 20.4727 31.2506 21.9129 31.8735C23.0446 32.3927 25.3079 33.6385 25.8223 36.4417C25.8223 36.6494 25.7194 36.7532 25.6165 36.7532L20.164 38.1029C20.0611 38.1029 19.8554 38.1029 19.8554 37.8952C19.5468 37.2723 19.0324 36.7532 18.0036 36.7532C16.9748 36.7532 15.946 37.48 15.946 38.7258C15.946 39.8679 16.6662 40.1793 21.0899 42.2558C25.3079 44.2284 26.9539 46.3049 26.9539 49.731C26.7482 50.7693 26.5424 52.9495 25.3079 54.8183ZM48.5582 57.6215H41.3568C41.2539 57.6215 41.1511 57.5177 41.0482 57.4139L34.9784 47.3431C34.7726 47.0316 34.3611 47.1355 34.3611 47.5508V57.3101C34.3611 57.5177 34.2583 57.6215 34.0525 57.6215H28.1885C27.9827 57.6215 27.8798 57.5177 27.8798 57.3101V31.9774C27.8798 31.7697 27.9827 31.6659 28.1885 31.6659H34.0525C34.2583 31.6659 34.3611 31.7697 34.3611 31.9774V41.529C34.3611 41.8405 34.7726 41.9443 34.9784 41.7367L41.2539 31.7697C41.3568 31.6659 41.4597 31.6659 41.5626 31.6659H47.6323C47.8381 31.6659 48.0439 31.9774 47.941 32.185L40.1223 44.0208C40.0194 44.1246 40.0194 44.3322 40.1223 44.4361L48.764 57.1024C48.9698 57.3101 48.764 57.6215 48.5582 57.6215ZM68.7223 77.5555C68.7223 82.0199 67.6935 83.8887 66.1503 85.5498C64.2985 87.4186 62.1381 88.353 59.1546 88.353C57.7144 88.353 54.3194 88.0416 51.9532 85.5498C49.6899 83.0581 49.3813 81.0854 49.3813 77.5555V22.0104H46.2949L49.4841 16.404L52.6734 10.7976L55.8626 16.404L59.0518 22.0104H55.9654V68.5229V68.6267V77.5555C55.9654 78.4899 55.9654 79.5281 56.3769 80.4625C56.7885 81.5007 57.9201 82.0199 59.1546 82.0199C60.3892 82.0199 61.5208 81.6046 61.8295 80.6702C62.241 79.7358 62.241 78.5937 62.241 77.6593V62.2936C62.241 62.0859 62.3438 61.9821 62.5496 61.9821H68.5165C68.7223 61.9821 68.8251 62.0859 68.8251 62.2936V77.5555H68.7223ZM86.623 77.5555C84.9769 79.009 83.3309 79.8396 79.3187 79.8396H77.2611C77.0554 79.8396 76.9525 79.9434 76.9525 80.151V87.6263C76.9525 87.8339 76.8496 87.9377 76.6438 87.9377H70.6769C70.4712 87.9377 70.3683 87.8339 70.3683 87.6263V62.1897C70.3683 61.9821 70.4712 61.8783 70.6769 61.8783H78.5985C83.228 61.8783 84.9769 62.605 86.3143 63.7471C88.1661 65.4082 89.2978 67.9 89.2978 70.5994C89.2978 73.4026 88.269 76.2058 86.623 77.5555Z" fill="#114C5F"/>
</svg>
